<svg width="8" height="7" viewBox="0 0 8 7" fill="none" xmlns="http://www.w3.org/2000/svg">
<path d="M7.45982 1.91964C7.45982 1.80804 7.41518 1.69643 7.33482 1.61607L6.72768 1.00893C6.64732 0.928571 6.53571 0.883928 6.42411 0.883928C6.3125 0.883928 6.20089 0.928571 6.12054 1.00893L3.19196 3.94196L1.87946 2.625C1.79911 2.54464 1.6875 2.5 1.57589 2.5C1.46429 2.5 1.35268 2.54464 1.27232 2.625L0.665179 3.23214C0.584821 3.3125 0.540179 3.42411 0.540179 3.53571C0.540179 3.64732 0.584821 3.75893 0.665179 3.83929L2.28125 5.45536L2.88839 6.0625C2.96875 6.14286 3.08036 6.1875 3.19196 6.1875C3.30357 6.1875 3.41518 6.14286 3.49554 6.0625L4.10268 5.45536L7.33482 2.22321C7.41518 2.14286 7.45982 2.03125 7.45982 1.91964Z" fill="white"/>
</svg>
