<svg width="101" height="45" viewBox="0 0 101 45" fill="none" xmlns="http://www.w3.org/2000/svg">
<path d="M40.7048 1.46104L54.8535 14.3474H35.4952L24.3213 5.21591C23.8478 4.8397 23.5025 4.32431 23.3334 3.74139C23.1643 3.15847 23.1797 2.53698 23.3777 1.96331C23.5756 1.38965 23.9461 0.892322 24.4377 0.540462C24.9293 0.188602 25.5176 -0.00030594 26.1207 3.71923e-07H37.193C38.506 0.017208 39.7627 0.540022 40.7048 1.46104Z" fill="#BF1F26"/>
<path d="M20.0694 0H17.7476C15.7453 0.0111862 13.8061 0.706623 12.2477 1.9724L2.00259 10.2273C1.388 10.7199 0.8896 11.3436 0.54331 12.0536C0.197019 12.7635 0.0114585 13.542 0 14.3328L0 43.2175C0 43.6903 0.186524 44.1437 0.518539 44.4779C0.850554 44.8122 1.30086 45 1.7704 45H18.5457C19.0152 45 19.4655 44.8122 19.7976 44.4779C20.1296 44.1437 20.3161 43.6903 20.3161 43.2175V15.1364C20.3167 14.5118 20.4534 13.895 20.7167 13.3295C20.98 12.764 21.3634 12.2636 21.8398 11.8636C21.8398 11.8636 33.6231 1.9724 34.9001 1.00812C35.7584 0.418515 36.7642 0.0843169 37.8024 0.0438312L20.0694 0Z" fill="white"/>
<path d="M81.3369 1.37339L95.4711 14.3182H76.1273L64.9389 5.17209C64.4815 4.79059 64.1514 4.27698 63.9931 3.7006C63.8348 3.12421 63.856 2.5128 64.0537 1.94891C64.2515 1.38502 64.6163 0.895796 65.099 0.547283C65.5817 0.198771 66.1589 0.00775115 66.7529 1.11871e-05H77.8251C79.1268 -0.00941751 80.3829 0.481818 81.3369 1.37339Z" fill="#BF1F26"/>
<path d="M60.7017 0H58.3798C56.3835 0.00331676 54.4464 0.682596 52.88 1.92857L42.6348 10.1104C42.0097 10.613 41.505 11.251 41.1583 11.9769C40.8116 12.7028 40.6318 13.4981 40.6323 14.3036V43.1737C40.6303 43.4083 40.6748 43.641 40.7631 43.8581C40.8514 44.0753 40.9817 44.2725 41.1465 44.4384C41.3113 44.6043 41.5072 44.7356 41.7229 44.8245C41.9385 44.9133 42.1696 44.9581 42.4027 44.9562H59.1634C59.3977 44.9601 59.6303 44.9167 59.8477 44.8287C60.065 44.7407 60.2627 44.6098 60.429 44.4437C60.5954 44.2776 60.727 44.0797 60.8162 43.8616C60.9054 43.6434 60.9503 43.4096 60.9484 43.1737V15.0925C60.9497 14.4667 61.0882 13.8488 61.3541 13.2831C61.62 12.7173 62.0067 12.2177 62.4866 11.8198C62.4866 11.8198 74.2554 1.92857 75.5469 0.964286C76.4065 0.377513 77.4116 0.0435893 78.4492 0L60.7017 0Z" fill="white"/>
<path d="M80.7999 13.8214L80.6984 43.2175C80.6984 43.6903 80.8849 44.1437 81.2169 44.4779C81.5489 44.8122 81.9992 45 82.4688 45H99.2295C99.6991 45 100.149 44.8122 100.481 44.4779C100.813 44.1437 101 43.6903 101 43.2175V1.13593e-05H95.7758C94.6991 -0.00616861 93.6318 0.202385 92.6355 0.613637C91.6393 1.02489 90.7337 1.6307 89.9712 2.39612L82.3237 10.125C81.3491 11.1051 80.8011 12.4346 80.7999 13.8214Z" fill="white"/>
</svg>
