<svg width="27" height="26" viewBox="0 0 27 26" fill="none" xmlns="http://www.w3.org/2000/svg">
<path d="M14.1416 6.35652L14.5733 6.58608C15.542 7.09738 16.7278 7.01347 17.6103 6.3713C18.2781 5.88544 19.1753 5.82197 19.9083 6.2087L20.8486 6.70673C20.955 6.76304 21.0839 6.76065 21.188 6.70043C21.2921 6.64021 21.3558 6.5313 21.3558 6.41348V1.9892C21.3558 1.86681 21.287 1.75442 21.1766 1.69594L20.2361 1.19812C19.2669 0.686825 18.0808 0.770737 17.1981 1.4129C16.5301 1.89876 15.6329 1.96224 14.8999 1.57529L13.9593 1.07725C13.8532 1.02095 13.7245 1.02356 13.6211 1.08378C13.5174 1.14421 13.4544 1.25334 13.4553 1.37073V10.3125H14.1416V6.35652Z" fill="#C4C4C4"/>
<path d="M22.1187 21.0824C22.5781 21.0824 22.7925 20.9154 23.0638 20.7039C23.2371 20.5583 23.429 20.4352 23.6348 20.3376L22.1167 17.8707L20.5993 20.3363C20.8064 20.4339 20.9994 20.5574 21.1737 20.7037C21.4452 20.9154 21.6594 21.0824 22.1187 21.0824Z" fill="#C4C4C4"/>
<path d="M5.34237 19.5052C5.69849 19.7824 5.97976 20.0015 6.59101 20.0015C7.20204 20.0015 7.48309 19.7824 7.83966 19.5052C8.06128 19.3326 8.30368 19.1444 8.63433 19.0163L6.58833 15.6918L4.54345 19.0148C4.87634 19.1428 5.11963 19.332 5.34237 19.5052Z" fill="#C4C4C4"/>
<path d="M8.26838 20.0252C7.88144 20.3265 7.44288 20.6665 6.59101 20.6665C5.73892 20.6665 5.30037 20.3222 4.91342 20.0209C4.68197 19.8407 4.47576 19.6815 4.18376 19.5948L0.749268 25.1715H12.4225L8.9938 19.5994C8.70403 19.6868 8.49872 19.8459 8.26838 20.0252Z" fill="#C4C4C4"/>
<path d="M13.7913 10.9625L9.13477 18.5292L13.2225 25.1715H16.8237L19.6798 20.5307L13.7913 10.9625ZM14.0844 18.2066C14.9256 18.2057 15.628 18.8305 15.7024 19.6457C15.777 20.4611 15.1986 21.1965 14.3704 21.3398V21.763C14.3704 21.9476 14.2167 22.0969 14.0272 22.0969C13.8376 22.0969 13.6841 21.9476 13.6841 21.763V21.3161C12.9654 21.1372 12.4627 20.5074 12.4616 19.7857C12.4616 19.6013 12.6153 19.4518 12.8047 19.4518C12.9944 19.4518 13.1479 19.6013 13.1479 19.7857C13.1481 20.2889 13.5675 20.6967 14.0844 20.6967C14.6016 20.6965 15.0208 20.2887 15.0208 19.7854C15.0208 19.2824 14.6014 18.8744 14.0844 18.8744C13.2551 18.8744 12.5592 18.2659 12.471 17.4635C12.3827 16.6611 12.9307 15.9231 13.7413 15.7525V15.3629C13.7413 15.1783 13.8948 15.029 14.0844 15.029C14.2739 15.029 14.4276 15.1783 14.4276 15.3629V15.7525C15.1736 15.9105 15.706 16.5525 15.7071 17.2955C15.7071 17.4798 15.5534 17.6294 15.3639 17.6294C15.1745 17.6294 15.0208 17.4798 15.0208 17.2955C15.0208 16.7922 14.6014 16.3844 14.0844 16.3844C13.5672 16.3844 13.1479 16.7922 13.1479 17.2955C13.1481 17.7987 13.5672 18.2066 14.0844 18.2066Z" fill="#C4C4C4"/>
<path d="M23.4927 21.2248C23.1924 21.4585 22.8189 21.7482 22.1187 21.7482C21.4186 21.7482 21.045 21.4556 20.745 21.2219C20.5759 21.0904 20.4329 20.9759 20.2428 20.9087L17.6233 25.1575L26.6185 25.2132L23.9914 20.9302C23.8091 21 23.6404 21.0996 23.4927 21.2248Z" fill="#C4C4C4"/>
</svg>
