<svg width="23" height="22" viewBox="0 0 23 22" fill="none" xmlns="http://www.w3.org/2000/svg">
<path d="M15.9698 5.56259C15.6365 5.56259 15.3662 5.83273 15.3662 6.16598C15.3662 6.49943 15.6363 6.76956 15.9696 6.76956C16.303 6.76956 16.5731 6.49943 16.5731 6.16618C16.5727 5.83294 16.3028 5.563 15.9698 5.56259Z" fill="#C4C4C4"/>
<path d="M4.61175 5.56259C4.2785 5.5628 4.00836 5.83294 4.00836 6.16618C4.00836 6.49943 4.2785 6.76956 4.61175 6.76956C4.9452 6.76956 5.21533 6.49943 5.21533 6.16618C5.21493 5.83294 4.94499 5.563 4.61175 5.56259Z" fill="#C4C4C4"/>
<path d="M13.1961 6.16618C13.1961 7.77072 11.8953 9.07154 10.2908 9.07154C8.68621 9.07154 7.38539 7.77072 7.38539 6.16618C7.38539 4.56144 8.68621 3.26062 10.2908 3.26062C11.8953 3.26062 13.1961 4.56144 13.1961 6.16618Z" fill="#C4C4C4"/>
<path d="M0.174316 13.8933H12.3169V14.675H0.174316V13.8933Z" fill="#C4C4C4"/>
<path d="M0.174316 12.4341H12.3169V13.2679H0.174316V12.4341Z" fill="#C4C4C4"/>
<path d="M3.38137 10.558C3.29607 10.5584 3.21423 10.5238 3.15479 10.4625L1.5132 8.74847C1.45722 8.69046 1.42546 8.6131 1.42505 8.53228V3.79988C1.42546 3.71764 1.45681 3.63845 1.513 3.57819L3.1552 1.85802C3.21322 1.79328 3.29465 1.75461 3.38137 1.75074H17.1999C17.2858 1.75481 17.3665 1.79349 17.4233 1.85802L19.062 3.58369C19.1163 3.64231 19.1457 3.71987 19.1438 3.79988V9.11083L20.4467 9.78668V0.5H0.174316V11.8087H12.3169V11.6937C12.3165 11.5793 12.3784 11.4739 12.4785 11.4185L14.046 10.558H3.38137Z" fill="#C4C4C4"/>
<path d="M0.174316 15.3004V16.0821H12.369C12.3381 15.8225 12.3206 15.5616 12.3169 15.3004H0.174316Z" fill="#C4C4C4"/>
<path d="M13.9845 12.4956V13.4764H21.958V12.5023L17.9092 10.3394L13.9845 12.4956Z" fill="#C4C4C4"/>
<path d="M21.958 14.1018H13.9845V15.188C13.9845 15.2082 13.9825 15.2281 13.9827 15.2483H21.9724C21.9735 15.2055 21.958 15.163 21.958 15.1202V14.1018Z" fill="#C4C4C4"/>
<path d="M18.6496 9.55034L17.91 9.15602L12.9423 11.879V15.1882C12.9441 17.9759 14.595 20.4984 17.149 21.6156L17.889 21.9394L18.7117 21.5824C21.3125 20.489 23.0029 17.9415 23.0001 15.1202V11.8774L18.7377 9.60164C18.7053 9.59024 18.6754 9.57273 18.6496 9.55034ZM22.5834 12.3144V15.1202C22.5864 17.7742 20.9963 20.1706 18.5498 21.1993L18.0185 21.4323C17.9391 21.4665 17.8493 21.4663 17.7701 21.4317L17.318 21.2345C14.9151 20.1836 13.3614 17.8108 13.3592 15.188V12.3103C13.3586 12.1963 13.4202 12.0913 13.5202 12.0361L17.7636 9.70973C17.856 9.65904 17.9678 9.65843 18.0608 9.7079L22.4258 12.0386C22.526 12.0937 22.5866 12.2002 22.5834 12.3144Z" fill="#C4C4C4"/>
<path d="M17.5672 20.6614L17.8951 20.8043L18.3124 20.6242C20.2785 19.7989 21.6559 17.9885 21.9264 15.8736H14.0216C14.2685 17.9863 15.6184 19.8089 17.5672 20.6614Z" fill="#C4C4C4"/>
<path d="M3.51491 2.37611L2.05042 3.92528V8.40688L3.51491 9.93264H15.187L17.7543 8.52556C17.8459 8.47508 17.9568 8.47487 18.0488 8.52475L18.5185 8.77758V3.92528L17.0666 2.37611H3.51491ZM4.61175 7.39473C3.93304 7.39453 3.38299 6.84448 3.38299 6.16577C3.38299 5.48707 3.93304 4.93702 4.61175 4.93702C5.29045 4.93702 5.8405 5.48727 5.8405 6.16598C5.83989 6.84427 5.29004 7.39391 4.61175 7.39473ZM10.2905 9.6967C8.34055 9.6967 6.75982 8.11578 6.75982 6.16577C6.75982 4.21577 8.34075 2.63505 10.2908 2.63505C12.2408 2.63505 13.8215 4.21598 13.8215 6.16598C13.8192 8.11496 12.2399 9.69447 10.2908 9.69691L10.2905 9.6967ZM15.9698 7.39473C15.2911 7.39473 14.7408 6.84448 14.7408 6.16577C14.7408 5.48727 15.2911 4.93702 15.9698 4.93702C16.6483 4.93702 17.1985 5.48727 17.1985 6.16598C17.1979 6.84427 16.6481 7.39391 15.9698 7.39473Z" fill="#C4C4C4"/>
</svg>
