<svg width="18" height="25" viewBox="0 0 18 25" fill="none" xmlns="http://www.w3.org/2000/svg">
<path d="M8.91659 10.9858C9.18647 10.986 9.42387 10.8018 9.49823 10.5342C9.57259 10.2668 9.46618 9.98071 9.23711 9.83325C9.20228 9.82267 9.16938 9.80547 9.14053 9.78255C8.91403 9.68953 8.65569 9.74552 8.48496 9.92494C8.31423 10.1044 8.26444 10.3717 8.35867 10.6036C8.45312 10.8353 8.673 10.986 8.91659 10.986V10.9858Z" fill="#ED1C23"/>
<path d="M5.80583 12.5903C5.9975 12.5905 6.17785 12.497 6.29195 12.3381C6.40606 12.1792 6.44046 11.974 6.38469 11.7848C6.3535 11.7443 6.33277 11.6962 6.32379 11.6453C6.17336 11.387 5.86523 11.2766 5.59194 11.383C5.31864 11.4895 5.15817 11.7822 5.21052 12.0787C5.26308 12.3751 5.51373 12.5905 5.80583 12.5903Z" fill="#ED1C23"/>
<path d="M13.6071 1.33411V4.55752H16.6091L13.6071 1.33411Z" fill="#ED1C23"/>
<path d="M10.472 7.77696C10.8062 7.77696 11.0771 7.49747 11.0769 7.15273C11.0769 6.80822 10.8062 6.52872 10.472 6.52872C10.1378 6.52872 9.86705 6.80822 9.86705 7.15273C9.86726 7.49747 10.138 7.77652 10.472 7.77696Z" fill="#ED1C23"/>
<path d="M17.0533 5.23464H13.2714C13.1859 5.23597 13.1035 5.20136 13.043 5.13876C12.9825 5.07616 12.9492 4.99108 12.9507 4.90269V0.833313H0.314453V24.4199H17.0533V5.23464ZM5.80583 10.6649C6.18447 10.6649 6.54303 10.8406 6.78235 11.1434L7.70054 10.707C7.58301 10.2673 7.69733 9.79622 8.00183 9.46537C8.30654 9.13474 8.75676 8.99279 9.18861 9.09132L9.68841 8.17151C9.19374 7.76572 9.0666 7.04472 9.39139 6.4853C9.71597 5.92588 10.3921 5.70105 10.9724 5.95916C11.553 6.21727 11.8583 6.87875 11.687 7.50628C11.5154 8.13382 10.9201 8.53344 10.2944 8.44108L9.77046 9.40519C10.1036 9.72326 10.245 10.2016 10.1412 10.6572C10.0373 11.1128 9.70379 11.4758 9.26831 11.6074C8.83283 11.739 8.36231 11.6189 8.03644 11.2931L7.05116 11.7615C7.1345 12.2997 6.88385 12.8345 6.42294 13.1012C5.96225 13.3681 5.38894 13.3104 4.98701 12.9566C4.58486 12.6028 4.43934 12.028 4.62204 11.5166C4.80474 11.005 5.27719 10.6653 5.80562 10.6653L5.80583 10.6649ZM2.83076 6.39868C2.83076 6.21176 2.97777 6.06011 3.15897 6.06011C3.34017 6.06011 3.48718 6.21176 3.48718 6.39868V14.4887H11.5141C11.6955 14.4887 11.8423 14.6404 11.8423 14.8273C11.8423 15.0142 11.6955 15.1658 11.5141 15.1658H3.16153C2.98033 15.1658 2.83076 15.0411 2.83076 14.8542V6.39868ZM2.85747 17.5922H9.42387C9.60507 17.5922 9.75209 17.7439 9.75209 17.9308C9.75209 18.1177 9.60507 18.2694 9.42387 18.2694H2.85747C2.67605 18.2694 2.52925 18.1177 2.52925 17.9308C2.52925 17.7439 2.67605 17.5922 2.85747 17.5922ZM14.1924 21.1471H2.85747C2.67605 21.1471 2.52925 20.9955 2.52925 20.8086C2.52925 20.6217 2.67605 20.47 2.85747 20.47H14.1924C14.3738 20.47 14.5206 20.6217 14.5206 20.8086C14.5206 20.9955 14.3738 21.1471 14.1924 21.1471Z" fill="#ED1C23"/>
</svg>
