<svg width="21" height="27" viewBox="0 0 21 27" fill="none" xmlns="http://www.w3.org/2000/svg">
<path d="M6.81817 7.29806C8.28936 7.29806 9.48206 6.10954 9.48206 4.64351C9.48206 3.17748 8.28936 1.98896 6.81817 1.98896C5.34698 1.98896 4.15428 3.17727 4.15428 4.64351C4.156 6.1089 5.34762 7.29634 6.81817 7.29806ZM6.81817 3.11342C7.66594 3.11342 8.35343 3.7985 8.35343 4.6433C8.35343 5.48831 7.66594 6.17317 6.81817 6.17317C5.97018 6.17317 5.28291 5.48831 5.28291 4.6433C5.28399 3.79893 5.97062 3.1145 6.81817 3.11342Z" fill="#C4C4C4"/>
<path d="M20.4767 6.6607L16.7584 2.87224V6.09536C16.7584 6.40769 17.0399 6.6607 17.3538 6.6607H20.4767Z" fill="#C4C4C4"/>
<path d="M6.81817 5.51324C7.30008 5.51324 7.69074 5.12395 7.69074 4.64373C7.69074 4.16351 7.30008 3.77421 6.81817 3.77421C6.33626 3.77421 5.94559 4.16351 5.94559 4.64373C5.94624 5.12352 6.33647 5.51238 6.81817 5.51324Z" fill="#C4C4C4"/>
<path d="M2.5131 4.28195L2.32133 4.4249C2.25251 4.47627 2.21196 4.55688 2.21196 4.64244C2.21174 4.72799 2.2523 4.80882 2.3209 4.86019L2.51461 5.00508C2.88133 5.27808 2.99501 5.77614 2.78296 6.18048L2.67295 6.39114C2.63326 6.46724 2.63196 6.55774 2.6695 6.63491C2.70682 6.71208 2.77865 6.76732 2.86321 6.78366L3.09446 6.82859C3.54574 6.91436 3.86694 7.31526 3.85098 7.77291L3.84364 8.01001C3.84084 8.09578 3.87902 8.17789 3.94633 8.23142C4.01363 8.28473 4.10229 8.30343 4.18577 8.28172L4.41529 8.22175C4.4936 8.20133 4.57406 8.19079 4.65496 8.19079C5.02426 8.19101 5.35863 8.40833 5.50747 8.74518L5.60454 8.96315C5.63949 9.04139 5.7096 9.09879 5.79351 9.11792C5.87743 9.13683 5.96544 9.11534 6.03102 9.05988L6.21179 8.9064C6.56082 8.60846 7.07573 8.60846 7.42455 8.9064L7.60554 9.05988C7.67111 9.11534 7.75913 9.13683 7.84304 9.11792C7.92696 9.09879 7.99706 9.04139 8.03179 8.96293L8.12908 8.74518C8.31417 8.32665 8.77753 8.10459 9.22104 8.22175L9.45078 8.28172C9.53426 8.30343 9.62292 8.28473 9.69023 8.2312C9.75753 8.17789 9.7955 8.09578 9.79291 8.01001L9.78536 7.77291C9.76961 7.31526 10.0906 6.91436 10.5419 6.82859L10.7733 6.78366C10.8579 6.76732 10.9297 6.71208 10.9671 6.63491C11.0046 6.55774 11.0033 6.46724 10.9636 6.39114L10.8536 6.18048C10.6413 5.77614 10.7552 5.27808 11.1219 5.00508L11.3152 4.86019C11.384 4.80882 11.4244 4.72821 11.4244 4.64265C11.4244 4.55688 11.384 4.47627 11.3152 4.4249L11.1232 4.28195C10.7554 4.00916 10.6411 3.51045 10.8536 3.10568L10.9634 2.89545C11.0029 2.81936 11.0044 2.72907 10.9668 2.6519C10.9295 2.57452 10.8577 2.51949 10.7731 2.50315L10.5417 2.45822C10.0904 2.37224 9.76939 1.97134 9.78514 1.5139L9.79269 1.27658C9.79528 1.19081 9.75731 1.10891 9.69001 1.05539C9.62271 1.00186 9.53383 0.983163 9.45057 1.00509L9.22083 1.06485C8.7771 1.18222 8.31374 0.960162 8.12887 0.541418L8.03158 0.323663C7.99663 0.245203 7.92674 0.187808 7.84283 0.168892C7.75891 0.14976 7.6709 0.171256 7.60532 0.226931L7.42433 0.380198C7.07552 0.678133 6.5606 0.678133 6.21157 0.380198L6.0308 0.226931C5.96522 0.171256 5.87721 0.14976 5.7933 0.168892C5.70938 0.187808 5.63927 0.245203 5.60433 0.323663L5.50726 0.541418C5.32239 0.960162 4.85881 1.18222 4.41508 1.06485L4.18556 1.00509C4.10207 0.983163 4.01341 1.00186 3.94611 1.05539C3.87881 1.10891 3.84062 1.19081 3.84343 1.27658L3.85076 1.5139C3.86673 1.97134 3.54552 2.37224 3.09424 2.45822L2.86299 2.50315C2.77843 2.51949 2.7066 2.57452 2.66928 2.6519C2.63175 2.72907 2.63304 2.81936 2.67273 2.89545L2.78232 3.10568C2.99501 3.51024 2.8809 4.00895 2.5131 4.28195ZM6.81817 1.3286C8.65543 1.32839 10.1447 2.81269 10.1447 4.64351C10.1447 6.47433 8.65543 7.95842 6.81817 7.95842C4.98091 7.95842 3.49159 6.47433 3.49159 4.64351C3.49354 2.81355 4.98177 1.33054 6.81817 1.3286Z" fill="#C4C4C4"/>
<path d="M4.71967 20.8488V14.18L4.10186 14.5663C4.005 14.6289 3.88118 14.6314 3.78173 14.573C3.67776 14.5143 3.61391 14.404 3.6152 14.2849V8.80214C3.55998 8.78559 3.56062 8.76775 3.53603 8.74819C3.30349 8.56611 3.1719 8.28473 3.18118 7.99023L3.18851 7.75378C3.19304 7.6205 3.0992 7.50399 2.96762 7.47949L2.73637 7.43714C2.44666 7.38426 2.2001 7.1966 2.07239 6.93241C1.971 6.72842 1.95116 6.49346 2.01717 6.27549H1.76413C1.03328 6.27549 0.412231 6.84772 0.412231 7.57579V24.7157C0.412231 25.4437 1.03328 26.0312 1.76413 26.0312H14.6334C15.364 26.0312 15.9853 25.4437 15.9853 24.7157V22.8395H6.73425C5.63798 22.8395 4.71967 21.9412 4.71967 20.8488Z" fill="#C4C4C4"/>
<path d="M16.0957 6.09536V2.36837H11.5741C11.6929 2.63127 11.6845 2.93393 11.5514 3.19016L11.4416 3.41028C11.3797 3.5283 11.4132 3.67361 11.5204 3.75315L11.7124 3.89631C11.9481 4.07215 12.0868 4.34837 12.0871 4.64201C12.0873 4.93543 11.9488 5.21187 11.7132 5.38814L11.5199 5.5328C11.4129 5.61256 11.3797 5.75787 11.4416 5.87588L11.5514 6.08654C11.6876 6.34751 11.6921 6.65705 11.5637 6.92188C11.4356 7.1865 11.1895 7.37545 10.9 7.43177L10.6683 7.47648C10.5367 7.50163 10.4431 7.61835 10.4474 7.75163L10.4541 7.98895C10.464 8.28344 10.3328 8.56482 10.1007 8.74733C10.0761 8.76689 10.0768 8.78473 10.0216 8.8015V9.85244H14.0529C14.2358 9.85244 14.3842 10.0001 14.3842 10.1826C14.3842 10.3649 14.2358 10.5128 14.0529 10.5128H10.0211V12.9341H18.2108C18.3938 12.9341 18.5422 13.0818 18.5422 13.2643C18.5422 13.4466 18.3938 13.5945 18.2108 13.5945H10.0211V14.2849C10.0216 14.4042 9.95728 14.5145 9.85288 14.573C9.80391 14.6005 9.74869 14.6151 9.69238 14.6151C9.63026 14.6151 9.56921 14.5983 9.51593 14.5663L6.80479 12.9143L5.38236 13.7753V20.8487C5.38236 21.577 6.00341 22.1791 6.73425 22.1791H19.6035C20.3341 22.1791 20.9554 21.577 20.9554 20.8487V7.32106H17.3538C16.6747 7.32106 16.0957 6.77184 16.0957 6.09536ZM18.2108 16.8963H7.84973C7.6668 16.8963 7.51839 16.7484 7.51839 16.5661C7.51839 16.3836 7.6668 16.2359 7.84973 16.2359H18.2108C18.3938 16.2359 18.5422 16.3836 18.5422 16.5661C18.5422 16.7484 18.3938 16.8963 18.2108 16.8963Z" fill="#C4C4C4"/>
<path d="M8.73438 9.01345L8.63731 9.2312C8.51737 9.4999 8.27749 9.69659 7.98994 9.76194C7.70218 9.82707 7.4006 9.75334 7.17583 9.56289L6.99484 9.4094C6.89302 9.32256 6.74288 9.32256 6.64106 9.4094L6.46029 9.56289C6.29247 9.70648 6.07847 9.78559 5.85715 9.7858C5.78618 9.78559 5.71542 9.77763 5.64639 9.76194C5.35819 9.69788 5.11767 9.50076 4.99903 9.2312L4.90238 9.01345C4.84889 8.89113 4.71385 8.82622 4.58463 8.86082L4.35619 8.9208C4.32966 8.92467 4.30355 8.93026 4.27767 8.93778V13.6953L6.64624 12.2456C6.75108 12.1807 6.88353 12.1807 6.98815 12.2456L9.35845 13.6953V8.93778C9.33257 8.93026 9.30647 8.92467 9.27993 8.9208L9.053 8.86082C8.92357 8.82622 8.78831 8.89113 8.73438 9.01345Z" fill="#C4C4C4"/>
</svg>
