<svg width="13" height="26" viewBox="0 0 13 26" fill="none" xmlns="http://www.w3.org/2000/svg">
<path d="M3.0349 22.1248H10.3327V24.1672H3.0349V22.1248Z" fill="#ED1C23"/>
<path d="M6.68379 10.7666L5.69094 11.3069L4.15433 19.7421H9.21325L7.67664 11.3051L6.68379 10.7666Z" fill="#ED1C23"/>
<path d="M1.40107 25.8692H11.9665V20.4229H1.40107V25.8692ZM2.38137 21.7844C2.38137 21.5965 2.52774 21.444 2.70814 21.444H10.7139C10.8943 21.444 11.0407 21.5965 11.0407 21.7844V24.4509C11.0407 24.639 10.8943 24.7913 10.7139 24.7913H2.70814C2.52774 24.7913 2.38137 24.639 2.38137 24.4509V21.7844Z" fill="#ED1C23"/>
<path d="M3.61143 7.87365L2.92194 12.0606L6.53168 10.0836C6.62699 10.0315 6.74059 10.0315 6.8359 10.0836L10.4456 12.0606L9.75637 7.87365C9.73808 7.76328 9.77318 7.6507 9.85019 7.57247L12.7707 4.60687L8.7348 3.99588C8.62822 3.9797 8.53632 3.91012 8.48866 3.80973L6.68379 0L4.87892 3.80973C4.83127 3.91012 4.73936 3.9797 4.63278 3.99588L0.596924 4.60687L3.5174 7.57225C3.59441 7.65048 3.62951 7.76328 3.61143 7.87365Z" fill="#ED1C23"/>
</svg>
