<svg width="23" height="24" viewBox="0 0 23 24" fill="none" xmlns="http://www.w3.org/2000/svg">
<path d="M16.3293 3.184L18.926 5.41303V0.52833H16.3293V3.184Z" fill="#C4C4C4"/>
<path d="M14.5815 21.9872H14.7036C14.6698 21.8976 14.6291 21.8112 14.5815 21.7286V21.9872Z" fill="#C4C4C4"/>
<path d="M12.8436 16.9261H10.5266C10.2219 16.9281 9.9307 17.0531 9.7171 17.2731C9.5035 17.4931 9.38509 17.7903 9.38802 18.0991V21.9872H13.9822V18.0991C13.985 17.7903 13.8666 17.4931 13.653 17.2731C13.4394 17.0531 13.1481 16.9281 12.8436 16.9261Z" fill="#C4C4C4"/>
<path d="M14.5815 18.6026C15.2307 16.973 16.7586 15.8131 18.5831 15.8131C19.0391 15.8109 19.4925 15.8854 19.9247 16.0335V12.0365C19.8748 11.994 19.8159 11.9483 19.7583 11.8989L19.765 11.8937C19.765 11.8937 19.7652 11.8933 19.765 11.8932L12.3983 5.51781C11.991 5.16176 11.388 5.16176 10.9809 5.51781L3.61893 11.8932C3.55885 11.9449 3.49545 11.9926 3.44551 12.0367V19.9382C3.44064 20.4791 3.64877 20.9995 4.02389 21.3842C4.399 21.7687 4.91007 21.9858 5.44378 21.9872H8.78878V18.0991C8.78605 17.6293 8.96765 17.1778 9.29361 16.8439C9.61957 16.51 10.0631 16.321 10.5266 16.3188H12.8436C13.8088 16.3235 14.5869 17.1209 14.5815 18.0991V18.6026Z" fill="#C4C4C4"/>
<path d="M22.1725 9.0303L12.3942 0.590011C11.9861 0.23554 11.3839 0.23554 10.9761 0.590011L1.19757 9.03089C0.545848 9.59532 0.466066 10.5874 1.01908 11.2512L0.795143 11.4531L1.02298 11.2558C1.58165 11.9175 2.56342 11.996 3.21748 11.4313L10.5857 5.05599C11.2177 4.50481 12.1523 4.50481 12.7843 5.05599L20.1522 11.4309L20.1561 11.4343C20.8115 11.9944 21.7904 11.9121 22.3457 11.25C22.9009 10.5882 22.8234 9.59571 22.1725 9.0303Z" fill="#C4C4C4"/>
<path d="M18.602 16.4204C16.561 16.4204 14.9066 18.0971 14.9066 20.1656C14.9066 22.2339 16.561 23.9108 18.602 23.9108C20.6428 23.9108 22.2973 22.2339 22.2973 20.1656C22.295 18.0981 20.6418 16.4228 18.602 16.4204ZM18.602 19.825C19.2639 19.825 19.8192 20.3309 19.8896 20.9977C19.96 21.6647 19.5229 22.2782 18.8761 22.4201V22.8476C18.8761 23.0152 18.7419 23.1512 18.5764 23.1512C18.4108 23.1512 18.2768 23.0152 18.2768 22.8476V22.4081C17.7061 22.2572 17.3075 21.7353 17.3067 21.1375C17.3067 20.9698 17.441 20.8338 17.6064 20.8338C17.772 20.8338 17.906 20.9698 17.906 21.1375C17.906 21.5269 18.2175 21.8429 18.6018 21.8429C18.9861 21.8429 19.2978 21.5271 19.2978 21.1377C19.2978 20.748 18.9863 20.4323 18.602 20.4323C17.9501 20.4323 17.3998 19.9412 17.3173 19.2858C17.2348 18.6305 17.6458 18.0152 18.2768 17.8492V17.5335C18.2768 17.3656 18.4108 17.2298 18.5764 17.2298C18.7419 17.2298 18.8761 17.3656 18.8761 17.5335V17.8371C19.4714 17.9686 19.8961 18.5022 19.897 19.1198C19.897 19.2874 19.7628 19.4234 19.5974 19.4234C19.4318 19.4234 19.2978 19.2874 19.2978 19.1198C19.2978 18.7303 18.9863 18.4146 18.602 18.4146C18.2175 18.4146 17.906 18.7303 17.906 19.1198C17.906 19.5092 18.2175 19.825 18.602 19.825Z" fill="#C4C4C4"/>
</svg>
