<svg width="23" height="16" viewBox="0 0 23 16" fill="none" xmlns="http://www.w3.org/2000/svg">
<path d="M10.7227 2.55807C8.98034 2.55807 7.56792 3.97048 7.56792 5.71289C7.56792 7.4553 8.98053 8.86791 10.7229 8.86791C12.4653 8.86791 13.8778 7.4553 13.8778 5.71289C13.8758 3.97125 12.4644 2.56 10.7227 2.55807ZM10.7227 5.38772C11.26 5.38849 11.716 5.7814 11.7961 6.31267C11.876 6.84375 11.556 7.35379 11.0429 7.51281V7.80556C11.0429 7.9694 10.9101 8.10197 10.7465 8.10197C10.5828 8.10197 10.4501 7.9694 10.4501 7.80556V7.52612C9.97128 7.40126 9.63685 6.96918 9.63627 6.47419C9.63627 6.31055 9.76885 6.17778 9.93269 6.17778C10.0963 6.17778 10.2291 6.31055 10.2291 6.47419C10.2289 6.74726 10.4501 6.96841 10.7229 6.96861C10.9958 6.96861 11.2172 6.74726 11.2172 6.47439C11.217 6.20151 10.9958 5.98036 10.7227 5.98055C10.1762 5.97978 9.7152 5.57337 9.64592 5.0311C9.57683 4.48902 9.92111 3.97975 10.4501 3.84196V3.65573C10.4501 3.49209 10.5828 3.35932 10.7465 3.35932C10.9101 3.35932 11.0429 3.49209 11.0429 3.65573V3.85547C11.4981 3.99634 11.8088 4.41723 11.8094 4.89389C11.8094 5.05753 11.6768 5.1903 11.513 5.1903C11.3493 5.1903 11.2166 5.05753 11.2166 4.89389C11.2166 4.62102 10.9954 4.39986 10.7226 4.39986C10.4499 4.39986 10.2285 4.62102 10.2285 4.89389C10.2285 5.16676 10.4499 5.38791 10.7226 5.38791L10.7227 5.38772Z" fill="#C4C4C4"/>
<path d="M16.5384 10.4239H4.32105C4.16416 10.4274 4.03313 10.305 4.0256 10.1483C3.97195 8.97327 2.96248 8.20522 1.4528 8.1809C1.29128 8.1782 1.16198 8.04601 1.16256 7.88448V3.5413C1.16179 3.37977 1.29128 3.24758 1.4528 3.24488C2.22684 3.23253 2.87892 3.02161 3.34168 2.63526C3.75504 2.29967 4.00399 1.80236 4.02502 1.27032C4.03255 1.11227 4.16281 0.988185 4.32086 0.987992H17.1534C17.3114 0.987992 17.4415 1.11246 17.4483 1.27032C17.5035 2.44614 18.5012 3.22095 19.9919 3.24488C20.1534 3.24778 20.2823 3.37997 20.2812 3.5413V7.36093H21.2692V-6.10352e-05H0.174316V11.4119H16.526C16.582 11.2157 16.6898 11.0381 16.8383 10.8982C16.6968 10.7705 16.5932 10.6065 16.5384 10.4239Z" fill="#C4C4C4"/>
<path d="M22.4813 7.95376H17.5891C17.3027 7.95376 17.0704 8.18611 17.0704 8.47249C17.0704 8.75907 17.3027 8.99122 17.5891 8.99122H22.4813C22.7677 8.99122 23.0001 8.75907 23.0001 8.47249C23.0001 8.18611 22.7677 7.95376 22.4813 7.95376Z" fill="#C4C4C4"/>
<path d="M16.4807 8.46342C16.4812 8.17009 16.5984 7.88911 16.8064 7.68243C17.0142 7.47556 17.296 7.35997 17.5891 7.36093H19.6884V3.82401C18.1569 3.70398 17.0797 2.81628 16.8855 1.58121H4.58871C4.39322 2.81589 3.28668 3.70475 1.7552 3.8242V7.60138C2.54564 7.66063 3.21914 7.90069 3.72185 8.31695C4.18693 8.69808 4.4955 9.23707 4.58852 9.83106H16.5073C16.5631 9.61608 16.6777 9.42098 16.8383 9.26756C16.6107 9.06223 16.4807 8.77006 16.4807 8.46342ZM10.7227 9.46054C8.65304 9.46054 6.97509 7.78259 6.97509 5.71289C6.97509 3.643 8.65304 1.96504 10.7229 1.96524C12.7926 1.96524 14.4706 3.643 14.4706 5.71289C14.4683 7.78182 12.7917 9.45823 10.7227 9.46054Z" fill="#C4C4C4"/>
<path d="M22.4813 11.2143H17.5891C17.3027 11.2143 17.0704 11.4467 17.0704 11.7331C17.0704 12.0196 17.3027 12.2518 17.5891 12.2518H22.4813C22.7677 12.2518 23.0001 12.0196 23.0001 11.7331C23.0001 11.4467 22.7677 11.2143 22.4813 11.2143Z" fill="#C4C4C4"/>
<path d="M22.4813 9.58405H17.5891C17.3027 9.58405 17.0704 9.8164 17.0704 10.1028C17.0704 10.3894 17.3027 10.6215 17.5891 10.6215H22.4813C22.7677 10.6215 23.0001 10.3894 23.0001 10.1028C23.0001 9.8164 22.7677 9.58405 22.4813 9.58405Z" fill="#C4C4C4"/>
<path d="M22.4813 14.4749H17.5891C17.3027 14.4749 17.0704 14.7073 17.0704 14.9936C17.0704 15.2802 17.3027 15.5124 17.5891 15.5124H22.4813C22.7677 15.5124 23.0001 15.2802 23.0001 14.9936C23.0001 14.7073 22.7677 14.4749 22.4813 14.4749Z" fill="#C4C4C4"/>
<path d="M22.4813 12.8446H17.5891C17.3027 12.8446 17.0704 13.077 17.0704 13.3634C17.0704 13.6499 17.3027 13.8821 17.5891 13.8821H22.4813C22.7677 13.8821 23.0001 13.6499 23.0001 13.3634C23.0001 13.077 22.7677 12.8446 22.4813 12.8446Z" fill="#C4C4C4"/>
</svg>
