<svg width="137" height="39" viewBox="0 0 137 39" fill="none" xmlns="http://www.w3.org/2000/svg">
<path opacity="0.75" d="M46.8698 0H39.8979V16.5246H46.8698V0Z" fill="#ED1C23"/>
<path opacity="0.75" d="M137 0H130.028V16.5246H137V0Z" fill="#ED1C23"/>
<path opacity="0.75" d="M46.8698 0H39.8979V11.8889H46.8698C48.4244 11.8769 49.9112 11.2453 51.0063 10.1318C52.1014 9.01831 52.7159 7.51318 52.7159 5.94446C52.7159 4.37573 52.1014 2.8706 51.0063 1.75711C49.9112 0.643609 48.4244 0.0120223 46.8698 0V0Z" fill="#ED1C23"/>
<path opacity="0.75" d="M69.948 16.5246H58.8862V0L69.948 16.5246Z" fill="#ED1C23"/>
<path opacity="0.75" d="M64.0567 0.00017459H58.8862V11.8891H64.0567C64.8342 11.8951 65.6051 11.7458 66.325 11.4497C67.045 11.1537 67.6998 10.7168 68.2516 10.1642C68.8035 9.61161 69.2415 8.95426 69.5403 8.23006C69.8392 7.50586 69.9931 6.72913 69.9931 5.94463C69.9931 5.16014 69.8392 4.3834 69.5403 3.6592C69.2415 2.935 68.8035 2.27766 68.2516 1.72507C67.6998 1.17247 67.045 0.735565 66.325 0.439523C65.6051 0.143481 64.8342 -0.00583756 64.0567 0.00017459Z" fill="#ED1C23"/>
<path opacity="0.75" d="M114.473 0L105.896 16.5246H114.473H123.051L114.473 0Z" fill="#ED1C23"/>
<path opacity="0.75" d="M105.653 0L97.0752 16.5246H105.653H114.23L105.653 0Z" fill="#ED1C23"/>
<path opacity="0.75" d="M84.649 16.5246C89.1712 16.5246 92.8371 12.8254 92.8371 8.26229C92.8371 3.69915 89.1712 0 84.649 0C80.1269 0 76.4609 3.69915 76.4609 8.26229C76.4609 12.8254 80.1269 16.5246 84.649 16.5246Z" fill="#ED1C23"/>
<path opacity="0.75" d="M128.423 21.6797L119.846 38.2043H128.423H137L128.423 21.6797Z" fill="#ED1C23"/>
<path opacity="0.75" d="M119.602 21.6797L111.024 38.2043H119.602H128.179L119.602 21.6797Z" fill="#ED1C23"/>
<path opacity="0.75" d="M98.8873 38.2043C103.409 38.2043 107.075 34.5051 107.075 29.942C107.075 25.3788 103.409 21.6797 98.8873 21.6797C94.3652 21.6797 90.6992 25.3788 90.6992 29.942C90.6992 34.5051 94.3652 38.2043 98.8873 38.2043Z" fill="#ED1C23"/>
<path opacity="0.75" d="M83.381 24.413C82.2729 23.1713 80.8178 22.2979 79.2076 21.9079C77.5974 21.5179 75.9078 21.6297 74.3619 22.2286C72.816 22.8274 71.4863 23.8852 70.5484 25.2623C69.6105 26.6394 69.1084 28.271 69.1084 29.942C69.1084 31.6129 69.6105 33.2446 70.5484 34.6217C71.4863 35.9988 72.816 37.0565 74.3619 37.6554C75.9078 38.2543 77.5974 38.3661 79.2076 37.9761C80.8178 37.5861 82.2729 36.7126 83.381 35.4709L80.2053 29.9422L83.381 24.413Z" fill="#ED1C23"/>
<path opacity="0.75" d="M83.3811 24.4131C82.4163 23.3317 81.1854 22.5267 79.8131 22.0795C78.4409 21.6323 76.9759 21.5588 75.5664 21.8664L80.2051 29.9419L83.3811 24.4131Z" fill="#ED1C23"/>
<path opacity="0.75" d="M75.5669 38.0174C76.9764 38.325 78.4414 38.2516 79.8136 37.8044C81.1859 37.3572 82.4168 36.5521 83.3816 35.4707L80.2059 29.9419L75.5669 38.0174Z" fill="#ED1C23"/>
<path opacity="0.75" d="M78.8594 14.1056C80.3951 15.6551 82.4779 16.5255 84.6495 16.5253C86.8212 16.5252 88.9039 15.6546 90.4394 14.1049C91.975 12.5553 92.8375 10.4536 92.8374 8.26228C92.8373 6.07092 91.9745 3.96936 90.4387 2.41992L78.8594 14.1056Z" fill="#ED1C23"/>
<path opacity="0.75" d="M93.0977 35.7843C94.6332 37.3337 96.7159 38.2042 98.8875 38.2042C101.059 38.2042 103.142 37.3337 104.677 35.7843C106.213 34.2348 107.076 32.1332 107.076 29.9419C107.076 27.7506 106.213 25.6491 104.677 24.0996L93.0977 35.7843Z" fill="#ED1C23"/>
<path opacity="0.75" d="M0.102051 30.6428C0.102051 26.0273 3.84367 22.2856 8.4592 22.2856H65.3674L60.5329 30.6428L65.3674 38.9999H8.4592C3.84367 38.9999 0.102051 35.2583 0.102051 30.6428Z" fill="#ED1C23"/>
<path opacity="0.75" d="M56.6123 22.2856L60.5919 30.6428L65.3674 22.2856H56.6123Z" fill="#ED1C23"/>
<path opacity="0.75" d="M56.6123 39L60.5919 30.6429L65.3674 39H56.6123Z" fill="#ED1C23"/>
<path d="M10.1473 28.1001C9.57763 28.1001 9.13655 28.3149 8.82405 28.7446C8.51155 29.1711 8.3553 29.7668 8.3553 30.5317C8.3553 32.1235 8.95263 32.9194 10.1473 32.9194C10.6486 32.9194 11.2557 32.7941 11.9686 32.5435V33.813C11.3826 34.0571 10.7283 34.1792 10.0057 34.1792C8.96728 34.1792 8.17301 33.8651 7.62288 33.2368C7.07275 32.6053 6.79768 31.7004 6.79768 30.522C6.79768 29.7798 6.93277 29.1304 7.20296 28.5737C7.47314 28.0138 7.86051 27.5858 8.36507 27.2896C8.87288 26.9901 9.46695 26.8403 10.1473 26.8403C10.8407 26.8403 11.5373 27.008 12.2371 27.3433L11.7489 28.5737C11.4819 28.4468 11.2134 28.3361 10.9432 28.2417C10.673 28.1473 10.4077 28.1001 10.1473 28.1001ZM12.6424 32.8218H13.1942C13.6662 31.8778 14.0389 30.9354 14.3123 29.9946C14.5858 29.0506 14.7892 28.0334 14.9227 26.9429H19.0828V32.8218H20.035V36.1616H18.575V34.0815H14.1024V36.1616H12.6424V32.8218ZM16.1239 28.2026C16.0197 28.9481 15.8455 29.7375 15.6014 30.5708C15.3605 31.4041 15.0887 32.1545 14.786 32.8218H17.5741V28.2026H16.1239ZM25.2498 34.0815H21.1385V26.9429H25.2498V28.1831H22.6522V29.7505H25.0692V30.9907H22.6522V32.8315H25.2498V34.0815ZM32.3934 34.0815H30.8846V28.2026H29.1366L29.0584 28.8569C28.8566 30.5203 28.6776 31.689 28.5213 32.3628C28.3683 33.0334 28.1437 33.5054 27.8475 33.7788C27.5513 34.0522 27.1509 34.1857 26.6463 34.1792C26.3729 34.1792 26.132 34.1434 25.9237 34.0718V32.8315C26.1125 32.8966 26.2899 32.9292 26.4559 32.9292C26.6284 32.9292 26.7651 32.8511 26.866 32.6948C26.967 32.5353 27.0614 32.2424 27.1492 31.8159C27.2404 31.3862 27.3592 30.6847 27.5057 29.7114C27.6554 28.7349 27.7824 27.812 27.8866 26.9429H32.3934V34.0815ZM38.5653 34.0815L38.0477 32.3823H35.4451L34.9276 34.0815H33.2967L35.8162 26.9136H37.6668L40.1961 34.0815H38.5653ZM37.6864 31.1128C37.2078 29.5731 36.9377 28.7023 36.8758 28.5005C36.8172 28.2987 36.7749 28.1392 36.7489 28.022C36.6414 28.4386 36.3338 29.4689 35.826 31.1128H37.6864ZM46.9491 34.0815H45.4403V31.0005H42.6131V34.0815H41.0994V26.9429H42.6131V29.7407H45.4403V26.9429H46.9491V34.0815ZM55.2352 30.5024C55.2352 31.6841 54.9422 32.5923 54.3563 33.2271C53.7703 33.8618 52.9305 34.1792 51.8367 34.1792C50.743 34.1792 49.9032 33.8618 49.3172 33.2271C48.7313 32.5923 48.4383 31.6808 48.4383 30.4927C48.4383 29.3045 48.7313 28.3979 49.3172 27.7729C49.9064 27.1447 50.7495 26.8306 51.8465 26.8306C52.9435 26.8306 53.7817 27.1463 54.3612 27.7778C54.9438 28.4093 55.2352 29.3175 55.2352 30.5024ZM50.0252 30.5024C50.0252 31.3 50.1766 31.9006 50.4793 32.3042C50.7821 32.7078 51.2345 32.9097 51.8367 32.9097C53.0444 32.9097 53.6483 32.1073 53.6483 30.5024C53.6483 28.8944 53.0477 28.0903 51.8465 28.0903C51.2443 28.0903 50.7902 28.2938 50.4842 28.7007C50.1782 29.1043 50.0252 29.7049 50.0252 30.5024Z" fill="white"/>
</svg>
