<svg width="245" height="56" viewBox="0 0 245 56" fill="none" xmlns="http://www.w3.org/2000/svg">
<path d="M78.8528 11.0001L67.5714 11.0044C61.4864 11.4712 58.4545 14.5013 58.4582 23.0144C58.4582 32.2303 61.9314 34.9552 69.0417 35.041C69.1001 35.041 71.1784 35.041 73.2216 35.041C75.2648 35.041 77.3423 35.041 77.4008 35.0374C84.511 34.9465 87.9784 32.2187 87.9755 23.0029C87.9718 14.4898 84.9378 11.4597 78.8528 11.0001ZM73.2194 30.5089C69.5159 30.4367 68.3752 29.1136 68.373 22.987C68.373 16.644 69.5116 15.5258 73.2135 15.4616C76.9155 15.5229 78.0577 16.6404 78.0599 22.9834C78.0628 29.1107 76.9229 30.4324 73.2194 30.5089Z" fill="#ED1C23"/>
<path d="M134.041 13.168L125.875 26.0214L125.869 12.8419C125.871 12.613 125.781 12.3927 125.619 12.2291C125.457 12.0655 125.236 11.972 125.004 11.9689H118.297C118.065 11.9721 117.844 12.0659 117.682 12.2296C117.52 12.3933 117.43 12.6137 117.432 12.8426L117.44 33.137C117.439 33.25 117.461 33.3622 117.504 33.4669C117.547 33.5717 117.61 33.667 117.691 33.7475C117.771 33.8279 117.867 33.8919 117.972 33.9357C118.078 33.9795 118.191 34.0023 118.305 34.0028L124.469 34.0093C124.905 34.0045 125.332 33.8911 125.711 33.6797C126.09 33.4683 126.409 33.1658 126.637 32.8001L134.808 19.8912L134.813 33.1226C134.811 33.3515 134.901 33.5718 135.063 33.7354C135.225 33.899 135.447 33.9925 135.678 33.9956H142.387C142.499 34.0003 142.61 33.9827 142.715 33.9437C142.82 33.9047 142.915 33.8451 142.996 33.7686C143.077 33.692 143.141 33.6001 143.185 33.4984C143.229 33.3967 143.251 33.2873 143.251 33.1767L143.243 12.8318C143.245 12.6029 143.155 12.3826 142.993 12.219C142.831 12.0554 142.61 11.9619 142.378 11.9588H136.224C135.786 11.961 135.356 12.0731 134.974 12.2846C134.592 12.4961 134.271 12.8001 134.041 13.168Z" fill="#ED1C23"/>
<path d="M188.031 8.48055V1.75446C188.031 1.29222 188.216 0.84875 188.547 0.521223C188.877 0.193695 189.325 0.00881809 189.794 0.00709977H197.669L188.031 8.48055Z" fill="#ED1C23"/>
<path d="M165.787 12.8237L165.794 33.1146C165.793 33.3451 165.885 33.5665 166.05 33.7301C166.214 33.8938 166.438 33.9864 166.671 33.9875H173.483C173.717 33.9862 173.94 33.8935 174.105 33.7297C174.269 33.5659 174.361 33.3444 174.36 33.1138L174.352 12.8259C174.353 12.5954 174.261 12.374 174.096 12.2103C173.932 12.0466 173.709 11.9541 173.475 11.9529H166.663C166.43 11.9543 166.207 12.0466 166.043 12.2098C165.879 12.373 165.787 12.5937 165.787 12.8237Z" fill="#ED1C23"/>
<path d="M102.788 34.0114H95.8457C95.7288 34.0122 95.6129 33.9902 95.5047 33.9467C95.3964 33.9033 95.2978 33.8392 95.2146 33.7581C95.1314 33.6771 95.0652 33.5806 95.0198 33.4743C94.9743 33.368 94.9506 33.2538 94.9498 33.1385L94.9425 15.4708C94.9452 15.0092 95.0399 14.5527 95.2213 14.1272C95.4027 13.7018 95.6672 13.3158 95.9997 12.9913C96.3322 12.6668 96.7262 12.4101 97.1592 12.2359C97.5922 12.0617 98.0556 11.9734 98.5232 11.9761L113.949 11.9703L108.592 18.0731C108.338 18.3609 108.025 18.5915 107.673 18.7495C107.321 18.9074 106.939 18.989 106.553 18.9886H103.678L103.683 33.1341C103.683 33.2498 103.66 33.3643 103.614 33.4711C103.569 33.5779 103.503 33.6748 103.42 33.7563C103.337 33.8378 103.238 33.9023 103.13 33.9461C103.021 33.9899 102.905 34.0121 102.788 34.0114Z" fill="#ED1C23"/>
<path d="M159.176 19.9604C159.176 19.5662 159.265 19.177 159.438 18.8215C159.611 18.4661 159.862 18.1536 160.174 17.9072L166.605 12.4854H167.02C167.177 12.3437 167.286 12.1567 167.329 11.9508L157.351 11.9545C156.756 11.9549 156.178 12.1551 155.713 12.5222L151.161 16.1165C150.849 16.3629 150.598 16.6754 150.425 17.0309C150.253 17.3863 150.163 17.7756 150.164 18.1698L150.17 33.119C150.169 33.3494 150.261 33.5707 150.426 33.7343C150.59 33.898 150.813 33.9906 151.047 33.9919H158.305C158.538 33.9908 158.762 33.8981 158.926 33.7343C159.091 33.5705 159.183 33.3489 159.182 33.1183L159.176 19.9604Z" fill="#ED1C23"/>
<path d="M199.196 8.47634V1.75024C199.196 1.52057 199.241 1.29305 199.33 1.08073C199.418 0.868398 199.549 0.675425 199.713 0.512852C199.877 0.35028 200.073 0.221301 200.287 0.133299C200.502 0.0452968 200.733 -4.89814e-07 200.965 0H208.841L199.196 8.47634Z" fill="#ED1C23"/>
<path d="M244.007 27.9584C244.007 31.7619 241.925 33.9573 237.279 33.9595L218.874 33.9667C218.639 33.9667 218.414 33.8748 218.248 33.7111C218.082 33.5474 217.989 33.3253 217.989 33.0937L217.981 11.803C217.981 11.5714 218.074 11.3493 218.24 11.1854C218.406 11.0216 218.631 10.9295 218.865 10.9293L236.762 10.9228C242.232 10.9228 243.456 13.142 243.458 16.6858C243.458 19.8522 242.598 21.6147 238.196 21.9473C242.826 22.0873 244.007 24.3671 244.007 27.9584ZM226.615 19.9467H233.395C235.029 19.9467 235.619 18.9778 235.618 17.3242C235.618 15.4809 235.028 14.9348 233.394 14.9355H226.613L226.615 19.9467ZM233.626 29.9403C235.396 29.9403 236.122 29.0082 236.121 27.0227C236.121 24.849 235.258 23.9529 233.49 23.9537H226.621V29.9417L233.626 29.9403Z" fill="#ED1C23"/>
<path d="M210.953 22.9471C210.953 14.434 207.911 11.4039 201.808 10.9429H190.493C184.39 11.4046 181.348 14.4354 181.348 22.9478C181.348 31.3715 184.265 34.3655 190.211 34.8864C190.962 34.9845 191.719 35.036 192.476 35.0408H196.288C198.608 35.0408 206.124 34.551 208.399 33.7949L207.505 29.4351C205.721 29.969 198.562 30.3694 196.956 30.3694C192.986 30.3694 191.11 29.3904 191.068 24.5408H190.881V24.4687H210.219V24.4456H210.915C210.939 23.9622 210.953 23.4687 210.953 22.9471ZM196.15 15.4029C199.19 15.4541 200.493 16.2643 200.87 20.0166H191.43C191.808 16.2636 193.11 15.4534 196.15 15.4029Z" fill="#ED1C23"/>
<path d="M2.89027 53.9365C0.96888 53.9365 0.00818333 52.8961 0.00818333 50.8155C-0.0527316 49.9541 0.228209 49.1031 0.791551 48.4426C1.08631 48.1583 1.43843 47.9385 1.82497 47.7976C2.21151 47.6566 2.62379 47.5976 3.03496 47.6245C3.699 47.6116 4.3569 47.7522 4.95611 48.035L4.46066 49.3206C4.19467 49.216 3.94914 49.1309 3.72041 49.0623C3.49885 48.9963 3.26858 48.9633 3.03716 48.9642C2.16025 48.9642 1.7218 49.5779 1.7218 50.8054C1.7218 51.9948 2.16025 52.59 3.03716 52.591C3.34214 52.5923 3.64561 52.5486 3.93744 52.4611C4.23082 52.3674 4.50912 52.2328 4.76393 52.0614V53.4819C4.51027 53.6445 4.23095 53.7642 3.93744 53.8362C3.59332 53.9084 3.24204 53.942 2.89027 53.9365Z" fill="#ED1C23"/>
<path d="M12.0546 49.3294C12.0619 49.6374 11.9507 49.9367 11.7433 50.167C11.4993 50.4159 11.175 50.573 10.8262 50.6114V50.654C11.2137 50.6829 11.5801 50.8394 11.8668 51.0984C11.9911 51.2146 12.0894 51.3551 12.1553 51.5111C12.2213 51.667 12.2534 51.8349 12.2497 52.0038C12.2622 52.2707 12.2037 52.5361 12.08 52.7737C11.9562 53.0113 11.7716 53.2127 11.5446 53.358C10.9317 53.7031 10.2305 53.8648 9.52621 53.8233H6.36351V47.7335H9.52475C10.1841 47.6903 10.8425 47.831 11.4247 48.1397C11.6272 48.265 11.7923 48.4412 11.903 48.6503C12.0137 48.8593 12.066 49.0937 12.0546 49.3294ZM10.3498 49.4593C10.3498 49.0899 10.0531 48.9037 9.45606 48.9037H8.04351V50.1086H9.26168C9.54052 50.124 9.81897 50.072 10.0728 49.9571C10.1624 49.909 10.2361 49.8365 10.2852 49.7482C10.3343 49.66 10.3567 49.5597 10.3498 49.4593ZM10.5054 51.918C10.5131 51.8138 10.4908 51.7096 10.441 51.6174C10.3912 51.5252 10.316 51.4488 10.2241 51.3971C9.96082 51.2746 9.67056 51.2195 9.38006 51.2369H8.04497V52.674H9.41221C9.69762 52.693 9.98191 52.6236 10.2255 52.4756C10.3158 52.4133 10.3887 52.3295 10.4376 52.2321C10.4865 52.1346 10.5098 52.0266 10.5054 51.918Z" fill="#ED1C23"/>
<path d="M19.3585 50.7642C19.4104 51.6119 19.1257 52.4463 18.5649 53.0902C18.2777 53.377 17.932 53.6001 17.5508 53.7449C17.1695 53.8897 16.7615 53.9528 16.3536 53.93C15.8061 53.9412 15.2654 53.8085 14.7869 53.5454C14.3341 53.2913 13.9697 52.9077 13.7419 52.4452C13.4891 51.9214 13.364 51.3465 13.3766 50.7664C13.3228 49.9214 13.6054 49.0891 14.1643 48.4469C14.4537 48.1614 14.8011 47.9396 15.1836 47.7963C15.5662 47.6531 15.9752 47.5916 16.3836 47.6158C16.9304 47.6043 17.4706 47.7355 17.9496 47.996C18.4012 48.2492 18.7647 48.6312 18.9924 49.0919C19.2474 49.6127 19.373 50.186 19.3585 50.7642ZM15.0946 50.7642C15.0631 51.2399 15.1672 51.7147 15.3949 52.135C15.5021 52.2908 15.6494 52.4157 15.8216 52.4968C15.9938 52.5779 16.1847 52.6124 16.3748 52.5967C16.5628 52.612 16.7516 52.5775 16.9215 52.4967C17.0915 52.4159 17.2365 52.2918 17.3416 52.1372C17.5653 51.7156 17.6665 51.2412 17.6339 50.7664C17.6653 50.2956 17.562 49.8257 17.3358 49.4101C17.2278 49.2567 17.0807 49.1343 16.9094 49.0551C16.7381 48.9759 16.5487 48.9428 16.3602 48.9592C16.1727 48.9434 15.9843 48.9766 15.8139 49.0554C15.6434 49.1341 15.4969 49.2557 15.389 49.4079C15.1637 49.8237 15.0621 50.2937 15.0946 50.7642Z" fill="#ED1C23"/>
<path d="M20.5423 50.1705C20.4649 49.052 20.7462 47.9379 21.3461 46.986C21.6543 46.6037 22.036 46.2853 22.4693 46.0492C22.9026 45.8131 23.379 45.6639 23.8709 45.6102C24.4248 45.514 25.253 45.3938 26.3555 45.2495L26.5484 46.6982C26.07 46.7535 25.2225 46.8701 24.0061 47.0481C23.6415 47.0882 23.2886 47.1993 22.9677 47.3749C22.7351 47.5238 22.556 47.7415 22.4562 47.9968C22.3285 48.3407 22.2584 48.7028 22.2486 49.0689H22.3312C22.5221 48.7764 22.7888 48.5398 23.1036 48.3835C23.4234 48.2239 23.7771 48.1421 24.1354 48.1447C24.4641 48.1257 24.793 48.1771 25.0997 48.2954C25.4063 48.4137 25.6834 48.5961 25.9119 48.8301C26.3686 49.386 26.5957 50.0919 26.5476 50.8061C26.599 51.6483 26.31 52.4763 25.7438 53.1083C25.4537 53.3881 25.1078 53.6054 24.7282 53.7465C24.3486 53.8876 23.9434 53.9493 23.5384 53.9279C23.1167 53.9474 22.6964 53.8668 22.3128 53.6928C21.9292 53.5188 21.5934 53.2565 21.3337 52.9279C20.7634 52.1228 20.4846 51.1514 20.5423 50.1705ZM23.6385 52.5816C24.437 52.5816 24.8357 52.0391 24.8348 50.954C24.8348 49.8971 24.476 49.3668 23.7532 49.3668C23.5481 49.3682 23.3458 49.414 23.1606 49.501C22.9638 49.5933 22.7816 49.7134 22.6198 49.8574C22.4746 49.9841 22.3525 50.1344 22.2589 50.3018C22.2259 50.8871 22.3496 51.4706 22.6177 51.9936C22.7162 52.1751 22.8636 52.3261 23.0437 52.43C23.2237 52.5338 23.4293 52.5866 23.6378 52.5824L23.6385 52.5816Z" fill="#ED1C23"/>
<path d="M33.7214 50.7577C33.7732 51.6055 33.4882 52.4398 32.9271 53.0836C32.6394 53.3704 32.2933 53.5937 31.9118 53.7387C31.5302 53.8837 31.1219 53.9471 30.7137 53.9249C30.1664 53.9358 29.626 53.8031 29.1477 53.5403C28.6957 53.2847 28.3324 52.9005 28.1049 52.4379C27.8519 51.9142 27.7268 51.3392 27.7395 50.7591C27.6857 49.9141 27.9684 49.0818 28.5273 48.4396C28.8174 48.1555 29.1651 47.9352 29.5476 47.7932C29.9301 47.6512 30.3387 47.5907 30.7465 47.6157C31.2931 47.6037 31.8333 47.7341 32.3126 47.9938C32.7641 48.247 33.1275 48.629 33.3553 49.0897C33.6085 49.6095 33.7339 50.181 33.7214 50.7577ZM29.4553 50.7577C29.4256 51.2334 29.5303 51.708 29.7578 52.1284C29.8647 52.284 30.0116 52.4087 30.1834 52.4898C30.3553 52.5708 30.5458 52.6052 30.7356 52.5894C30.9241 52.6051 31.1134 52.5706 31.2838 52.4896C31.4543 52.4085 31.5995 52.2838 31.7046 52.1284C31.9273 51.7066 32.0284 51.2324 31.9969 50.7577C32.028 50.2868 31.9244 49.8169 31.698 49.4013C31.5787 49.2609 31.4297 49.148 31.2615 49.0705C31.0933 48.993 30.9099 48.9529 30.7243 48.9529C30.5386 48.9529 30.3553 48.993 30.187 49.0705C30.0188 49.148 29.8698 49.2609 29.7505 49.4013C29.5254 49.8179 29.4238 50.2888 29.4575 50.7598L29.4553 50.7577Z" fill="#ED1C23"/>
<path d="M41.7342 55.9977H40.2208V53.8125H36.0738V55.9977H34.5611V52.5975H35.0785C35.474 51.9618 35.7736 51.2725 35.9678 50.5515C36.2241 49.6264 36.3914 48.6795 36.4676 47.7234H40.8273V52.5975H41.7342V55.9977ZM39.1429 52.5939V48.9672H37.8773C37.7918 49.6151 37.6662 50.2572 37.5009 50.8899C37.347 51.4823 37.1241 52.0551 36.8367 52.5968L39.1429 52.5939Z" fill="#ED1C23"/>
<path d="M44.6338 47.7204V50.0637H46.9854V47.7204H48.6661V53.8102H46.9854V51.2952H44.636V53.8073H42.9552V47.7175L44.6338 47.7204Z" fill="#ED1C23"/>
<path d="M54.5223 53.8059L54.1957 52.9791H54.1526C53.923 53.2883 53.6225 53.5395 53.2757 53.7121C52.9051 53.8615 52.5065 53.9314 52.1065 53.917C51.8508 53.9305 51.5949 53.8927 51.3544 53.8059C51.1139 53.7191 50.8937 53.5851 50.7071 53.4119C50.5285 53.2206 50.3911 52.9955 50.3032 52.7502C50.2153 52.5049 50.1787 52.2446 50.1956 51.9849C50.1755 51.7084 50.2283 51.4314 50.3488 51.181C50.4693 50.9305 50.6534 50.7151 50.8832 50.5557C51.5132 50.2024 52.2291 50.0258 52.9534 50.0449L54.024 50.0132V49.7462C54.0403 49.6188 54.0264 49.4893 53.9833 49.3681C53.9402 49.2469 53.8691 49.1373 53.7757 49.0479C53.6822 48.9585 53.569 48.8918 53.4449 48.8531C53.3208 48.8144 53.1893 48.8048 53.0608 48.825C52.4573 48.8519 51.8659 49.0018 51.3238 49.265L50.7655 48.1439C51.4947 47.7719 52.3052 47.5826 53.1259 47.5927C53.8045 47.5462 54.4786 47.7328 55.0339 48.1208C55.2632 48.323 55.4422 48.5746 55.557 48.8561C55.6718 49.1376 55.7194 49.4415 55.6959 49.7441V53.8022L54.5223 53.8059ZM54.0247 50.9864L53.3736 51.0081C52.992 50.9953 52.6141 51.0862 52.2811 51.2707C52.1628 51.3512 52.0677 51.4607 52.0051 51.5885C51.9424 51.7162 51.9144 51.8577 51.9238 51.9993C51.9238 52.469 52.1942 52.702 52.7393 52.702C52.9095 52.7105 53.0798 52.6857 53.2402 52.6288C53.4006 52.572 53.548 52.4843 53.6739 52.3709C53.7914 52.256 53.8832 52.1182 53.9435 51.9663C54.0037 51.8143 54.0312 51.6516 54.024 51.4886L54.0247 50.9864Z" fill="#ED1C23"/>
<path d="M58.5364 53.806H56.7146L58.3741 51.3993C58.0074 51.2588 57.6926 51.0114 57.4716 50.6901C57.2635 50.3645 57.1568 49.9857 57.1647 49.6007C57.1541 49.3339 57.2097 49.0686 57.3266 48.8278C57.4435 48.587 57.6182 48.378 57.8356 48.2191C58.3717 47.8571 59.0138 47.6796 59.6624 47.7141H62.5314V53.8039H60.8507V51.5378H59.9248L58.5364 53.806ZM58.8155 49.6115C58.8109 49.7283 58.8362 49.8443 58.8891 49.9488C58.942 50.0534 59.0207 50.1431 59.118 50.2096C59.3531 50.3626 59.6311 50.4383 59.9124 50.426H60.8514V48.885H59.6982C59.4647 48.8712 59.2341 48.9417 59.0493 49.0834C58.9726 49.1484 58.9117 49.2296 58.8712 49.321C58.8307 49.4125 58.8117 49.5118 58.8155 49.6115Z" fill="#ED1C23"/>
<path d="M72.097 53.9083C71.4425 53.9349 70.7911 53.8068 70.197 53.5346V52.236C70.7597 52.5072 71.3752 52.6549 72.0012 52.6688C72.1738 52.6796 72.3466 52.6542 72.5085 52.5943C72.6703 52.5343 72.8175 52.4412 72.9403 52.3211C73.1853 52.0255 73.3212 51.6563 73.3254 51.2743H70.9979V50.1705H73.3254C73.3256 49.8064 73.2064 49.452 72.9856 49.1604C72.8785 49.0454 72.7468 48.9553 72.6 48.8969C72.4532 48.8385 72.2951 48.8132 72.1372 48.8228C71.6399 48.8372 71.1512 48.9544 70.7027 49.1669L70.2335 48.035C70.5331 47.8984 70.8464 47.7932 71.1682 47.7211C71.5088 47.639 71.8581 47.5974 72.2088 47.597C72.6025 47.5656 72.9985 47.6185 73.3696 47.7519C73.7408 47.8854 74.0784 48.0964 74.3594 48.3704C74.8789 49.03 75.1311 49.8568 75.0667 50.6899C75.1306 51.5556 74.8642 52.4136 74.3199 53.0952C74.0304 53.3806 73.682 53.601 73.2983 53.7413C72.9147 53.8816 72.5049 53.9386 72.097 53.9083Z" fill="#ED1C23"/>
<path d="M80.6709 47.7081H82.5248L80.0819 50.6278L82.7433 53.7979H80.8331L78.3106 50.7093V53.7979H76.6298V47.7081H78.3106V50.6661L80.6709 47.7081Z" fill="#ED1C23"/>
<path d="M89.3983 50.737C89.45 51.5848 89.165 52.4191 88.6039 53.063C88.3174 53.3506 87.9718 53.5745 87.5904 53.7196C87.2091 53.8647 86.8007 53.9276 86.3927 53.9042C85.8451 53.9153 85.3044 53.7826 84.8259 53.5196C84.374 53.264 84.0106 52.8798 83.7831 52.4172C83.5293 51.8938 83.4041 51.3186 83.4178 50.7384C83.3652 49.8936 83.6477 49.0617 84.2055 48.419C84.4953 48.1348 84.8425 47.9142 85.2246 47.7717C85.6067 47.6292 86.0149 47.5681 86.4226 47.5922C86.9697 47.5806 87.5101 47.7117 87.9894 47.9724C88.4414 48.2246 88.8057 48.6059 89.0343 49.0661C89.2873 49.587 89.412 50.1595 89.3983 50.737ZM85.1343 50.737C85.1041 51.2125 85.2081 51.687 85.4347 52.1077C85.5421 52.2633 85.6894 52.388 85.8615 52.4691C86.0337 52.5502 86.2245 52.5849 86.4146 52.5695C86.6029 52.5846 86.7918 52.5499 86.9621 52.4692C87.1324 52.3884 87.2778 52.2644 87.3836 52.1099C87.6053 51.6877 87.7064 51.2138 87.6759 50.7392C87.707 50.2683 87.6034 49.7983 87.377 49.3828C87.2579 49.2421 87.109 49.1288 86.9408 49.0511C86.7725 48.9734 86.589 48.9331 86.4033 48.9331C86.2175 48.9331 86.034 48.9734 85.8658 49.0511C85.6975 49.1288 85.5486 49.2421 85.4295 49.3828C85.204 49.7986 85.1017 50.2686 85.1343 50.7392V50.737Z" fill="#ED1C23"/>
<path d="M92.6392 47.7038V50.0471H94.9885V47.7038H96.6693V53.7935H94.9885V51.2793H92.6392V53.7914H90.9584V47.7016L92.6392 47.7038Z" fill="#ED1C23"/>
<path d="M104.214 50.7325C104.265 51.5803 103.98 52.4147 103.419 53.0584C103.132 53.3452 102.786 53.5684 102.405 53.7132C102.024 53.858 101.616 53.9211 101.208 53.8982C100.661 53.9092 100.12 53.7773 99.6413 53.5158C99.1888 53.2603 98.8246 52.8761 98.5963 52.4135C98.3434 51.8897 98.2182 51.3147 98.2309 50.7346C98.1771 49.8897 98.4598 49.0574 99.0186 48.4152C99.3083 48.1306 99.6557 47.9096 100.038 47.7668C100.42 47.6239 100.829 47.5624 101.236 47.5862C101.783 47.5747 102.323 47.7058 102.802 47.9664C103.255 48.2182 103.619 48.5989 103.848 49.0587C104.103 49.58 104.228 50.1538 104.214 50.7325ZM99.9496 50.7325C99.9185 51.2082 100.023 51.683 100.251 52.1032C100.358 52.2589 100.505 52.3836 100.677 52.4646C100.85 52.5456 101.041 52.58 101.231 52.5643C101.419 52.5796 101.607 52.5452 101.777 52.4645C101.947 52.3839 102.092 52.2599 102.197 52.1054C102.421 51.6839 102.522 51.2094 102.49 50.7346C102.521 50.2639 102.418 49.7939 102.192 49.3783C102.073 49.2376 101.924 49.1243 101.755 49.0466C101.587 48.9689 101.404 48.9286 101.218 48.9286C101.032 48.9286 100.849 48.9689 100.68 49.0466C100.512 49.1243 100.363 49.2376 100.244 49.3783C100.019 49.7935 99.9173 50.2628 99.9496 50.7325Z" fill="#ED1C23"/>
<path d="M113.547 53.7851H111.976V48.9853L111.888 49.3251C111.744 49.9137 111.566 50.4936 111.354 51.0616L110.263 53.7873H109.065L107.955 51.0457C107.75 50.4954 107.579 49.9333 107.444 49.3626L107.34 48.991V53.7909H105.772V47.7011H108.087L109.147 50.2983C109.269 50.6136 109.372 50.9359 109.454 51.2636C109.537 51.5698 109.601 51.8809 109.645 52.195C109.765 51.6506 109.86 51.259 109.928 51.0205C109.997 50.7831 110.074 50.5652 110.147 50.3647C110.22 50.1641 110.595 49.2775 111.243 47.6989H113.539L113.547 53.7851Z" fill="#ED1C23"/>
<path d="M117.108 47.6931V50.0999C117.108 50.3538 117.066 50.9748 116.982 51.9627L119.827 47.6931H121.852V53.7829H120.225V51.3545C120.225 50.9216 120.262 50.312 120.335 49.5242L117.501 53.7807H115.482V47.691L117.108 47.6931Z" fill="#ED1C23"/>
<path d="M125.264 47.688V49.9159C125.264 50.4454 125.514 50.7095 126.008 50.7095C126.313 50.712 126.616 50.6754 126.911 50.6005C127.197 50.5248 127.479 50.4306 127.753 50.3184V47.688H129.433V53.7778H127.753V51.3602C127.409 51.5462 127.045 51.6915 126.667 51.7931C126.349 51.8745 126.023 51.917 125.696 51.9193C125.128 51.955 124.568 51.7722 124.133 51.4093C123.942 51.2199 123.795 50.9927 123.699 50.7427C123.604 50.4927 123.564 50.2257 123.581 49.9591V47.688H125.264Z" fill="#ED1C23"/>
<path d="M134.158 53.8854C133.735 53.9104 133.312 53.8518 132.912 53.7127C132.512 53.5737 132.145 53.3572 131.831 53.0759C131.539 52.7697 131.314 52.4078 131.17 52.0125C131.026 51.6171 130.965 51.1968 130.991 50.7773C130.935 49.92 131.212 49.0738 131.766 48.411C132.041 48.1276 132.375 47.9062 132.744 47.762C133.114 47.6178 133.511 47.5542 133.908 47.5755C134.28 47.5521 134.654 47.605 135.004 47.7311C135.355 47.8571 135.676 48.0535 135.946 48.3078C136.198 48.5817 136.392 48.9023 136.518 49.2511C136.643 49.5999 136.697 49.9699 136.677 50.3394V51.1446H132.698C132.691 51.5537 132.843 51.9497 133.124 52.2513C133.272 52.3892 133.447 52.4955 133.639 52.5635C133.831 52.6315 134.035 52.6598 134.238 52.6466C134.592 52.6481 134.946 52.6101 135.292 52.5334C135.649 52.4474 135.996 52.3251 136.328 52.1683V53.4539C136.028 53.6004 135.71 53.7088 135.382 53.7764C134.979 53.8544 134.569 53.8909 134.158 53.8854ZM133.921 48.7573C133.765 48.749 133.608 48.7747 133.463 48.8327C133.318 48.8906 133.188 48.9794 133.081 49.0927C132.861 49.3623 132.739 49.6968 132.735 50.0429H135.095C135.112 49.6972 134.996 49.358 134.771 49.0927C134.662 48.9792 134.53 48.8903 134.383 48.8323C134.236 48.7742 134.078 48.7484 133.92 48.7565L133.921 48.7573Z" fill="#ED1C23"/>
<path d="M140.718 53.8832C138.796 53.8832 137.836 52.8436 137.836 50.7644C137.775 49.903 138.056 49.0521 138.619 48.3915C138.913 48.1069 139.266 47.8867 139.652 47.7453C140.039 47.604 140.451 47.5447 140.862 47.5713C141.526 47.56 142.184 47.701 142.783 47.9832L142.288 49.2688C142.022 49.1642 141.776 49.0791 141.548 49.0106C141.327 48.9451 141.096 48.9113 140.865 48.9103C139.988 48.9103 139.549 49.5247 139.549 50.7536C139.549 51.9435 139.988 52.538 140.865 52.537C141.169 52.5398 141.473 52.4968 141.765 52.4093C142.058 52.316 142.337 52.1813 142.591 52.0096V53.4302C142.338 53.5923 142.06 53.712 141.767 53.7844C141.422 53.8569 141.07 53.8901 140.718 53.8832Z" fill="#ED1C23"/>
<path d="M148.232 47.6821H150.086L147.644 50.6018L150.304 53.7719H148.394L145.874 50.6834V53.7719H144.193L144.186 47.6879H145.867V50.6459L148.232 47.6821Z" fill="#ED1C23"/>
<path d="M155.274 53.7698L154.947 52.9409H154.902C154.673 53.2507 154.372 53.502 154.025 53.6739C153.654 53.8237 153.256 53.8936 152.855 53.8788C152.6 53.8925 152.344 53.8549 152.103 53.7681C151.862 53.6813 151.642 53.5471 151.455 53.3738C151.277 53.1828 151.14 52.958 151.052 52.7131C150.964 52.4682 150.927 52.2082 150.944 51.9489C150.924 51.6723 150.976 51.3952 151.097 51.1445C151.217 50.8938 151.4 50.6779 151.629 50.5175C152.26 50.1645 152.977 49.9879 153.702 50.0067L154.771 49.975V49.7081C154.788 49.5805 154.774 49.4509 154.732 49.3294C154.689 49.2079 154.618 49.0979 154.525 49.0081C154.432 48.9184 154.318 48.8513 154.194 48.8122C154.07 48.7732 153.938 48.7632 153.81 48.7832C153.206 48.8106 152.615 48.9604 152.073 49.2232L151.515 48.1021C152.244 47.7299 153.056 47.5406 153.877 47.5509C154.555 47.5073 155.227 47.6959 155.781 48.0848C156.01 48.2869 156.189 48.5385 156.304 48.82C156.419 49.1016 156.466 49.4054 156.443 49.7081V53.7662L155.274 53.7698ZM154.776 50.9482L154.125 50.9692C153.742 50.9552 153.362 51.0461 153.029 51.2318C152.91 51.3118 152.814 51.4212 152.751 51.549C152.688 51.6768 152.66 51.8186 152.669 51.9604C152.669 52.4301 152.942 52.6631 153.487 52.6631C153.657 52.6717 153.827 52.6468 153.988 52.59C154.148 52.5331 154.296 52.4454 154.421 52.332C154.539 52.2173 154.631 52.0795 154.692 51.9275C154.752 51.7755 154.779 51.6127 154.772 51.4496L154.776 50.9482Z" fill="#ED1C23"/>
<path d="M159.287 53.7677H157.467L159.127 51.3602C158.76 51.2208 158.445 50.9732 158.225 50.651C158.015 50.3263 157.908 49.9469 157.918 49.5616C157.907 49.2946 157.962 49.029 158.079 48.788C158.196 48.547 158.371 48.338 158.589 48.1793C159.125 47.817 159.767 47.6395 160.416 47.6743H163.285V53.7641H161.604V51.5016H160.678L159.287 53.7677ZM159.566 49.5725C159.561 49.6895 159.587 49.8057 159.64 49.9103C159.694 50.0149 159.773 50.1044 159.871 50.1706C160.106 50.3238 160.384 50.3996 160.665 50.387H161.604V48.851H160.451C160.218 48.8375 159.988 48.908 159.804 49.0494C159.727 49.1131 159.665 49.1933 159.624 49.2839C159.583 49.3745 159.563 49.4732 159.566 49.5725Z" fill="#ED1C23"/>
<path d="M172.958 50.0167C173.415 50.0395 173.872 49.9868 174.312 49.8609C174.423 49.8348 174.523 49.7731 174.595 49.6855C174.668 49.5979 174.709 49.4891 174.712 49.3761C174.713 49.2824 174.686 49.1905 174.634 49.1121C174.582 49.0337 174.507 48.9724 174.42 48.936C174.113 48.8186 173.783 48.7693 173.455 48.7917C173.131 48.7959 172.809 48.8302 172.492 48.8942C172.158 48.9574 171.83 49.0525 171.514 49.1784L171.017 48.0183C171.429 47.8606 171.856 47.7427 172.291 47.6663C172.747 47.5927 173.208 47.5577 173.669 47.5616C174.315 47.5292 174.957 47.6794 175.519 47.9945C175.732 48.1117 175.908 48.2832 176.03 48.491C176.152 48.6988 176.216 48.9353 176.213 49.1755C176.213 49.8609 175.804 50.3072 174.985 50.5145V50.5701C175.387 50.642 175.76 50.824 176.062 51.0953C176.285 51.3385 176.401 51.6587 176.386 51.9863C176.389 52.3474 176.26 52.6973 176.021 52.9711C175.738 53.2838 175.374 53.5136 174.967 53.6355C174.443 53.8009 173.895 53.8808 173.344 53.8722C172.535 53.9096 171.727 53.7817 170.971 53.4963V52.1255C171.304 52.2766 171.653 52.3917 172.011 52.469C172.371 52.5508 172.739 52.5931 173.108 52.5952C173.526 52.6156 173.945 52.5526 174.339 52.4098C174.453 52.3753 174.553 52.3068 174.626 52.2138C174.698 52.1208 174.74 52.0078 174.745 51.8904C174.743 51.7658 174.7 51.6452 174.623 51.5466C174.546 51.4481 174.439 51.3768 174.317 51.3435C173.89 51.2046 173.44 51.1452 172.991 51.1682H172.339V50.0167H172.958Z" fill="#ED1C23"/>
<path d="M183.47 50.7021C183.523 51.5497 183.239 52.384 182.678 53.0281C182.391 53.3149 182.045 53.538 181.663 53.6826C181.282 53.8273 180.873 53.8902 180.465 53.8671C179.918 53.8791 179.377 53.7471 178.899 53.4848C178.447 53.229 178.084 52.8449 177.856 52.3824C177.603 51.8586 177.478 51.2837 177.491 50.7036C177.438 49.8587 177.721 49.0269 178.278 48.3841C178.568 48.0999 178.916 47.8792 179.298 47.7364C179.68 47.5936 180.088 47.5318 180.496 47.5551C181.044 47.5436 181.585 47.6748 182.064 47.9353C182.515 48.1891 182.879 48.5709 183.107 49.0312C183.36 49.5522 183.484 50.1247 183.47 50.7021ZM179.206 50.7021C179.176 51.178 179.281 51.6529 179.51 52.0729C179.617 52.2278 179.764 52.3519 179.936 52.4325C180.108 52.5131 180.298 52.5473 180.487 52.5317C180.676 52.5475 180.865 52.5132 181.035 52.4326C181.206 52.3519 181.352 52.2277 181.457 52.0729C181.679 51.6506 181.78 51.1768 181.749 50.7021C181.781 50.2313 181.677 49.7613 181.451 49.3458C181.342 49.1924 181.195 49.07 181.023 48.9908C180.851 48.9117 180.662 48.8786 180.473 48.8949C180.285 48.879 180.097 48.9124 179.927 48.9916C179.757 49.0708 179.611 49.193 179.504 49.3458C179.277 49.7619 179.174 50.2328 179.206 50.7043L179.206 50.7021Z" fill="#ED1C23"/>
<path d="M186.716 47.6671V50.0103H189.065V47.6671H190.746V53.7568H189.065V51.2448H186.716V53.7568H185.035V47.6671H186.716Z" fill="#ED1C23"/>
<path d="M196.6 53.7547L196.273 52.9258H196.228C195.999 53.2355 195.698 53.4868 195.351 53.6588C194.98 53.8086 194.582 53.8785 194.182 53.8637C193.926 53.8775 193.67 53.8399 193.429 53.753C193.189 53.6662 192.968 53.5321 192.782 53.3587C192.603 53.1674 192.466 52.9423 192.378 52.6972C192.29 52.4521 192.253 52.1919 192.27 51.9323C192.25 51.656 192.303 51.3793 192.423 51.129C192.543 50.8786 192.726 50.663 192.956 50.5031C193.587 50.1502 194.303 49.9736 195.028 49.9924L196.096 49.9606V49.6937C196.113 49.5662 196.1 49.4365 196.057 49.315C196.014 49.1935 195.944 49.0835 195.85 48.9938C195.757 48.904 195.644 48.8369 195.52 48.7979C195.396 48.7588 195.264 48.7489 195.135 48.7688C194.532 48.7963 193.941 48.9461 193.398 49.2089L192.84 48.0877C193.57 47.7155 194.381 47.5262 195.203 47.5365C195.88 47.4924 196.552 47.6802 197.106 48.0682C197.336 48.2704 197.515 48.522 197.629 48.8035C197.744 49.085 197.792 49.3889 197.768 49.6915V53.7497L196.6 53.7547ZM196.102 50.9331L195.451 50.9548C195.068 50.9407 194.689 51.0316 194.355 51.2174C194.236 51.2974 194.14 51.4068 194.077 51.5346C194.014 51.6624 193.986 51.8042 193.995 51.9461C193.995 52.4157 194.268 52.6487 194.813 52.6487C194.983 52.6573 195.154 52.6324 195.314 52.5756C195.474 52.5187 195.622 52.4311 195.748 52.3176C195.865 52.2028 195.957 52.065 196.018 51.9131C196.078 51.7611 196.106 51.5984 196.099 51.4353L196.102 50.9331Z" fill="#ED1C23"/>
<path d="M9.08974 11.8183C8.07394 11.8186 7.0881 12.1581 6.29242 12.7815L1.08434 16.8613C0.765623 17.111 0.5081 17.4285 0.330963 17.7901C0.153826 18.1517 0.0616423 18.5482 0.061282 18.9499V33.3522C0.0613779 33.4689 0.0847596 33.5845 0.130092 33.6923C0.175424 33.8001 0.24182 33.898 0.325487 33.9805C0.409154 34.063 0.508455 34.1284 0.61772 34.173C0.726985 34.2175 0.844073 34.2404 0.962301 34.2403H9.49238C9.73116 34.2403 9.96015 34.1467 10.129 33.98C10.2978 33.8133 10.3927 33.5872 10.3927 33.3515V19.3474C10.3926 19.0355 10.4625 18.7275 10.5973 18.4455C10.7321 18.1635 10.9285 17.9144 11.1724 17.7162C11.1724 17.7162 17.1609 12.7829 17.8303 12.3003C18.149 12.0352 18.5391 11.8678 18.9527 11.8183H9.08974Z" fill="#ED1C23"/>
<path d="M29.5306 11.8002C28.5149 11.8002 27.529 12.1393 26.7333 12.7626L21.5259 16.8417C21.2067 17.0918 20.9489 17.4098 20.7718 17.7721C20.5946 18.1344 20.5027 18.5316 20.5029 18.9339V33.3312C20.5029 33.5669 20.5977 33.793 20.7666 33.9597C20.9354 34.1264 21.1644 34.22 21.4032 34.22H29.9362C30.1749 34.22 30.4039 34.1264 30.5728 33.9597C30.7416 33.793 30.8365 33.5669 30.8365 33.3312V19.3278C30.8363 19.016 30.9061 18.708 31.0408 18.426C31.1754 18.144 31.3717 17.8949 31.6154 17.6966C31.6154 17.6966 37.604 12.7633 38.2733 12.2814C38.6341 12.0032 39.0696 11.8356 39.5258 11.7995L29.5306 11.8002Z" fill="#ED1C23"/>
<path d="M41.2226 18.6923L41.1744 33.3493C41.174 33.4663 41.197 33.5822 41.2421 33.6904C41.2872 33.7985 41.3534 33.8969 41.4371 33.9797C41.5207 34.0625 41.6201 34.1283 41.7295 34.1731C41.8389 34.218 41.9562 34.2411 42.0747 34.2411H50.6011C50.8399 34.2411 51.0689 34.1474 51.2377 33.9807C51.4066 33.814 51.5014 33.588 51.5014 33.3522V11.8183H48.8283C47.7287 11.8184 46.6739 12.2488 45.8951 13.0152L42.0024 16.8461C41.5051 17.3353 41.2247 17.9993 41.2226 18.6923Z" fill="#ED1C23"/>
<path d="M40.0422 12.4513L35.327 16.2532L36.202 17.3109L40.9172 13.5091L40.0422 12.4513Z" fill="#ED1C23"/>
<path d="M41.7504 14.3427L37.0358 18.1453L37.9105 19.2024L42.6251 15.3997L41.7504 14.3427Z" fill="#ED1C23"/>
<path d="M19.5454 12.2443L14.8303 16.0464L15.7053 17.1041L20.4204 13.3021L19.5454 12.2443Z" fill="#ED1C23"/>
<path d="M21.2536 14.1348L16.5388 17.9372L17.4134 18.9943L22.1282 15.1919L21.2536 14.1348Z" fill="#ED1C23"/>
</svg>
