<svg width="38" height="48" viewBox="0 0 38 48" fill="none" xmlns="http://www.w3.org/2000/svg">
<path d="M23.5 1H5.5C4.30653 1 3.16193 1.48464 2.31802 2.34731C1.47411 3.20998 1 4.38 1 5.6V42.4C1 43.62 1.47411 44.79 2.31802 45.6527C3.16193 46.5154 4.30653 47 5.5 47H32.5C33.6935 47 34.8381 46.5154 35.682 45.6527C36.5259 44.79 37 43.62 37 42.4V14.8M23.5 1L37 14.8M23.5 1V14.8H37M28 26.3H10M28 35.5H10M14.5 17.1H10" stroke="#ED1C23" stroke-width="2" stroke-linecap="round" stroke-linejoin="round"/>
</svg>
