<svg width="32" height="28" viewBox="0 0 32 28" fill="none" xmlns="http://www.w3.org/2000/svg">
<path d="M1 6.2L0.521617 5.32185C0.200094 5.497 0 5.83386 0 6.2H1ZM1 27H0C0 27.3528 0.185946 27.6796 0.489306 27.8598C0.792666 28.04 1.16853 28.0469 1.47838 27.8782L1 27ZM21.4545 27L21.0243 27.9027C21.3136 28.0406 21.6515 28.0315 21.9329 27.8782L21.4545 27ZM31 21.8L31.4784 22.6782C31.7999 22.503 32 22.1661 32 21.8H31ZM31 1H32C32 0.647158 31.8141 0.320432 31.5107 0.140237C31.2073 -0.0399567 30.8315 -0.0469447 30.5216 0.121849L31 1ZM10.5455 1L10.9757 0.0973064C10.6864 -0.0406029 10.3485 -0.0314767 10.0671 0.121849L10.5455 1ZM0 6.2V27H2V6.2H0ZM1.47838 27.8782L11.0238 22.6782L10.0671 20.9218L0.521617 26.1218L1.47838 27.8782ZM10.1152 22.7027L21.0243 27.9027L21.8848 26.0973L10.9757 20.8973L10.1152 22.7027ZM21.9329 27.8782L31.4784 22.6782L30.5216 20.9218L20.9762 26.1218L21.9329 27.8782ZM32 21.8V1H30V21.8H32ZM30.5216 0.121849L20.9762 5.32185L21.9329 7.07815L31.4784 1.87815L30.5216 0.121849ZM21.8848 5.29731L10.9757 0.0973064L10.1152 1.90269L21.0243 7.10269L21.8848 5.29731ZM10.0671 0.121849L0.521617 5.32185L1.47838 7.07815L11.0238 1.87815L10.0671 0.121849ZM9.54545 1V21.8H11.5455V1H9.54545ZM20.4545 6.2V27H22.4545V6.2H20.4545Z" fill="#ED1C23"/>
</svg>
