<svg width="100" height="46" viewBox="0 0 100 46" fill="none" xmlns="http://www.w3.org/2000/svg">
<path d="M17.5491 0.0373759C15.5744 0.0379887 13.6578 0.733787 12.1109 2.0117L1.98892 10.3734C1.36932 10.8852 0.868677 11.5361 0.52431 12.2774C0.179943 13.0187 0.000730978 13.8314 3.05176e-05 14.6548V44.178C3.05176e-05 44.6612 0.184428 45.1247 0.512659 45.4663C0.840889 45.808 1.28607 46 1.75025 46H18.3262C18.7904 46 19.2356 45.808 19.5638 45.4663C19.8921 45.1247 20.0764 44.6612 20.0764 44.178V15.4697C20.0767 14.8305 20.2129 14.1994 20.4752 13.6215C20.7376 13.0436 21.1195 12.5334 21.5937 12.1274C21.5937 12.1274 33.2358 2.01466 34.5371 1.02676C35.1567 0.483507 35.915 0.140185 36.7192 0.0388562L17.5491 0.0373759Z" fill="#ED1C23"/>
<path d="M57.2929 0C55.3176 4.63877e-05 53.4005 0.695888 51.8533 1.97432L41.7299 10.3375C41.1093 10.8501 40.6081 11.5021 40.2637 12.2448C39.9193 12.9875 39.7406 13.8016 39.741 14.6263V44.1465C39.741 44.6297 39.9254 45.0932 40.2536 45.4349C40.5818 45.7766 41.027 45.9685 41.4912 45.9685H58.0771C58.5413 45.9685 58.9865 45.7766 59.3147 45.4349C59.6429 45.0932 59.8273 44.6297 59.8273 44.1465V15.4323C59.8272 14.7931 59.9629 14.1619 60.2247 13.5838C60.4865 13.0057 60.868 12.495 61.3417 12.0885C61.3417 12.0885 72.9838 1.9758 74.2852 0.987901C74.9848 0.418671 75.8294 0.0752363 76.7144 0H57.2929Z" fill="#ED1C23"/>
<path d="M80.0188 14.1239L79.925 44.1691C79.9243 44.4089 79.969 44.6464 80.0566 44.8682C80.1442 45.0899 80.273 45.2915 80.4356 45.4613C80.5982 45.6311 80.7914 45.7658 81.0042 45.8578C81.2169 45.9497 81.4449 45.997 81.6753 45.997H98.2498C98.714 45.997 99.1592 45.8051 99.4874 45.4634C99.8156 45.1217 100 44.6582 100 44.175V0.0373759H94.8048C92.667 0.0374574 90.6164 0.919729 89.1023 2.49086L81.5346 10.3438C80.569 11.3456 80.024 12.7047 80.0188 14.1239Z" fill="#ED1C23"/>
<path d="M77.7232 1.33748L68.5565 9.13084L70.2566 11.298L79.4234 3.50466L77.7232 1.33748Z" fill="#ED1C23"/>
<path d="M81.0439 5.21311L71.8784 13.0081L73.579 15.175L82.7444 7.37997L81.0439 5.21311Z" fill="#ED1C23"/>
<path d="M37.877 0.911987L28.7105 8.70568L30.4117 10.8739L39.5782 3.08025L37.877 0.911987Z" fill="#ED1C23"/>
<path d="M41.1968 4.78763L32.0311 12.5823L33.7316 14.7493L42.8973 6.95456L41.1968 4.78763Z" fill="#ED1C23"/>
</svg>
