<svg width="9" height="18" viewBox="0 0 9 18" fill="none" xmlns="http://www.w3.org/2000/svg">
<path d="M8.65822 0.246475H7.58502C4.60216 0.246475 2.17546 2.37014 2.17546 4.98044V6.97832H0.341914C0.153109 6.97832 0 7.1123 0 7.27753V9.6712C0 9.83642 0.153109 9.97041 0.341914 9.97041H2.17533V17.3014C2.17533 17.4666 2.32843 17.6006 2.51724 17.6006H5.25255C5.44136 17.6006 5.59447 17.4666 5.59447 17.3014V9.97041H8.31515C8.50395 9.97041 8.65706 9.83642 8.65706 9.6712V7.27753C8.65706 7.1123 8.50395 6.97832 8.31515 6.97832H5.59447V4.98044C5.59447 4.01998 6.48741 3.23857 7.58489 3.23857H8.65808C8.84689 3.23857 9 3.10458 9 2.93936V0.545684C9.00014 0.380461 8.84703 0.246475 8.65822 0.246475Z" fill="#ED1C23"/>
</svg>
