<svg width="17" height="17" viewBox="0 0 17 17" fill="none" xmlns="http://www.w3.org/2000/svg">
<path d="M11.6875 0.210592H5.3125C2.37894 0.210592 0 2.50417 0 5.33247V11.4787C0 14.307 2.37894 16.6006 5.3125 16.6006H11.6875C14.6211 16.6006 17 14.307 17 11.4787V5.33247C17 2.50417 14.6211 0.210592 11.6875 0.210592ZM15.4062 11.4787C15.4062 13.4558 13.7381 15.064 11.6875 15.064H5.3125C3.26187 15.064 1.59375 13.4558 1.59375 11.4787V5.33247C1.59375 3.35542 3.26187 1.74716 5.3125 1.74716H11.6875C13.7381 1.74716 15.4062 3.35542 15.4062 5.33247V11.4787Z" fill="#ED1C23"/>
<path d="M8.5 4.30809C6.15294 4.30809 4.25 6.14275 4.25 8.40559C4.25 10.6684 6.15294 12.5031 8.5 12.5031C10.8471 12.5031 12.75 10.6684 12.75 8.40559C12.75 6.14275 10.8471 4.30809 8.5 4.30809ZM8.5 10.9665C7.03587 10.9665 5.84375 9.81718 5.84375 8.40559C5.84375 6.99298 7.03587 5.84466 8.5 5.84466C9.96412 5.84466 11.1562 6.99298 11.1562 8.40559C11.1562 9.81718 9.96412 10.9665 8.5 10.9665Z" fill="#ED1C23"/>
<path d="M13.0688 4.54677C13.3815 4.54677 13.6351 4.30232 13.6351 4.00078C13.6351 3.69924 13.3815 3.45479 13.0688 3.45479C12.756 3.45479 12.5025 3.69924 12.5025 4.00078C12.5025 4.30232 12.756 4.54677 13.0688 4.54677Z" fill="#ED1C23"/>
</svg>
