<svg width="32" height="30" viewBox="0 0 32 30" fill="none" xmlns="http://www.w3.org/2000/svg">
<path d="M29.4376 29.5869C29.9339 30.0668 30.7252 30.0536 31.2052 29.5574C31.6851 29.0611 31.6719 28.2698 31.1756 27.7898L29.4376 29.5869ZM24.3349 21.1738C23.8386 20.6939 23.0473 20.7071 22.5673 21.2033C22.0874 21.6996 22.1006 22.4909 22.5969 22.9709L24.3349 21.1738ZM25.9115 13.4791C25.9115 19.4696 20.8782 24.3965 14.5807 24.3965V26.8965C22.1795 26.8965 28.4115 20.9284 28.4115 13.4791H25.9115ZM14.5807 24.3965C8.28325 24.3965 3.25 19.4696 3.25 13.4791H0.75C0.75 20.9284 6.98192 26.8965 14.5807 26.8965V24.3965ZM3.25 13.4791C3.25 7.48868 8.28325 2.56177 14.5807 2.56177V0.0617676C6.98192 0.0617676 0.75 6.02989 0.75 13.4791H3.25ZM14.5807 2.56177C20.8782 2.56177 25.9115 7.48868 25.9115 13.4791H28.4115C28.4115 6.02989 22.1795 0.0617676 14.5807 0.0617676V2.56177ZM31.1756 27.7898L24.3349 21.1738L22.5969 22.9709L29.4376 29.5869L31.1756 27.7898Z" fill="#1A1A1A"/>
<path d="M15.7231 14.2874L21.5232 14.2874C21.8834 14.2875 22.1755 14.005 22.1754 13.6567C22.1754 13.3082 21.8836 13.026 21.5232 13.026L15.7231 13.026L15.7229 7.41627C15.7229 7.06776 15.4312 6.78556 15.0708 6.78556C14.7106 6.78541 14.4185 7.06791 14.4187 7.41627L14.4188 13.026L8.61852 13.0258C8.25832 13.0257 7.96622 13.3082 7.96637 13.6565C7.96653 13.8306 8.03955 13.9884 8.15747 14.1024C8.27538 14.2165 8.4385 14.2871 8.61867 14.2871L14.419 14.2873V19.8968C14.419 20.0711 14.492 20.2288 14.6099 20.3428C14.7278 20.4569 14.8909 20.5275 15.0711 20.5275C15.4313 20.5277 15.7234 20.2452 15.7233 19.8968L15.7231 14.2874Z" fill="#191919"/>
</svg>
