<svg width="58" height="60" viewBox="0 0 58 60" fill="none" xmlns="http://www.w3.org/2000/svg">
<path d="M41.0905 36.8454C41.0839 36.849 41.0774 36.8527 41.0707 36.8562L39.4271 37.7403C40.225 37.9231 40.9777 38.2624 41.6407 38.738L45.1679 36.8581C44.55 36.4996 43.8472 36.3095 43.1309 36.3073C42.4147 36.305 41.7106 36.4907 41.0905 36.8454Z" fill="#ED1C23"/>
<path d="M43.8336 41.6235L44.2184 41.4227L51.2382 37.6765C50.4592 36.9584 49.2589 36.58 48.3039 37.0529L42.8946 39.9362C43.2962 40.4457 43.6132 41.0153 43.8336 41.6235Z" fill="#ED1C23"/>
<path d="M7.71825 57.7151C8.21122 57.7151 8.61086 57.3197 8.61086 56.8321C8.61086 56.3444 8.21122 55.9491 7.71825 55.9491C7.22527 55.9491 6.82563 56.3444 6.82563 56.8321C6.82563 57.3197 7.22527 57.7151 7.71825 57.7151Z" fill="#ED1C23"/>
<path d="M53.8405 38.1546L45.0004 42.8725L44.1796 43.3006C44.1869 43.4218 44.1918 43.5435 44.1918 43.6665C44.1918 43.8843 44.1043 44.0933 43.9485 44.2474C43.7928 44.4014 43.5816 44.488 43.3613 44.488C43.3489 44.488 43.3363 44.488 43.3238 44.487L37.2208 44.2132C35.435 44.1337 33.6456 44.2154 31.8748 44.4573C31.6565 44.4872 31.4352 44.4301 31.2595 44.2985C31.1725 44.2333 31.0993 44.1519 31.0441 44.0587C30.9889 43.9656 30.9529 43.8627 30.9379 43.7557C30.923 43.6488 30.9294 43.54 30.957 43.4356C30.9845 43.3311 31.0326 43.2331 31.0985 43.147C31.2315 42.9732 31.4288 42.8588 31.6471 42.8289C33.5182 42.5729 35.409 42.4862 37.296 42.5697L42.4457 42.7836C42.2431 41.7739 41.694 40.8644 40.8914 40.2092C40.0888 39.554 39.0819 39.1933 38.0413 39.1881H30.8864C29.4802 39.1927 28.091 38.8843 26.8218 38.2855L26.0839 37.9441C24.2579 37.066 22.2223 36.7034 20.2012 36.8963C18.1802 37.0891 16.2522 37.8299 14.6294 39.037L12.8739 40.5842C12.0322 41.3254 11.0384 41.8778 9.96065 42.2035L13.4567 53.5473L18.3597 50.4813C18.3723 50.4735 18.3852 50.4659 18.3982 50.4588C19.4642 49.867 20.718 49.6988 21.9049 49.9885L32.6329 51.9426C35.1904 52.3948 37.827 52.0327 40.1633 50.9083L58 38.794C57.4728 38.2521 56.7805 37.8961 56.0292 37.7806C55.2779 37.6651 54.5091 37.7965 53.8405 38.1546Z" fill="#ED1C23"/>
<path d="M13.7353 60L7.06176 38.3665H0L2.66927 60H13.7353ZM7.71825 54.306C8.22329 54.306 8.717 54.4542 9.13693 54.7317C9.55686 55.0093 9.88415 55.4038 10.0774 55.8654C10.2707 56.327 10.3213 56.8349 10.2227 57.3249C10.1242 57.8149 9.881 58.265 9.52388 58.6183C9.16676 58.9715 8.71176 59.2121 8.21642 59.3096C7.72108 59.4071 7.20764 59.357 6.74104 59.1658C6.27444 58.9746 5.87563 58.6509 5.59504 58.2355C5.31445 57.8201 5.16469 57.3317 5.16469 56.8321C5.16542 56.1623 5.43469 55.5202 5.91342 55.0467C6.39215 54.5731 7.04123 54.3067 7.71825 54.306Z" fill="#ED1C23"/>
<path d="M30.4011 4.28493C28.6985 4.11462 26.9787 4.27826 25.3401 4.76646C23.7015 5.25467 22.1763 6.05786 20.852 7.13003C19.5277 8.2022 18.4301 9.52228 17.6223 11.0147C16.8145 12.5071 16.3123 14.1424 16.1443 15.8271C15.9764 17.5118 16.1461 19.2128 16.6437 20.8325C17.1413 22.4522 17.957 23.9589 19.0441 25.2663C20.1312 26.5737 21.4684 27.6561 22.9791 28.4516C24.4897 29.247 26.1441 29.7397 27.8476 29.9017C28.2794 29.9439 28.7083 29.9648 29.1341 29.9644C32.4742 29.9632 35.6859 28.6915 38.1041 26.4124C40.5224 24.1333 41.962 21.0215 42.1248 17.7213C42.2876 14.4211 41.1612 11.1855 38.9788 8.68423C36.7964 6.183 33.7252 4.60784 30.4011 4.28493ZM33.5176 14.2117C33.5072 14.3192 33.4754 14.4237 33.4241 14.5191C33.3727 14.6145 33.3029 14.6989 33.2185 14.7676C33.1342 14.8362 33.0369 14.8877 32.9324 14.9192C32.8279 14.9506 32.7181 14.9613 32.6094 14.9507C32.5007 14.9401 32.3952 14.9084 32.2989 14.8573C32.2026 14.8063 32.1174 14.737 32.0482 14.6534C31.9791 14.5698 31.9272 14.4734 31.8957 14.37C31.8643 14.2665 31.8537 14.1579 31.8647 14.0504C31.9117 13.5782 31.8162 13.1028 31.5901 12.6843C31.364 12.2658 31.0176 11.923 30.5946 11.6993C30.1715 11.4756 29.691 11.381 29.2136 11.4275C28.7363 11.474 28.2836 11.6594 27.9127 11.9604C27.5419 12.2614 27.2697 12.6644 27.1304 13.1185C26.9911 13.5725 26.9911 14.0572 27.1303 14.5113C27.2695 14.9654 27.5416 15.3684 27.9124 15.6695C28.2831 15.9705 28.7358 16.1561 29.2132 16.2026C30.22 16.3003 31.1543 16.764 31.8354 17.504C32.5165 18.244 32.8957 19.2076 32.8998 20.2083C32.9039 21.2091 32.5326 22.1757 31.8576 22.9211C31.1826 23.6665 30.2521 24.1377 29.2461 24.2434L29.129 25.4181C29.1088 25.6209 29.0132 25.809 28.8606 25.946C28.7081 26.0829 28.5095 26.1589 28.3035 26.1591C28.2758 26.1591 28.2481 26.1577 28.2205 26.155C28.0013 26.1336 27.7997 26.027 27.66 25.8585C27.5203 25.6901 27.4539 25.4736 27.4755 25.2568L27.5924 24.0838C26.6963 23.8053 25.9243 23.2305 25.4059 22.4558C24.8875 21.681 24.6541 20.7535 24.7451 19.8287C24.7553 19.721 24.7869 19.6163 24.8382 19.5207C24.8894 19.4251 24.9592 19.3404 25.0436 19.2715C25.128 19.2027 25.2253 19.151 25.33 19.1195C25.4346 19.088 25.5445 19.0772 25.6534 19.0878C25.7623 19.0984 25.8679 19.1302 25.9643 19.1813C26.0608 19.2325 26.146 19.3019 26.2152 19.3858C26.2844 19.4696 26.3362 19.5661 26.3675 19.6698C26.3989 19.7734 26.4093 19.8822 26.398 19.9899C26.3361 20.6189 26.5274 21.2467 26.9304 21.7372C27.3334 22.2276 27.9156 22.541 28.5507 22.6096C28.5585 22.6096 28.5661 22.6096 28.5738 22.6105C28.5816 22.6115 28.5898 22.6131 28.5976 22.6141C29.2379 22.6734 29.8758 22.4786 30.3709 22.0727C30.866 21.6667 31.1778 21.0828 31.2378 20.4494C31.2977 19.8161 31.1008 19.1851 30.6904 18.6953C30.2801 18.2055 29.6898 17.897 29.0496 17.8377C28.0431 17.7393 27.1092 17.2751 26.4286 16.535C25.7481 15.7949 25.3691 14.8315 25.365 13.831C25.3609 12.8305 25.732 11.864 26.4065 11.1185C27.0811 10.373 28.0111 9.90138 29.0168 9.79489L29.1192 8.76799C29.1413 8.55158 29.2493 8.35269 29.4195 8.21494C29.5897 8.07719 29.8081 8.01183 30.0269 8.03318C30.2458 8.05453 30.4471 8.16086 30.5868 8.32885C30.7265 8.49683 30.7931 8.71276 30.7721 8.92928L30.6697 9.95619C31.566 10.2345 32.3382 10.8093 32.8568 11.5842C33.3754 12.3591 33.6087 13.2868 33.5176 14.2117Z" fill="#ED1C23"/>
<path d="M49.4849 9.26528C49.2647 9.26528 49.0534 9.35184 48.8977 9.5059C48.7419 9.65997 48.6544 9.86893 48.6544 10.0868V11.456C48.6544 11.6739 48.7419 11.8829 48.8977 12.0369C49.0534 12.191 49.2647 12.2775 49.4849 12.2775C49.7052 12.2775 49.9164 12.191 50.0721 12.0369C50.2279 11.8829 50.3154 11.6739 50.3154 11.456V10.0868C50.3154 9.86893 50.2279 9.65997 50.0721 9.5059C49.9164 9.35184 49.7052 9.26528 49.4849 9.26528Z" fill="#ED1C23"/>
<path d="M49.4849 13.3729C49.2647 13.3729 49.0534 13.4595 48.8977 13.6135C48.7419 13.7676 48.6544 13.9765 48.6544 14.1944V15.5636C48.6544 15.7815 48.7419 15.9905 48.8977 16.1445C49.0534 16.2986 49.2647 16.3852 49.4849 16.3852C49.7052 16.3852 49.9164 16.2986 50.0721 16.1445C50.2279 15.9905 50.3154 15.7815 50.3154 15.5636V14.1944C50.3154 13.9765 50.2279 13.7676 50.0721 13.6135C49.9164 13.4595 49.7052 13.3729 49.4849 13.3729Z" fill="#ED1C23"/>
<path d="M46.7511 11.9409C46.5309 11.9409 46.3197 12.0274 46.1639 12.1815C46.0082 12.3355 45.9207 12.5445 45.9207 12.7624C45.9207 12.9803 46.0082 13.1892 46.1639 13.3433C46.3197 13.4973 46.5309 13.5839 46.7511 13.5839H48.1353C48.3555 13.5839 48.5668 13.4973 48.7225 13.3433C48.8782 13.1892 48.9657 12.9803 48.9657 12.7624C48.9657 12.5445 48.8782 12.3355 48.7225 12.1815C48.5668 12.0274 48.3555 11.9409 48.1353 11.9409H46.7511Z" fill="#ED1C23"/>
<path d="M50.9035 13.5839H52.2876C52.5079 13.5839 52.7191 13.4973 52.8748 13.3433C53.0306 13.1892 53.1181 12.9803 53.1181 12.7624C53.1181 12.5445 53.0306 12.3355 52.8748 12.1815C52.7191 12.0274 52.5079 11.9409 52.2876 11.9409H50.9035C50.6832 11.9409 50.472 12.0274 50.3163 12.1815C50.1605 12.3355 50.073 12.5445 50.073 12.7624C50.073 12.9803 50.1605 13.1892 50.3163 13.3433C50.472 13.4973 50.6832 13.5839 50.9035 13.5839Z" fill="#ED1C23"/>
<path d="M13.0827 0C12.8624 0 12.6512 0.0865531 12.4954 0.240619C12.3397 0.394684 12.2522 0.603642 12.2522 0.821524V2.19073C12.2522 2.40861 12.3397 2.61757 12.4954 2.77164C12.6512 2.9257 12.8624 3.01225 13.0827 3.01225C13.3029 3.01225 13.5142 2.9257 13.6699 2.77164C13.8256 2.61757 13.9131 2.40861 13.9131 2.19073V0.821524C13.9131 0.603642 13.8256 0.394684 13.6699 0.240619C13.5142 0.0865531 13.3029 0 13.0827 0Z" fill="#ED1C23"/>
<path d="M13.0827 4.10762C12.8624 4.10762 12.6512 4.19417 12.4954 4.34824C12.3397 4.5023 12.2522 4.71126 12.2522 4.92914V6.29835C12.2522 6.51623 12.3397 6.72519 12.4954 6.87926C12.6512 7.03332 12.8624 7.11987 13.0827 7.11987C13.3029 7.11987 13.5142 7.03332 13.6699 6.87926C13.8256 6.72519 13.9131 6.51623 13.9131 6.29835V4.92914C13.9131 4.71126 13.8256 4.5023 13.6699 4.34824C13.5142 4.19417 13.3029 4.10762 13.0827 4.10762Z" fill="#ED1C23"/>
<path d="M10.3297 2.76717C10.1094 2.76717 9.89817 2.85372 9.74243 3.00779C9.58668 3.16185 9.49919 3.37081 9.49919 3.58869C9.49919 3.80657 9.58668 4.01553 9.74243 4.1696C9.89817 4.32366 10.1094 4.41021 10.3297 4.41021H11.7138C11.934 4.41021 12.1453 4.32366 12.301 4.1696C12.4567 4.01553 12.5442 3.80657 12.5442 3.58869C12.5442 3.37081 12.4567 3.16185 12.301 3.00779C12.1453 2.85372 11.934 2.76717 11.7138 2.76717H10.3297Z" fill="#ED1C23"/>
<path d="M15.8661 2.76717H14.482C14.2618 2.76717 14.0505 2.85372 13.8948 3.00779C13.739 3.16185 13.6515 3.37081 13.6515 3.58869C13.6515 3.80657 13.739 4.01553 13.8948 4.1696C14.0505 4.32366 14.2618 4.41021 14.482 4.41021H15.8661C16.0864 4.41021 16.2976 4.32366 16.4534 4.1696C16.6091 4.01553 16.6966 3.80657 16.6966 3.58869C16.6966 3.37081 16.6091 3.16185 16.4534 3.00779C16.2976 2.85372 16.0864 2.76717 15.8661 2.76717Z" fill="#ED1C23"/>
</svg>
