<svg width="42" height="60" viewBox="0 0 42 60" fill="none" xmlns="http://www.w3.org/2000/svg">
<path d="M25.532 34.2557H7.08401V36.4211H25.532V34.2557Z" fill="#ED1C23"/>
<path d="M29.8445 28.772H7.08401V30.9374H29.8445V28.772Z" fill="#ED1C23"/>
<path d="M18.4652 40.5883H7.08401V42.7537H18.4652V40.5883Z" fill="#ED1C23"/>
<path d="M25.532 22.9995H7.08401V25.1649H25.532V22.9995Z" fill="#ED1C23"/>
<path d="M20.7077 12.1725H7.08401V19.6292H20.7077V12.1725Z" fill="#ED1C23"/>
<path d="M34.3333 44.7074C34.3333 41.3621 31.6346 38.652 28.3035 38.652C24.9838 38.652 22.2832 41.3563 22.2832 44.7074C22.2832 48.0412 24.98 50.7494 28.3035 50.7494C31.6346 50.7475 34.3333 48.0412 34.3333 44.7074Z" fill="#ED1C23"/>
<path d="M37.124 46.8112L28.3131 53.8021L33.191 60L35.5159 53.8599L42 53.0091L37.124 46.8112Z" fill="#ED1C23"/>
<path d="M12.8168 49.6022L18.931 51.9351L19.7762 58.4486L25.9479 53.5481L18.9865 44.6997L12.8168 49.6022Z" fill="#ED1C23"/>
<path d="M13.8288 51.9659H2.67567V2.6851H25.6872L25.6431 12.0685H35.5792V45.4966L37.4019 44.1993L38.2491 45.2637V9.38342H38.228L38.2702 9.33915L28.3706 0.0750674V0H0V54.6548H17.1619L16.976 53.2112L13.8288 51.9659ZM28.3571 3.73027L34.3946 9.38342H28.3265L28.3571 3.73027Z" fill="#ED1C23"/>
</svg>
