<svg width="38" height="48" viewBox="0 0 38 48" fill="none" xmlns="http://www.w3.org/2000/svg">
<path d="M23.5 1L24.2148 0.300706C24.0267 0.108397 23.769 0 23.5 0V1ZM5.5 1V0V1ZM1 5.6H0H1ZM1 42.4H0H1ZM37 14.8H38C38 14.5386 37.8976 14.2876 37.7148 14.1007L37 14.8ZM23.5 14.8H22.5C22.5 15.3523 22.9477 15.8 23.5 15.8V14.8ZM28 27.3C28.5523 27.3 29 26.8523 29 26.3C29 25.7477 28.5523 25.3 28 25.3V27.3ZM10 25.3C9.44771 25.3 9 25.7477 9 26.3C9 26.8523 9.44771 27.3 10 27.3V25.3ZM28 36.5C28.5523 36.5 29 36.0523 29 35.5C29 34.9477 28.5523 34.5 28 34.5V36.5ZM10 34.5C9.44771 34.5 9 34.9477 9 35.5C9 36.0523 9.44771 36.5 10 36.5V34.5ZM14.5 18.1C15.0523 18.1 15.5 17.6523 15.5 17.1C15.5 16.5477 15.0523 16.1 14.5 16.1V18.1ZM10 16.1C9.44771 16.1 9 16.5477 9 17.1C9 17.6523 9.44771 18.1 10 18.1V16.1ZM23.5 0H5.5V2H23.5V0ZM5.5 0C4.03413 0 2.63286 0.595461 1.60319 1.64801L3.03285 3.0466C3.69101 2.37382 4.57892 2 5.5 2V0ZM1.60319 1.64801C0.574243 2.69982 0 4.12179 0 5.6H2C2 4.63822 2.37397 3.72013 3.03285 3.0466L1.60319 1.64801ZM0 5.6V42.4H2V5.6H0ZM0 42.4C0 43.8782 0.574243 45.3002 1.60319 46.352L3.03285 44.9534C2.37397 44.2799 2 43.3618 2 42.4H0ZM1.60319 46.352C2.63286 47.4045 4.03413 48 5.5 48V46C4.57892 46 3.69101 45.6262 3.03285 44.9534L1.60319 46.352ZM5.5 48H32.5V46H5.5V48ZM32.5 48C33.9659 48 35.3671 47.4045 36.3968 46.352L34.9671 44.9534C34.309 45.6262 33.4211 46 32.5 46V48ZM36.3968 46.352C37.4258 45.3002 38 43.8782 38 42.4H36C36 43.3618 35.626 44.2799 34.9671 44.9534L36.3968 46.352ZM38 42.4V14.8H36V42.4H38ZM37.7148 14.1007L24.2148 0.300706L22.7852 1.69929L36.2852 15.4993L37.7148 14.1007ZM22.5 1V14.8H24.5V1H22.5ZM23.5 15.8H37V13.8H23.5V15.8ZM28 25.3H10V27.3H28V25.3ZM28 34.5H10V36.5H28V34.5ZM14.5 16.1H10V18.1H14.5V16.1Z" fill="white"/>
</svg>
