<svg width="100" height="122" viewBox="0 0 100 122" fill="none" xmlns="http://www.w3.org/2000/svg">
<path opacity="0.1" d="M100 50C100 77.6142 50 122 50 122C50 122 0 77.6142 0 50C0 22.3858 22.3858 0 50 0C77.6142 0 100 22.3858 100 50Z" fill="#ED1C23"/>
<path d="M90 50C90 72.0914 50 110 50 110C50 110 10 72.0914 10 50C10 27.9086 27.9086 10 50 10C72.0914 10 90 27.9086 90 50Z" fill="#ED1C23"/>
<path d="M33.7746 38.0187C32.7872 38.019 31.8289 38.3669 31.0555 39.0059L25.9944 43.1867C25.6846 43.4426 25.4343 43.768 25.2621 44.1387C25.09 44.5093 25.0004 44.9157 25 45.3274V60.089C25 60.3306 25.0922 60.5623 25.2563 60.7332C25.4204 60.904 25.643 61 25.8751 61H34.1631C34.3952 61 34.6178 60.904 34.7819 60.7332C34.946 60.5623 35.0382 60.3306 35.0382 60.089V45.7348C35.0383 45.4153 35.1064 45.0997 35.2376 44.8107C35.3688 44.5218 35.5597 44.2667 35.7968 44.0637C35.7968 44.0637 41.6179 39.0073 42.2685 38.5134C42.5783 38.2418 42.9575 38.0701 43.3596 38.0194L33.7746 38.0187Z" fill="white"/>
<path d="M53.6465 38C52.6588 38 51.7002 38.3479 50.9266 38.9872L45.8649 43.1687C45.5547 43.4251 45.304 43.7511 45.1318 44.1224C44.9596 44.4937 44.8703 44.9008 44.8705 45.3131V60.0733C44.8705 60.3149 44.9627 60.5466 45.1268 60.7174C45.2909 60.8883 45.5135 60.9843 45.7456 60.9843H54.0385C54.2706 60.9843 54.4932 60.8883 54.6573 60.7174C54.8215 60.5466 54.9137 60.3149 54.9137 60.0733V45.7161C54.9136 45.3966 54.9814 45.0809 55.1123 44.7919C55.2432 44.5028 55.434 44.2475 55.6709 44.0442C55.6709 44.0442 61.4919 38.9879 62.1426 38.494C62.4924 38.2093 62.9147 38.0376 63.3572 38H53.6465Z" fill="white"/>
<path d="M65.0094 45.0619L64.9625 60.0846C64.9621 60.2044 64.9845 60.3232 65.0283 60.4341C65.0721 60.545 65.1365 60.6457 65.2178 60.7306C65.2991 60.8155 65.3957 60.8829 65.5021 60.9289C65.6084 60.9748 65.7225 60.9985 65.8376 60.9985H74.1249C74.357 60.9985 74.5796 60.9025 74.7437 60.7317C74.9078 60.5608 75 60.3291 75 60.0875V38.0187H72.4024C71.3335 38.0187 70.3082 38.4599 69.5512 39.2454L65.7673 43.1719C65.2845 43.6728 65.012 44.3524 65.0094 45.0619Z" fill="white"/>
<path d="M63.8616 38.6687L59.2782 42.5654L60.1283 43.649L64.7117 39.7523L63.8616 38.6687Z" fill="white"/>
<path d="M65.5219 40.6066L60.9392 44.5041L61.7895 45.5875L66.3722 41.69L65.5219 40.6066Z" fill="white"/>
<path d="M43.9385 38.456L39.3553 42.3528L40.2058 43.437L44.7891 39.5401L43.9385 38.456Z" fill="white"/>
<path d="M45.5984 40.3938L41.0156 44.2912L41.8658 45.3746L46.4486 41.4773L45.5984 40.3938Z" fill="white"/>
</svg>
