<svg width="17" height="14" viewBox="0 0 17 14" fill="none" xmlns="http://www.w3.org/2000/svg">
<path d="M16.9393 2.2411C16.8766 2.18537 16.7833 2.17843 16.7128 2.22427C16.4008 2.42712 15.9803 2.53009 15.6308 2.58241C16.0487 2.2483 16.5361 1.72316 16.5329 1.04645C16.5325 0.978383 16.4933 0.916172 16.4313 0.885454C16.3693 0.854737 16.295 0.860694 16.2389 0.900787C15.6055 1.35383 14.6975 1.59179 14.3651 1.66778C14.13 1.28809 13.3216 0.174711 11.9241 0.174711C11.846 0.174711 11.7662 0.178337 11.6871 0.185434C9.95052 0.341972 9.10905 1.3373 8.70898 2.14476C8.45604 2.65524 8.34495 3.14951 8.29627 3.47596C8.02087 3.24068 7.54052 2.88264 6.82551 2.52434C5.73321 1.97687 3.85715 1.3243 1.12291 1.3243C0.857075 1.3243 0.583999 1.33047 0.311241 1.34264C0.249196 1.34544 0.192699 1.37854 0.160831 1.4308C0.128962 1.48307 0.126003 1.54756 0.153009 1.60241C0.736577 2.79028 1.99192 3.48803 2.80914 3.83353C2.36076 3.94998 1.88167 4.17717 1.73163 4.5351C1.65548 4.71682 1.63592 5.00239 1.97517 5.33095C2.47322 5.81331 3.05875 6.1064 3.57467 6.28433C3.17047 6.35483 2.84772 6.47583 2.74307 6.67718C2.70328 6.75384 2.65788 6.91121 2.80121 7.10432C3.48831 8.03039 5.13516 8.3905 5.86544 8.44924C5.7728 8.66499 5.57984 9.01531 5.2072 9.36226C4.41096 10.1035 3.15546 10.4953 1.57641 10.4953C1.57626 10.4953 1.5761 10.4953 1.57594 10.4953C1.14685 10.4953 0.686317 10.4668 0.206969 10.4106C0.1278 10.4014 0.0513787 10.4428 0.017502 10.5137C-0.0163748 10.5845 -9.70293e-05 10.6686 0.0578793 10.7223C2.13958 12.6519 4.50282 13.672 6.89216 13.6724C6.89263 13.6724 6.89295 13.6724 6.89337 13.6724C9.52382 13.6724 12.0993 12.4047 13.7827 10.2814C15.2819 8.39045 15.8562 6.12712 15.3714 4.0456C15.6952 3.90973 16.4101 3.50797 16.9783 2.46042C17.0181 2.38718 17.002 2.29684 16.9393 2.2411Z" fill="#ED1C23"/>
</svg>
