<svg width="19" height="10" viewBox="0 0 19 10" fill="none" xmlns="http://www.w3.org/2000/svg">
<path d="M18.174 7.62268C17.7603 7.18676 17.2902 6.79607 16.8355 6.41823C16.6739 6.28385 16.5067 6.14493 16.3456 6.00678C15.883 5.60975 15.8662 5.46059 16.2324 5.00962C16.4858 4.69876 16.7545 4.38749 17.0143 4.08646C17.25 3.81334 17.4937 3.53091 17.7272 3.24755L17.7752 3.18929C18.2216 2.64705 18.6833 2.08635 18.929 1.40996C18.9928 1.23151 19.0598 0.968901 18.9066 0.749313C18.7535 0.52991 18.4566 0.462973 18.2465 0.431708C18.1426 0.416237 18.0394 0.414125 17.9436 0.414125L15.0201 0.412288L14.996 0.412105C14.5539 0.412105 14.256 0.594964 14.0853 0.971196C13.9224 1.33067 13.7434 1.71347 13.5391 2.07744C13.1326 2.80222 12.6163 3.637 11.8692 4.33323L11.8376 4.36284C11.7494 4.44607 11.6494 4.54033 11.5764 4.54033C11.5652 4.54033 11.553 4.53845 11.5392 4.53464C11.3844 4.4817 11.2806 4.15285 11.2853 3.99988C11.2853 3.99776 11.2854 3.99565 11.2854 3.99354L11.2834 1.0273C11.2834 1.01701 11.2825 1.00682 11.281 0.99663C11.2066 0.514438 11.0419 0.214279 10.4194 0.107263C10.4029 0.10437 10.386 0.102947 10.3692 0.102947H7.32929C6.83402 0.102947 6.56113 0.279655 6.30461 0.544142C6.23537 0.614843 6.09123 0.76203 6.16267 0.940574C6.23516 1.12178 6.47045 1.16053 6.54706 1.17311C6.92738 1.23665 7.14175 1.44086 7.20247 1.79767C7.30847 2.41727 7.3215 3.0786 7.24347 3.87895C7.22171 4.10138 7.17867 4.27318 7.10775 4.41995C7.09128 4.4542 7.03286 4.56599 6.97329 4.56604C6.95436 4.56604 6.89961 4.55952 6.79987 4.49919C6.56406 4.35738 6.39153 4.15501 6.19039 3.90503C5.50612 3.0561 4.93183 2.12092 4.43448 1.04539C4.25002 0.649459 3.90553 0.427806 3.46403 0.421287C2.97891 0.414813 2.53908 0.411692 2.1196 0.411692C1.66126 0.411692 1.23633 0.41541 0.821398 0.422986C0.466189 0.428495 0.220491 0.521967 0.0912101 0.701016C-0.0382804 0.880203 -0.0298604 1.11558 0.116261 1.4005C1.28596 3.68328 2.34652 5.34306 3.55513 6.78243C4.402 7.7896 5.25143 8.48675 6.22804 8.97619C7.25696 9.49291 8.41003 9.74413 9.75305 9.74413C9.90529 9.74413 10.0627 9.74087 10.2214 9.73435C11.0018 9.70097 11.2914 9.45301 11.328 8.78599C11.3454 8.44511 11.3878 8.08761 11.5787 7.78272C11.6992 7.59063 11.8116 7.59063 11.8485 7.59063C11.9196 7.59063 12.0078 7.61937 12.1025 7.67322C12.2724 7.77055 12.418 7.90094 12.5374 8.01484C12.6498 8.12305 12.7609 8.23236 12.8722 8.34172C13.1122 8.57774 13.3604 8.82175 13.6197 9.05318C14.1873 9.56008 14.8125 9.78301 15.5306 9.73463H18.211C18.2167 9.73463 18.2224 9.73444 18.2281 9.73412C18.4952 9.71865 18.7265 9.58859 18.8628 9.37731C19.0315 9.11558 19.0281 8.78167 18.8537 8.4839C18.6557 8.1472 18.3989 7.85953 18.174 7.62268Z" fill="#ED1C23"/>
</svg>
