<svg width="58" height="60" viewBox="0 0 58 60" fill="none" xmlns="http://www.w3.org/2000/svg">
<path d="M53.3228 27.6291C51.4931 29.6523 49.7007 31.8318 48.4498 34.8389C47.8804 36.2275 46.5268 37.1288 45.0051 37.1288C43.4741 37.1288 42.1205 36.2275 41.5418 34.8298C40.0947 31.3351 37.901 28.9534 35.7725 26.6543C35.2405 26.075 34.7083 25.4956 34.1856 24.8978C34.1577 24.907 34.1388 24.9162 34.111 24.9254C32.0386 25.5414 30.4422 28.2452 31.4037 30.4431C32.0572 31.9512 36.6408 31.6662 36.2488 34.9124C35.9221 37.5701 39.4506 38.269 40.7016 38.1404C41.9525 37.9932 43.8756 40.1636 42.9047 41.12C41.9433 42.0765 40.1228 42.1132 40.4028 44.5778C40.4775 45.2951 42.6807 45.2032 42.6807 46.2883C42.6807 47.3826 41.5419 48.6242 42.4193 49.8841C42.6061 50.1599 42.8021 50.3715 43.0075 50.5369C38.788 54.3626 33.1588 56.7076 26.9882 56.7076C13.9469 56.7076 3.34201 46.2607 3.34201 33.4135C3.34201 29.5144 4.32229 25.8358 6.04928 22.5987C6.03993 26.783 8.3084 30.2592 9.37258 31.3075C12.8453 34.7193 17.877 33.6433 18.521 36.5033C19.1745 39.3542 15.067 39.3634 15.3378 41.5428C15.6177 43.7316 20.9669 44.311 19.772 46.3249C18.1943 49.001 20.8362 49.1941 20.0708 52.4955C19.6601 54.298 22.3018 54.6474 23.2821 53.2772C24.0289 52.2289 23.8795 50.9414 25.3825 49.3689C27.2216 47.4376 31.4878 47.125 31.0116 43.9338C30.1995 38.6368 24.9718 37.8091 22.694 36.5675C20.1081 35.1698 20.743 31.8131 20.1827 30.213C19.3986 27.9415 16.738 30.8476 15.3191 29.5233C12.9853 27.353 15.7391 24.2814 17.6995 24.3458C21.835 24.4746 23.1046 28.4382 24.6262 28.3002C26.1105 28.1714 27.0721 26.1299 27.3334 25.0448C27.8843 22.6813 26.3999 23.7389 25.8025 22.5065C24.9997 20.8605 28.6217 19.2879 30.022 18.074C30.2367 17.8901 30.3954 17.7153 30.4794 17.5498C30.8997 16.7405 30.3488 16.1244 29.4152 15.5634C27.5483 14.4505 24.1409 13.5678 23.9823 11.8298C23.8888 10.7629 25.9613 10.248 28.3231 10.156C28.7151 10.1745 29.0978 10.2112 29.49 10.248C29.686 9.15357 30.0034 8.07759 30.4328 7.04769C29.3032 6.90053 28.1551 6.82691 26.9881 6.82691C12.1077 6.82691 6.13509e-10 18.7544 6.13509e-10 33.4132C-9.95203e-05 48.0725 12.1077 60 26.9881 60C41.8685 60 53.9764 48.0724 53.9764 33.4136C53.9764 31.4272 53.7523 29.4868 53.3228 27.6291ZM43.7352 0.0590557C36.1166 0.768468 30.8986 8.04073 32.2283 15.4648C33.5786 23.006 40.6368 25.3273 44.1395 33.7924C44.4552 34.5553 45.5455 34.5591 45.8609 33.7962C49.7438 24.4073 58 22.5751 58 12.8053C57.9999 5.32171 51.4833 -0.662416 43.7352 0.0590557ZM45.001 19.5679C41.2096 19.5679 38.1361 16.5403 38.1361 12.8053C38.1361 9.07054 41.2096 6.04289 45.001 6.04289C48.7923 6.04289 51.8656 9.07054 51.8656 12.8053C51.8656 16.5402 48.7921 19.5679 45.001 19.5679Z" fill="#ED1C23"/>
</svg>
