<svg width="7" height="7" viewBox="0 0 7 7" fill="none" xmlns="http://www.w3.org/2000/svg">
<path d="M6.95982 1.91964C6.95982 1.80804 6.91518 1.69643 6.83482 1.61607L6.22768 1.00893C6.14732 0.928571 6.03571 0.883928 5.92411 0.883928C5.8125 0.883928 5.70089 0.928571 5.62054 1.00893L2.69196 3.94196L1.37946 2.625C1.29911 2.54464 1.1875 2.5 1.07589 2.5C0.964286 2.5 0.852679 2.54464 0.772321 2.625L0.165179 3.23214C0.0848215 3.3125 0.0401786 3.42411 0.0401786 3.53571C0.0401786 3.64732 0.0848215 3.75893 0.165179 3.83929L1.78125 5.45536L2.38839 6.0625C2.46875 6.14286 2.58036 6.1875 2.69196 6.1875C2.80357 6.1875 2.91518 6.14286 2.99554 6.0625L3.60268 5.45536L6.83482 2.22321C6.91518 2.14286 6.95982 2.03125 6.95982 1.91964Z" fill="#ED1C23"/>
</svg>
