<svg width="150" height="43" viewBox="0 0 150 43" fill="none" xmlns="http://www.w3.org/2000/svg">
<path d="M28.0499 13.7032L37.7999 22.1925H24.4599L16.7599 16.1944C16.4453 15.9447 16.2181 15.6088 16.1087 15.2317C15.9993 14.8546 16.0131 14.4544 16.1481 14.085C16.2831 13.7156 16.533 13.3947 16.8641 13.1654C17.1951 12.9361 17.5915 12.8095 17.9999 12.8025H25.6299C26.5273 12.7944 27.3936 13.1168 28.0499 13.7032Z" fill="#636466"/>
<path d="M13.83 12.8025H12.23C10.8538 12.8017 9.5179 13.2475 8.44 14.0673L1.44 19.433C0.996501 19.7554 0.636072 20.1709 0.386432 20.6476C0.136791 21.1243 0.0045917 21.6496 0 22.1829L0 41.1162C0 41.4263 0.128535 41.7236 0.35733 41.9428C0.586124 42.1621 0.896436 42.2852 1.22 42.2852H12.78C13.1036 42.2852 13.4139 42.1621 13.6427 41.9428C13.8715 41.7236 14 41.4263 14 41.1162V22.7003C14.0004 22.2908 14.0946 21.8862 14.2761 21.5154C14.4575 21.1445 14.7217 20.8164 15.05 20.5541C15.05 20.5541 23.17 14.0673 24.05 13.4349C24.6414 13.0482 25.3346 12.8291 26.05 12.8025H13.83Z" fill="#BF1F26"/>
<path d="M56.0498 13.6744L65.7898 22.1638H52.4598L44.7498 16.1752C44.4308 15.926 44.1998 15.5885 44.0883 15.2088C43.9769 14.829 43.9905 14.4256 44.1272 14.0536C44.2639 13.6815 44.5171 13.359 44.8523 13.1299C45.1874 12.9009 45.5882 12.7765 45.9998 12.7738H53.6298C54.5259 12.7724 55.3897 13.0939 56.0498 13.6744Z" fill="#636466"/>
<path d="M41.83 12.7738H40.23C38.8543 12.7759 37.5194 13.2214 36.44 14.0385L29.38 19.4043C28.9497 19.7343 28.6023 20.1528 28.3635 20.6288C28.1246 21.1048 28.0004 21.6261 28 22.1542V41.0971C28 41.4071 28.1285 41.7044 28.3573 41.9237C28.5861 42.1429 28.8964 42.266 29.22 42.266H40.77C40.9311 42.2673 41.0908 42.238 41.2399 42.1798C41.3891 42.1216 41.5248 42.0357 41.6391 41.9271C41.7535 41.8184 41.8442 41.6891 41.9062 41.5466C41.9681 41.4042 42 41.2514 42 41.0971V22.6812C42.0002 22.2706 42.0954 21.8652 42.2787 21.4941C42.462 21.123 42.7288 20.7954 43.06 20.5349C43.06 20.5349 51.17 14.0481 52.06 13.4062C52.6524 13.0213 53.3449 12.8024 54.06 12.7738H41.83Z" fill="#BF1F26"/>
<path d="M55.6799 21.838L55.6099 41.1162C55.6099 41.4263 55.7384 41.7236 55.9672 41.9428C56.196 42.162 56.5063 42.2852 56.8299 42.2852H68.3799C68.5404 42.2865 68.6997 42.2571 68.8483 42.1988C68.9969 42.1405 69.1319 42.0545 69.2455 41.9457C69.3591 41.8369 69.4489 41.7075 69.5097 41.5651C69.5705 41.4227 69.6012 41.2701 69.5999 41.1162V12.8025H65.9999C65.2586 12.7972 64.5235 12.9325 63.837 13.2005C63.1505 13.4685 62.5261 13.8641 61.9999 14.3643L56.7199 19.4043C56.388 19.7244 56.1252 20.1042 55.9468 20.5218C55.7683 20.9395 55.6776 21.3867 55.6799 21.838Z" fill="#BF1F26"/>
<path d="M78.9301 7.52303C77.4301 7.52303 76.6801 6.73733 76.6801 5.16594C76.6312 4.51234 76.85 3.86621 77.2901 3.36459C77.5155 3.15422 77.7835 2.99041 78.0777 2.88328C78.3718 2.77616 78.6857 2.728 79.0001 2.74178C79.519 2.73304 80.0328 2.84135 80.5001 3.05798L80.1201 4.01614C79.9101 3.93949 79.7201 3.87242 79.5401 3.82451C79.3641 3.77867 79.1824 3.7561 79.0001 3.75744C78.3201 3.75744 78.0001 4.22694 78.0001 5.15636C78.0001 6.08578 78.3401 6.50737 79.0001 6.50737C79.2405 6.51119 79.4801 6.47886 79.7101 6.41155C79.9389 6.33488 80.1571 6.23193 80.3601 6.10494V7.18767C80.1593 7.30897 79.94 7.39949 79.7101 7.45595C79.4532 7.50406 79.1918 7.52654 78.9301 7.52303Z" fill="#636466"/>
<path d="M86.0901 4.03531C86.0926 4.26698 86.0073 4.49164 85.8501 4.6677C85.6588 4.85713 85.4038 4.97587 85.1301 5.00306C85.4312 5.02689 85.7157 5.1447 85.9401 5.33842C86.0358 5.42828 86.1117 5.53566 86.1632 5.65417C86.2148 5.77268 86.2409 5.89991 86.2401 6.02829C86.2508 6.23045 86.2055 6.4317 86.1089 6.61172C86.0123 6.79174 85.8679 6.94415 85.6901 7.05353C85.2111 7.31748 84.6617 7.44076 84.1101 7.40805H81.6401V2.86635H84.1101C84.6268 2.83559 85.1423 2.94167 85.6001 3.17296C85.75 3.26659 85.8732 3.39439 85.9587 3.54491C86.0442 3.69542 86.0894 3.86394 86.0901 4.03531ZM84.7601 4.14071C84.7601 3.85326 84.5201 3.71912 84.0601 3.71912H83.0001V4.62937H84.0001C84.2169 4.64206 84.4335 4.60253 84.6301 4.51439C84.6834 4.468 84.7234 4.40927 84.7461 4.34383C84.7689 4.2784 84.7737 4.20845 84.7601 4.14071ZM84.8801 5.99955C84.8854 5.92091 84.8677 5.84242 84.8288 5.77298C84.7899 5.70354 84.7315 5.64594 84.6601 5.6067C84.4552 5.51084 84.2277 5.46791 84.0001 5.48214H83.0001V6.57445H84.0001C84.2221 6.59199 84.4438 6.53804 84.6301 6.42114C84.7072 6.37853 84.771 6.317 84.8149 6.24289C84.8589 6.16878 84.8814 6.08478 84.8801 5.99955Z" fill="#636466"/>
<path d="M91.7901 5.12762C91.8342 5.77063 91.6113 6.40429 91.1701 6.89064C90.9451 7.10761 90.6744 7.27621 90.3762 7.38525C90.0779 7.49428 89.7588 7.54125 89.4401 7.52302C89.0141 7.53179 88.5933 7.43263 88.2201 7.23557C87.8682 7.04279 87.5857 6.75207 87.4101 6.40197C87.2104 6.00489 87.111 5.56832 87.1201 5.12762C87.0787 4.48784 87.3014 3.8581 87.7401 3.37418C87.9652 3.1572 88.2358 2.9886 88.5341 2.87957C88.8324 2.77053 89.1514 2.72357 89.4701 2.74179C89.8961 2.73303 90.317 2.83219 90.6901 3.02924C91.0458 3.2205 91.3319 3.51136 91.5101 3.86284C91.7067 4.25724 91.8026 4.69073 91.7901 5.12762ZM88.4601 5.12762C88.437 5.48731 88.5202 5.84598 88.7001 6.16243C88.7828 6.28061 88.8967 6.37568 89.0302 6.43796C89.1637 6.50024 89.312 6.52749 89.4601 6.51695C89.6085 6.52955 89.7576 6.50321 89.8915 6.44075C90.0254 6.37829 90.139 6.28208 90.2201 6.16243C90.3932 5.84381 90.4727 5.48615 90.4501 5.12762C90.4744 4.77203 90.3948 4.41699 90.2201 4.10238C90.1347 3.98519 90.0185 3.89162 89.8834 3.83107C89.7482 3.77052 89.5988 3.74513 89.4501 3.75744C89.3054 3.74558 89.16 3.77031 89.0284 3.82916C88.8968 3.88801 88.7836 3.97891 88.7001 4.0928C88.5202 4.40925 88.437 4.76792 88.4601 5.12762Z" fill="#636466"/>
<path d="M92.7202 4.67728C92.66 3.82897 92.8804 2.98408 93.3502 2.26271C93.8476 1.67619 94.5661 1.30098 95.3502 1.21831L97.2602 0.950024L97.4102 2.05191C97.0435 2.09024 96.3768 2.17647 95.4102 2.31062C95.1265 2.34533 94.8519 2.42977 94.6002 2.55974C94.4209 2.67448 94.2816 2.838 94.2002 3.02924C94.1012 3.29063 94.0471 3.56569 94.0402 3.84368H94.1002C94.2502 3.62092 94.4612 3.44193 94.7102 3.32627C94.9571 3.2034 95.2319 3.14087 95.5102 3.14422C95.7671 3.12966 96.0242 3.16834 96.2641 3.25763C96.5039 3.34692 96.7209 3.48472 96.9002 3.66163C97.254 4.08675 97.4288 4.62345 97.3902 5.16594C97.4115 5.48139 97.3677 5.79778 97.2613 6.09701C97.155 6.39624 96.988 6.67243 96.7702 6.9098C96.5412 7.1204 96.2695 7.28354 95.9718 7.38905C95.6742 7.49455 95.357 7.54016 95.0402 7.52303C94.7105 7.54274 94.3809 7.48393 94.0808 7.35185C93.7807 7.21976 93.5193 7.01852 93.3202 6.76608C92.8766 6.15612 92.6648 5.41882 92.7202 4.67728ZM95.1402 6.50737C95.7602 6.50737 96.0702 6.09536 96.0702 5.27134C96.0702 4.46648 95.7902 4.07364 95.2302 4.07364C95.0669 4.07147 94.9055 4.10766 94.7602 4.17903C94.6064 4.24689 94.4647 4.33741 94.3402 4.44732C94.224 4.5397 94.1287 4.65381 94.0602 4.78268C94.0321 5.22694 94.1288 5.67029 94.3402 6.06662C94.417 6.20458 94.5327 6.31906 94.6741 6.397C94.8156 6.47494 94.9771 6.51319 95.1402 6.50737Z" fill="#636466"/>
<path d="M103 5.12762C103.044 5.77064 102.821 6.4043 102.38 6.89064C102.155 7.10761 101.884 7.27622 101.586 7.38525C101.288 7.49428 100.968 7.54125 100.65 7.52303C100.224 7.53179 99.803 7.43263 99.4298 7.23558C99.0741 7.04432 98.788 6.75345 98.6098 6.40197C98.4183 6.00257 98.3226 5.56711 98.3298 5.12762C98.302 4.48119 98.543 3.85061 98.9998 3.37418C99.2271 3.15745 99.4996 2.98911 99.7994 2.88014C100.099 2.77117 100.42 2.72403 100.74 2.74179C101.166 2.73303 101.587 2.83218 101.96 3.02924C102.316 3.21694 102.6 3.50912 102.77 3.86284C102.954 4.25993 103.033 4.69432 103 5.12762ZM99.6698 5.12762C99.6473 5.48615 99.7268 5.84381 99.8998 6.16243C99.9855 6.27999 100.101 6.37438 100.236 6.43649C100.371 6.49859 100.52 6.5263 100.67 6.51695C100.818 6.52851 100.967 6.5017 101.1 6.43934C101.234 6.37697 101.348 6.28134 101.43 6.16243C101.603 5.84381 101.682 5.48615 101.66 5.12762C101.685 4.77083 101.602 4.4147 101.42 4.10238C101.337 3.98524 101.222 3.8915 101.089 3.83086C100.955 3.77022 100.807 3.74487 100.66 3.75744C100.514 3.74672 100.367 3.7719 100.234 3.83059C100.101 3.88928 99.9862 3.97953 99.8998 4.0928C99.7302 4.41235 99.6542 4.76997 99.6798 5.12762H99.6698Z" fill="#636466"/>
<path d="M109.27 9.104H108.09V7.44637H104.85V9.104H103.67V6.52654H104.07C104.381 6.04579 104.614 5.52235 104.76 4.97431C104.961 4.28537 105.091 3.57942 105.15 2.86635H108.56V6.52654H109.27V9.104ZM107.27 6.52654V3.82451H106.27C106.207 4.29839 106.117 4.76859 106 5.23301C105.877 5.68279 105.699 6.11701 105.47 6.52654H107.27Z" fill="#636466"/>
<path d="M111.54 2.86635V4.60063H113.37V2.86635H114.68V7.44637H113.37V5.53004H111.54V7.44637H110.22V2.86635H111.54Z" fill="#636466"/>
<path d="M119.26 7.44637L119 6.81398C118.824 7.04917 118.59 7.23986 118.32 7.36972C118.029 7.48331 117.715 7.53559 117.4 7.52303C117.202 7.53412 117.003 7.50674 116.816 7.44254C116.628 7.37833 116.456 7.27861 116.31 7.14934C116.17 7.00459 116.062 6.83385 115.993 6.64764C115.924 6.46143 115.896 6.26369 115.91 6.06662C115.895 5.85781 115.935 5.64869 116.028 5.45916C116.121 5.26964 116.263 5.10603 116.44 4.98389C116.932 4.71192 117.493 4.57902 118.06 4.60063H118.9V4.37067C118.914 4.274 118.904 4.17555 118.871 4.08326C118.838 3.99097 118.783 3.90743 118.71 3.83936C118.637 3.7713 118.548 3.72062 118.451 3.69141C118.354 3.6622 118.251 3.65528 118.15 3.67121C117.678 3.68866 117.215 3.79958 116.79 3.99699L116.36 3.1538C116.928 2.87107 117.56 2.7263 118.2 2.73221C118.73 2.69894 119.256 2.841 119.69 3.13464C119.87 3.289 120.01 3.48064 120.1 3.69488C120.19 3.90912 120.228 4.14028 120.21 4.37067V7.44637H119.26ZM118.87 5.30009H118.36C118.063 5.2875 117.767 5.35735 117.51 5.5013C117.417 5.56264 117.342 5.64616 117.293 5.7436C117.244 5.84105 117.222 5.94908 117.23 6.05704C117.23 6.41156 117.44 6.58403 117.87 6.58403C118.003 6.59113 118.136 6.57275 118.261 6.52997C118.387 6.48719 118.502 6.42088 118.6 6.3349C118.691 6.24686 118.762 6.14187 118.808 6.02648C118.855 5.91108 118.876 5.78776 118.87 5.66419V5.30009Z" fill="#636466"/>
<path d="M122.39 7.44637H121L122.3 5.61628C122.011 5.51221 121.763 5.32472 121.59 5.07971C121.429 4.83318 121.349 4.5462 121.36 4.25569C121.35 4.05404 121.393 3.85322 121.483 3.67103C121.574 3.48884 121.71 3.33093 121.88 3.21129C122.298 2.93354 122.802 2.79856 123.31 2.82802H125.55V7.44637H124.2V5.74084H123.48L122.39 7.44637ZM122.61 4.26527C122.606 4.35373 122.627 4.44159 122.669 4.52044C122.711 4.59929 122.773 4.66649 122.85 4.71561C123.034 4.83009 123.251 4.887 123.47 4.87849H124.2V3.71911H123.3C123.121 3.70896 122.944 3.75987 122.8 3.86284C122.738 3.91141 122.689 3.97298 122.656 4.04278C122.623 4.11257 122.607 4.18871 122.61 4.26527Z" fill="#636466"/>
<path d="M78.0798 14.8338C77.5697 14.8518 77.0624 14.7532 76.5998 14.5464V13.5882C77.0397 13.7933 77.5208 13.9044 78.0098 13.914C78.1446 13.9234 78.2799 13.9042 78.4061 13.8578C78.5322 13.8115 78.6462 13.739 78.7398 13.6457C78.9384 13.4287 79.0454 13.1485 79.0398 12.86H77.2299V12.0168H78.9998C79.002 11.744 78.9107 11.4781 78.7398 11.2599C78.6577 11.1714 78.5556 11.102 78.4412 11.0572C78.3268 11.0123 78.2032 10.9932 78.0798 11.0012C77.6916 11.0101 77.3097 11.0983 76.9598 11.2599L76.5898 10.3975C76.8231 10.2919 77.068 10.2116 77.3198 10.158C77.5854 10.0978 77.857 10.0657 78.1298 10.0622C78.4371 10.0403 78.7457 10.0811 79.0352 10.1818C79.3248 10.2826 79.5888 10.441 79.8098 10.6466C80.2142 11.149 80.4101 11.7771 80.3598 12.4097C80.412 13.0648 80.2049 13.7147 79.7798 14.2302C79.5564 14.4392 79.2896 14.601 78.9968 14.705C78.7039 14.809 78.3915 14.8529 78.0798 14.8338Z" fill="#636466"/>
<path d="M84.7799 10.1292H86.2299L84.3199 12.3426L86.3999 14.7476H84.9099L82.9099 12.4097V14.7476H81.6299V10.1292H82.9399V12.3713L84.7799 10.1292Z" fill="#636466"/>
<path d="M91.6002 12.448C91.6402 13.0814 91.4255 13.7054 91.0002 14.1918C90.7772 14.4121 90.5071 14.5835 90.2085 14.6943C89.9099 14.8051 89.5898 14.8527 89.2702 14.8338C88.8259 14.853 88.3852 14.7499 88.0002 14.5368C87.6445 14.3455 87.3584 14.0547 87.1802 13.7032C86.9972 13.3088 86.9117 12.8792 86.9302 12.448C86.8892 11.8099 87.1079 11.1815 87.5402 10.6945C87.7667 10.4768 88.0391 10.3078 88.3391 10.1988C88.6391 10.0897 88.9599 10.0432 89.2802 10.0622C89.7056 10.0582 90.1252 10.157 90.5002 10.3496C90.8498 10.5452 91.1315 10.8351 91.3102 11.1832C91.5087 11.5773 91.608 12.0105 91.6002 12.448ZM88.2702 12.448C88.2476 12.8065 88.3271 13.1642 88.5002 13.4828C88.5844 13.6018 88.7001 13.6972 88.8353 13.7595C88.9705 13.8218 89.1206 13.8486 89.2702 13.8373C89.4159 13.8492 89.5623 13.8234 89.6942 13.7628C89.8261 13.7021 89.9386 13.6088 90.0202 13.4924C90.202 13.1731 90.2852 12.8109 90.2602 12.448C90.2791 12.0832 90.1889 11.7209 90.0002 11.4036C89.917 11.2864 89.8027 11.1927 89.6691 11.1321C89.5355 11.0714 89.3874 11.0461 89.2402 11.0586C89.093 11.0471 88.9453 11.0729 88.8119 11.1334C88.6784 11.194 88.564 11.2872 88.4802 11.4036C88.3087 11.7258 88.2359 12.0878 88.2702 12.448Z" fill="#636466"/>
<path d="M94.1298 10.1292V11.9114H95.9998V10.1292H97.3098V14.7476H95.9998V12.8313H94.1298V14.7476H92.8198V10.1292H94.1298Z" fill="#636466"/>
<path d="M103.17 12.448C103.21 13.0905 102.988 13.7226 102.55 14.211C102.327 14.4312 102.057 14.6026 101.759 14.7134C101.46 14.8243 101.14 14.8719 100.82 14.853C100.393 14.8631 99.9708 14.7603 99.6002 14.5559C99.2446 14.3647 98.9585 14.0738 98.7802 13.7223C98.584 13.3245 98.488 12.8879 98.5002 12.448C98.4578 11.8081 98.6806 11.1779 99.1202 10.6945C99.3449 10.4771 99.6155 10.3081 99.9139 10.1991C100.212 10.09 100.531 10.0433 100.85 10.0622C101.276 10.0582 101.695 10.157 102.07 10.3496C102.42 10.5476 102.705 10.8367 102.89 11.1832C103.086 11.578 103.182 12.0112 103.17 12.448ZM99.8402 12.448C99.8177 12.8065 99.8972 13.1642 100.07 13.4828C100.164 13.5896 100.281 13.6755 100.413 13.7344C100.546 13.7934 100.689 13.8239 100.835 13.8239C100.981 13.8239 101.125 13.7934 101.257 13.7344C101.389 13.6755 101.506 13.5896 101.6 13.4828C101.773 13.1607 101.853 12.8 101.83 12.4384C101.851 12.0819 101.768 11.7268 101.59 11.4132C101.507 11.296 101.393 11.2023 101.259 11.1416C101.126 11.081 100.978 11.0557 100.83 11.0682C100.683 11.0567 100.535 11.0825 100.402 11.143C100.269 11.2036 100.154 11.2968 100.07 11.4132C99.8937 11.7306 99.814 12.0892 99.8402 12.448Z" fill="#636466"/>
<path d="M110.46 14.7476H109.23V11.1066L109.16 11.3653C109.051 11.8135 108.915 12.2551 108.75 12.6875L107.89 14.7476H107L106.13 12.6684C105.97 12.2518 105.836 11.8262 105.73 11.394L105.65 11.1066V14.7476H104.43V10.1292H106.24L107.07 12.103C107.161 12.3414 107.238 12.5845 107.3 12.8313C107.37 13.0633 107.42 13.3004 107.45 13.5403C107.55 13.1283 107.62 12.8313 107.68 12.6492C107.728 12.4804 107.785 12.3141 107.85 12.151C107.91 11.9976 108.2 11.3269 108.71 10.1292H110.5L110.46 14.7476Z" fill="#636466"/>
<path d="M113.24 10.1292V11.9593C113.24 12.151 113.24 12.6205 113.14 13.3678L115.37 10.1292H117V14.7476H115.73V12.9079C115.73 12.5821 115.73 12.1222 115.81 11.5186L113.6 14.7476H112V10.1292H113.24Z" fill="#636466"/>
<path d="M119.61 10.1292V11.8252C119.61 12.2276 119.81 12.4192 120.19 12.4192C120.429 12.4244 120.668 12.3986 120.9 12.3426C121.126 12.2863 121.347 12.2126 121.56 12.1222V10.1292H122.87V14.7476H121.56V12.9175C121.29 13.0548 121.005 13.164 120.71 13.2433C120.461 13.3022 120.206 13.3343 119.95 13.3391C119.508 13.3621 119.072 13.2254 118.73 12.9558C118.581 12.8116 118.466 12.6389 118.392 12.449C118.318 12.259 118.286 12.0563 118.3 11.8539V10.1292H119.61Z" fill="#636466"/>
<path d="M126.56 14.8338C126.229 14.852 125.897 14.8063 125.584 14.6993C125.272 14.5923 124.985 14.4263 124.74 14.211C124.512 13.9808 124.337 13.7078 124.225 13.4093C124.113 13.1107 124.067 12.7932 124.09 12.4767C124.048 11.8255 124.262 11.1827 124.69 10.6754C124.905 10.4614 125.165 10.2941 125.453 10.185C125.742 10.0759 126.051 10.0275 126.36 10.043C126.651 10.026 126.942 10.0666 127.216 10.1622C127.489 10.2579 127.739 10.4064 127.95 10.5987C128.149 10.8056 128.302 11.0489 128.4 11.3141C128.498 11.5792 128.539 11.8607 128.52 12.1414V12.7546H125.42C125.412 13.0661 125.53 13.3686 125.75 13.5978C125.988 13.8031 126.301 13.9099 126.62 13.8948C126.896 13.8961 127.171 13.8672 127.44 13.8086C127.719 13.7429 127.991 13.6498 128.25 13.5307V14.4889C128.019 14.5985 127.773 14.679 127.52 14.7284C127.205 14.7976 126.883 14.833 126.56 14.8338ZM126.37 10.9437C126.25 10.9392 126.13 10.9591 126.018 11.002C125.906 11.0449 125.804 11.1099 125.72 11.1928C125.548 11.3962 125.453 11.6495 125.45 11.9114H127.29C127.304 11.6503 127.214 11.3939 127.04 11.1928C126.952 11.1094 126.848 11.0442 126.732 11.0014C126.617 10.9585 126.494 10.9389 126.37 10.9437Z" fill="#636466"/>
<path d="M131.68 14.8338C130.18 14.8338 129.43 14.0481 129.43 12.4672C129.381 11.8119 129.604 11.1644 130.05 10.6658C130.28 10.4501 130.554 10.2831 130.856 10.1758C131.157 10.0685 131.479 10.0232 131.8 10.043C132.319 10.0343 132.833 10.1426 133.3 10.3592L132.91 11.3174C132.7 11.2311 132.51 11.1736 132.33 11.1161C132.158 11.0679 131.98 11.0421 131.8 11.0395C131.11 11.0395 130.8 11.509 130.8 12.4384C130.8 13.3678 131.14 13.7894 131.8 13.7894C132.037 13.7926 132.273 13.7602 132.5 13.6936C132.731 13.6265 132.95 13.5263 133.15 13.3966V14.4697C132.949 14.591 132.73 14.6815 132.5 14.738C132.231 14.799 131.956 14.8311 131.68 14.8338Z" fill="#636466"/>
<path d="M137.55 10.1292H139L137.09 12.3426L139.17 14.7476H137.68L135.68 12.4097V14.7476H134.36V10.1292H135.68V12.3713L137.55 10.1292Z" fill="#636466"/>
<path d="M143.05 14.7476L142.8 14.1248C142.623 14.3594 142.39 14.55 142.12 14.6805C141.827 14.7896 141.514 14.8417 141.2 14.8338C141 14.8448 140.801 14.8164 140.613 14.7505C140.426 14.6845 140.254 14.5825 140.11 14.4506C139.969 14.3061 139.861 14.1354 139.792 13.9491C139.723 13.7628 139.695 13.565 139.71 13.3678C139.694 13.1579 139.735 12.9476 139.829 12.7576C139.924 12.5677 140.069 12.4048 140.25 12.2851C140.743 12.0179 141.303 11.8853 141.87 11.9018H142.7V11.7006C142.714 11.6039 142.704 11.5055 142.671 11.4132C142.638 11.3209 142.582 11.2374 142.509 11.1693C142.436 11.1012 142.348 11.0506 142.25 11.0214C142.153 10.9922 142.05 10.9852 141.95 11.0012C141.481 11.024 141.021 11.1381 140.6 11.3365L140.16 10.4838C140.726 10.194 141.358 10.0426 142 10.043C142.53 10.0081 143.057 10.1503 143.49 10.4454C143.67 10.5969 143.811 10.7867 143.901 10.9996C143.992 11.2126 144.029 11.4428 144.01 11.6719V14.7476H143.05ZM142.66 12.6109H142.15C141.854 12.6023 141.561 12.6684 141.3 12.8025C141.195 12.8654 141.111 12.9556 141.058 13.0625C141.005 13.1694 140.985 13.2886 141 13.4062C141 13.7607 141.21 13.9427 141.64 13.9427C141.773 13.9485 141.907 13.9287 142.032 13.8842C142.158 13.8398 142.272 13.7717 142.37 13.684C142.461 13.5985 142.533 13.4953 142.579 13.3813C142.626 13.2673 142.646 13.1451 142.64 13.0229L142.66 12.6109Z" fill="#636466"/>
<path d="M146.19 14.7476H144.76L146.06 12.9271C145.775 12.8197 145.532 12.6327 145.36 12.3905C145.197 12.1446 145.113 11.8578 145.12 11.5665C145.109 11.3634 145.151 11.1609 145.242 10.9771C145.333 10.7932 145.469 10.6336 145.64 10.5125C146.061 10.2406 146.562 10.1062 147.07 10.1292H149.31V14.7476H148V13.0325H147.27L146.19 14.7476ZM146.41 11.5665C146.404 11.6542 146.422 11.7418 146.463 11.8207C146.503 11.8997 146.564 11.9672 146.64 12.0168C146.822 12.135 147.04 12.1923 147.26 12.1797H148V11.0203H147.09C146.909 11.0093 146.73 11.0641 146.59 11.1736C146.531 11.2217 146.484 11.282 146.452 11.3501C146.421 11.4182 146.407 11.4922 146.41 11.5665Z" fill="#636466"/>
<path d="M78.1701 19.2126C78.5276 19.23 78.8857 19.1911 79.2301 19.0976C79.3166 19.0785 79.394 19.0324 79.4501 18.9665C79.5063 18.9005 79.5379 18.8186 79.5401 18.7335C79.5402 18.6622 79.5185 18.5924 79.4776 18.5328C79.4368 18.4731 79.3785 18.4263 79.3101 18.3982C79.0723 18.3062 78.8159 18.2668 78.5601 18.2832C78.3049 18.2879 78.0507 18.3136 77.8001 18.3599C77.5397 18.409 77.2852 18.4828 77.0401 18.5802L76.6501 17.6987C76.9744 17.5808 77.309 17.491 77.6501 17.4304C78.0069 17.3734 78.3684 17.3478 78.7301 17.3538C79.2326 17.3292 79.7321 17.4422 80.1701 17.6796C80.3356 17.77 80.473 17.9012 80.5679 18.0595C80.6629 18.2179 80.7119 18.3976 80.7101 18.5802C80.7101 19.0976 80.3901 19.433 79.7101 19.5959C80.027 19.6516 80.3214 19.791 80.5601 19.9983C80.7303 20.1828 80.8198 20.423 80.8101 20.669C80.8095 20.9433 80.7067 21.2084 80.5201 21.4164C80.2998 21.6537 80.0164 21.8292 79.7001 21.9242C79.2892 22.0468 78.8603 22.105 78.4301 22.0967C77.7992 22.1255 77.1691 22.0276 76.5801 21.8093V20.8128C76.8415 20.9218 77.1126 21.0084 77.3901 21.0715C77.6719 21.1353 77.9605 21.1674 78.2501 21.1673C78.5903 21.1889 78.9314 21.1398 79.2501 21.0236C79.3393 20.9979 79.418 20.9463 79.4753 20.8759C79.5326 20.8055 79.5657 20.7199 79.5701 20.6307C79.5655 20.5366 79.5303 20.4462 79.4693 20.3723C79.4083 20.2984 79.3246 20.2447 79.2301 20.2187C78.9075 20.1185 78.569 20.0731 78.2301 20.0846H77.7201V19.2126H78.1701Z" fill="#636466"/>
<path d="M86.3801 19.7396C86.423 20.3825 86.2003 21.0158 85.7601 21.5026C85.535 21.7196 85.2644 21.8882 84.9661 21.9972C84.6678 22.1063 84.3488 22.1532 84.0301 22.135C83.6041 22.1438 83.1832 22.0446 82.8101 21.8476C82.46 21.6496 82.1757 21.3605 81.9901 21.014C81.7995 20.6143 81.7039 20.179 81.7101 19.7396C81.666 19.0966 81.8889 18.4629 82.3301 17.9766C82.5567 17.7623 82.8279 17.5962 83.1259 17.4889C83.424 17.3816 83.7422 17.3355 84.0601 17.3538C84.4861 17.345 84.9069 17.4442 85.2801 17.6412C85.6357 17.8325 85.9218 18.1234 86.1001 18.4748C86.2974 18.869 86.3934 19.3027 86.3801 19.7396ZM83.0501 19.7396C83.03 20.098 83.1094 20.455 83.2801 20.7744C83.3662 20.8909 83.4825 20.984 83.6175 21.0444C83.7525 21.1049 83.9015 21.1307 84.0501 21.1194C84.1975 21.133 84.3459 21.1081 84.4797 21.0474C84.6135 20.9866 84.7277 20.8923 84.8101 20.7744C84.9693 20.4521 85.035 20.0946 85.0001 19.7396C85.027 19.3827 84.9435 19.0261 84.7601 18.7144C84.6777 18.5965 84.5635 18.5022 84.4297 18.4414C84.2959 18.3807 84.1475 18.3558 84.0001 18.3694C83.8541 18.3587 83.7076 18.3839 83.5746 18.4426C83.4416 18.5013 83.3265 18.5915 83.2401 18.7048C83.0808 19.0271 83.0152 19.3846 83.0501 19.7396Z" fill="#636466"/>
<path d="M88.9101 17.44V19.2126H90.7501V17.44H92.0601V22.0296H90.7501V20.1133H88.9101V22.0296H87.6001V17.44H88.9101Z" fill="#636466"/>
<path d="M96.6302 22.0296L96.3802 21.3972C96.1998 21.6326 95.9632 21.8231 95.6902 21.953C95.402 22.0667 95.0915 22.119 94.7802 22.1063C94.5801 22.117 94.3799 22.0895 94.191 22.0254C94.0021 21.9612 93.8285 21.8617 93.6802 21.7326C93.5436 21.5858 93.4388 21.4146 93.3719 21.2287C93.3049 21.0428 93.2772 20.8461 93.2902 20.6499C93.2738 20.4409 93.314 20.2315 93.4068 20.0418C93.4997 19.8521 93.6421 19.6886 93.8202 19.5671C94.3123 19.2961 94.8728 19.1602 95.4402 19.1743H96.2802V18.9731C96.2937 18.8761 96.2834 18.7774 96.2504 18.6848C96.2173 18.5923 96.1622 18.5083 96.0895 18.4396C96.0168 18.3709 95.9285 18.3192 95.8314 18.2888C95.7344 18.2583 95.6312 18.2498 95.5302 18.264C95.0577 18.2856 94.5948 18.3997 94.1702 18.5994L93.7302 17.7466C94.3026 17.4668 94.9377 17.3254 95.5802 17.3346C96.1103 17.3014 96.6363 17.4434 97.0702 17.7371C97.2483 17.8919 97.387 18.0839 97.4754 18.2982C97.5638 18.5125 97.5997 18.7434 97.5802 18.9731V22.0296H96.6302ZM96.2502 19.8833H95.7402C95.4426 19.8707 95.1475 19.9406 94.8902 20.0846C94.7964 20.1452 94.7211 20.2286 94.6719 20.3262C94.6227 20.4238 94.6014 20.5322 94.6102 20.6403C94.6102 20.9948 94.8202 21.1673 95.2402 21.1673C95.3731 21.1744 95.5061 21.156 95.6314 21.1132C95.7568 21.0704 95.8719 21.0041 95.9702 20.9182C96.0642 20.832 96.1378 20.7276 96.1861 20.6119C96.2344 20.4962 96.2563 20.3719 96.2502 20.2474V19.8833Z" fill="#636466"/>
</svg>
