<svg width="27" height="28" viewBox="0 0 27 28" fill="none" xmlns="http://www.w3.org/2000/svg">
<path d="M24.6161 26.8839C25.1043 27.372 25.8957 27.372 26.3839 26.8839C26.872 26.3957 26.872 25.6043 26.3839 25.1161L24.6161 26.8839ZM20.5839 19.3161C20.0957 18.828 19.3043 18.828 18.8161 19.3161C18.328 19.8043 18.328 20.5957 18.8161 21.0839L20.5839 19.3161ZM21.5833 12.6667C21.5833 17.8673 17.3673 22.0833 12.1667 22.0833V24.5833C18.7481 24.5833 24.0833 19.2481 24.0833 12.6667H21.5833ZM12.1667 22.0833C6.96599 22.0833 2.75 17.8673 2.75 12.6667H0.25C0.25 19.2481 5.58527 24.5833 12.1667 24.5833V22.0833ZM2.75 12.6667C2.75 7.46599 6.96599 3.25 12.1667 3.25V0.75C5.58527 0.75 0.25 6.08527 0.25 12.6667H2.75ZM12.1667 3.25C17.3673 3.25 21.5833 7.46599 21.5833 12.6667H24.0833C24.0833 6.08527 18.7481 0.75 12.1667 0.75V3.25ZM26.3839 25.1161L20.5839 19.3161L18.8161 21.0839L24.6161 26.8839L26.3839 25.1161Z" fill="#1A1A1A"/>
</svg>
