<svg width="32" height="24" viewBox="0 0 32 24" fill="none" xmlns="http://www.w3.org/2000/svg">
<path d="M1 12L0.104097 11.5558C-0.034699 11.8357 -0.034699 12.1643 0.104097 12.4442L1 12ZM31 12L31.8959 12.4442C32.0347 12.1643 32.0347 11.8357 31.8959 11.5558L31 12ZM1 12C1.8959 12.4442 1.89577 12.4445 1.89566 12.4447C1.89565 12.4448 1.89556 12.4449 1.89555 12.445C1.89551 12.445 1.89555 12.445 1.89568 12.4447C1.89594 12.4442 1.89652 12.443 1.89743 12.4412C1.89925 12.4376 1.90239 12.4314 1.90682 12.4227C1.9157 12.4053 1.92979 12.3779 1.94906 12.3412C1.9876 12.2677 2.04681 12.1571 2.12632 12.0145C2.28543 11.7293 2.52543 11.3172 2.8435 10.8206C3.48089 9.82545 4.42526 8.50122 5.65282 7.18092C8.12679 4.52002 11.63 2 16 2V0C10.8245 0 6.82776 2.97998 4.18809 5.81908C2.85883 7.24878 1.84297 8.67455 1.15934 9.7419C0.8169 10.2765 0.556185 10.7238 0.379714 11.0402C0.29144 11.1984 0.224134 11.3241 0.178114 11.4118C0.155101 11.4556 0.137401 11.49 0.125054 11.5142C0.11888 11.5263 0.114044 11.5359 0.110549 11.5428C0.108802 11.5463 0.10739 11.5491 0.106315 11.5513C0.105777 11.5524 0.105323 11.5533 0.104954 11.554C0.104769 11.5544 0.104554 11.5548 0.104462 11.555C0.104269 11.5554 0.104097 11.5558 1 12ZM16 2C20.37 2 23.8732 4.52002 26.3472 7.18092C27.5747 8.50122 28.5191 9.82545 29.1565 10.8206C29.4746 11.3172 29.7146 11.7293 29.8737 12.0145C29.9532 12.1571 30.0124 12.2677 30.0509 12.3412C30.0702 12.3779 30.0843 12.4053 30.0932 12.4227C30.0976 12.4314 30.1007 12.4376 30.1026 12.4412C30.1035 12.443 30.1041 12.4442 30.1043 12.4447C30.1044 12.445 30.1045 12.445 30.1045 12.445C30.1044 12.4449 30.1043 12.4448 30.1043 12.4447C30.1042 12.4445 30.1041 12.4442 31 12C31.8959 11.5558 31.8957 11.5554 31.8955 11.555C31.8954 11.5548 31.8952 11.5544 31.895 11.554C31.8947 11.5533 31.8942 11.5524 31.8937 11.5513C31.8926 11.5491 31.8912 11.5463 31.8895 11.5428C31.886 11.5359 31.8811 11.5263 31.8749 11.5142C31.8626 11.49 31.8449 11.4556 31.8219 11.4118C31.7759 11.3241 31.7086 11.1984 31.6203 11.0402C31.4438 10.7238 31.1831 10.2765 30.8407 9.7419C30.157 8.67455 29.1412 7.24878 27.8119 5.81908C25.1722 2.97998 21.1755 0 16 0V2ZM31 12C30.1041 11.5558 30.1042 11.5555 30.1043 11.5553C30.1043 11.5552 30.1044 11.5551 30.1045 11.555C30.1045 11.555 30.1044 11.555 30.1043 11.5553C30.1041 11.5558 30.1035 11.557 30.1026 11.5588C30.1007 11.5624 30.0976 11.5686 30.0932 11.5773C30.0843 11.5947 30.0702 11.6221 30.0509 11.6588C30.0124 11.7323 29.9532 11.8429 29.8737 11.9855C29.7146 12.2707 29.4746 12.6828 29.1565 13.1794C28.5191 14.1746 27.5747 15.4988 26.3472 16.8191C23.8732 19.48 20.37 22 16 22V24C21.1755 24 25.1722 21.02 27.8119 18.1809C29.1412 16.7512 30.157 15.3254 30.8407 14.2581C31.1831 13.7235 31.4438 13.2762 31.6203 12.9598C31.7086 12.8016 31.7759 12.6759 31.8219 12.5882C31.8449 12.5444 31.8626 12.51 31.8749 12.4858C31.8811 12.4737 31.886 12.4641 31.8895 12.4572C31.8912 12.4537 31.8926 12.4509 31.8937 12.4487C31.8942 12.4476 31.8947 12.4467 31.895 12.446C31.8952 12.4456 31.8954 12.4452 31.8955 12.445C31.8957 12.4446 31.8959 12.4442 31 12ZM16 22C11.63 22 8.12679 19.48 5.65282 16.8191C4.42526 15.4988 3.48089 14.1746 2.8435 13.1794C2.52543 12.6828 2.28543 12.2707 2.12632 11.9855C2.04681 11.8429 1.9876 11.7323 1.94906 11.6588C1.92979 11.6221 1.9157 11.5947 1.90682 11.5773C1.90239 11.5686 1.89925 11.5624 1.89743 11.5588C1.89652 11.557 1.89594 11.5558 1.89568 11.5553C1.89555 11.555 1.89551 11.555 1.89555 11.555C1.89556 11.5551 1.89565 11.5552 1.89566 11.5553C1.89577 11.5555 1.8959 11.5558 1 12C0.104097 12.4442 0.104269 12.4446 0.104462 12.445C0.104554 12.4452 0.104769 12.4456 0.104954 12.446C0.105323 12.4467 0.105777 12.4476 0.106315 12.4487C0.10739 12.4509 0.108802 12.4537 0.110549 12.4572C0.114044 12.4641 0.11888 12.4737 0.125054 12.4858C0.137401 12.51 0.155101 12.5444 0.178114 12.5882C0.224134 12.6759 0.29144 12.8016 0.379714 12.9598C0.556185 13.2762 0.8169 13.7235 1.15934 14.2581C1.84297 15.3254 2.85883 16.7512 4.18809 18.1809C6.82776 21.02 10.8245 24 16 24V22ZM19.0909 12C19.0909 13.7337 17.6993 15.125 16 15.125V17.125C18.8194 17.125 21.0909 14.8226 21.0909 12H19.0909ZM16 15.125C14.3007 15.125 12.9091 13.7337 12.9091 12H10.9091C10.9091 14.8226 13.1806 17.125 16 17.125V15.125ZM12.9091 12C12.9091 10.2663 14.3007 8.875 16 8.875V6.875C13.1806 6.875 10.9091 9.17738 10.9091 12H12.9091ZM16 8.875C17.6993 8.875 19.0909 10.2663 19.0909 12H21.0909C21.0909 9.17738 18.8194 6.875 16 6.875V8.875Z" fill="#1A1A1A"/>
</svg>
