<svg width="351" height="36" viewBox="0 0 351 36" fill="none" xmlns="http://www.w3.org/2000/svg">
<path d="M266.781 17.2981C264.987 17.2981 264.09 16.3028 264.09 14.3121C264.033 13.4897 264.295 12.6773 264.821 12.0466C265.096 11.7738 265.425 11.5628 265.787 11.4274C266.149 11.292 266.534 11.2353 266.919 11.261C267.539 11.2499 268.154 11.3851 268.713 11.656L268.249 12.8847C268.002 12.785 267.772 12.7023 267.557 12.6374C267.349 12.576 267.134 12.5439 266.918 12.5421C266.1 12.5421 265.691 13.1294 265.692 14.3039C265.692 15.4411 266.101 16.0096 266.918 16.0096C267.203 16.013 267.486 15.9719 267.758 15.8878C268.033 15.7981 268.293 15.6696 268.532 15.5061V16.8647C268.296 17.0217 268.035 17.1361 267.76 17.2029C267.439 17.2735 267.11 17.3055 266.781 17.2981Z" fill="#1A1A1A"/>
<path d="M275.347 12.8973C275.354 13.1915 275.249 13.4773 275.055 13.6962C274.826 13.9342 274.523 14.0845 274.197 14.1215V14.1607C274.559 14.1904 274.9 14.3399 275.168 14.586C275.284 14.6976 275.376 14.8325 275.438 14.982C275.5 15.1315 275.53 15.2924 275.527 15.4544C275.539 15.7093 275.485 15.963 275.369 16.1901C275.254 16.4171 275.081 16.6095 274.869 16.748C274.297 17.0806 273.64 17.236 272.981 17.1948H270.028V11.3695H272.983C273.6 11.328 274.216 11.4634 274.759 11.7601C274.949 11.8799 275.103 12.0484 275.206 12.2483C275.309 12.4481 275.358 12.6721 275.347 12.8973ZM273.753 13.0235C273.753 12.6676 273.475 12.4897 272.92 12.4897H271.599V13.6401H272.739C272.999 13.6551 273.258 13.6059 273.495 13.4969C273.578 13.4507 273.646 13.3818 273.692 13.298C273.738 13.2142 273.759 13.119 273.753 13.0235ZM273.899 15.3717C273.906 15.2718 273.885 15.172 273.838 15.0837C273.791 14.9955 273.721 14.9223 273.635 14.8725C273.388 14.7568 273.118 14.7045 272.847 14.7204H271.598V16.096H272.877C273.144 16.1135 273.409 16.0467 273.637 15.9048C273.722 15.8453 273.79 15.7652 273.836 15.6719C273.882 15.5786 273.903 15.4758 273.899 15.3717Z" fill="#1A1A1A"/>
<path d="M282.171 14.2729C282.219 15.083 281.952 15.88 281.428 16.4948C281.16 16.7689 280.837 16.9822 280.48 17.1206C280.124 17.259 279.743 17.3193 279.362 17.2974C278.851 17.3081 278.346 17.1806 277.9 16.9282C277.477 16.6851 277.138 16.3172 276.927 15.8738C276.691 15.3744 276.574 14.8257 276.586 14.2722C276.537 13.4631 276.801 12.6664 277.323 12.0503C277.594 11.779 277.919 11.5684 278.276 11.4323C278.633 11.2961 279.014 11.2375 279.395 11.2602C279.906 11.2502 280.41 11.376 280.857 11.625C281.279 11.866 281.618 12.2309 281.83 12.6713C282.067 13.1705 282.184 13.7193 282.171 14.2729ZM278.187 14.2729C278.158 14.726 278.255 15.1782 278.466 15.5792C278.566 15.7281 278.703 15.8476 278.864 15.9254C279.025 16.0032 279.203 16.0366 279.381 16.0222C279.557 16.0371 279.735 16.0039 279.894 15.9259C280.053 15.848 280.189 15.7282 280.287 15.5792C280.495 15.1774 280.59 14.7255 280.562 14.2729C280.592 13.8225 280.495 13.3727 280.283 12.9756C280.172 12.8405 280.034 12.7317 279.877 12.6568C279.72 12.582 279.548 12.543 279.375 12.5426C279.201 12.5422 279.03 12.5803 278.873 12.6544C278.715 12.7285 278.576 12.8366 278.465 12.9711C278.253 13.3702 278.157 13.8212 278.187 14.2729Z" fill="#1A1A1A"/>
<path d="M283.277 13.7044C283.207 12.6339 283.472 11.5683 284.033 10.6577C284.616 9.92091 285.464 9.44791 286.392 9.34262C286.911 9.25549 287.685 9.13882 288.716 9L288.896 10.3867C288.449 10.4389 287.658 10.5504 286.521 10.7212C286.181 10.7592 285.851 10.8654 285.552 11.0336C285.336 11.1772 285.17 11.3849 285.075 11.628C284.956 11.9564 284.891 12.3024 284.882 12.6521H284.96C285.138 12.3723 285.387 12.1459 285.682 11.9964C286.11 11.7894 286.591 11.7196 287.06 11.7964C287.528 11.8732 287.963 12.093 288.304 12.4262C288.731 12.9573 288.943 13.6319 288.897 14.3143C288.922 14.7129 288.868 15.1125 288.74 15.4902C288.611 15.8678 288.41 16.216 288.147 16.5147C287.875 16.7838 287.551 16.9926 287.195 17.1279C286.839 17.2632 286.459 17.3219 286.079 17.3004C285.685 17.3186 285.293 17.2414 284.934 17.0753C284.576 16.9092 284.262 16.6591 284.019 16.3456C283.485 15.5746 283.223 14.644 283.277 13.7044ZM286.171 16.0089C286.916 16.0089 287.289 15.492 287.29 14.4583C287.29 13.4474 286.953 12.9394 286.278 12.9394C286.086 12.941 285.897 12.9854 285.724 13.0693C285.54 13.158 285.37 13.2734 285.219 13.4119C285.082 13.5315 284.968 13.6757 284.882 13.8373C284.85 14.396 284.965 14.9535 285.217 15.4521C285.31 15.6246 285.448 15.7679 285.616 15.8661C285.785 15.9643 285.977 16.0138 286.171 16.0089Z" fill="#1A1A1A"/>
<path d="M295.591 14.2729C295.639 15.0826 295.373 15.8792 294.85 16.4948C294.581 16.7685 294.258 16.9816 293.901 17.1199C293.545 17.2583 293.163 17.3188 292.782 17.2974C292.271 17.3085 291.766 17.181 291.32 16.9282C290.897 16.6845 290.557 16.3169 290.345 15.8738C290.109 15.3742 289.993 14.8255 290.006 14.2722C289.956 13.4629 290.22 12.6659 290.743 12.0503C291.014 11.7788 291.338 11.5681 291.695 11.4319C292.053 11.2958 292.434 11.2373 292.815 11.2602C293.326 11.2501 293.83 11.3759 294.277 11.625C294.699 11.8665 295.039 12.2312 295.252 12.6713C295.488 13.1711 295.604 13.7196 295.591 14.2729ZM291.606 14.2729C291.579 14.7263 291.676 15.1785 291.888 15.5792C291.988 15.7285 292.125 15.8483 292.286 15.9261C292.447 16.004 292.625 16.0372 292.803 16.0222C292.979 16.0369 293.156 16.0035 293.315 15.9256C293.474 15.8476 293.609 15.728 293.707 15.5792C293.916 15.1777 294.011 14.7256 293.982 14.2729C294.011 13.8228 293.916 13.3733 293.705 12.9756C293.594 12.8402 293.456 12.7312 293.298 12.6562C293.141 12.5812 292.97 12.5421 292.796 12.5417C292.623 12.5413 292.451 12.5795 292.294 12.6537C292.136 12.728 291.997 12.8363 291.886 12.9711C291.673 13.3698 291.576 13.8211 291.606 14.2729Z" fill="#1A1A1A"/>
<path d="M303.075 19.2815H301.663V17.194H297.79V19.2815H296.372V16.0325H296.857C297.226 15.4241 297.505 14.7647 297.686 14.075C297.927 13.1906 298.084 12.2853 298.157 11.371H302.229V16.0325H303.073L303.075 19.2815ZM300.659 16.0325V12.562H299.477C299.396 13.1819 299.279 13.7964 299.125 14.4021C298.98 14.966 298.771 15.5111 298.502 16.0266L300.659 16.0325Z" fill="#1A1A1A"/>
<path d="M305.79 11.3695V13.6091H307.987V11.3695H309.559V17.194H307.987V14.7942H305.79V17.194H304.218V11.3695H305.79Z" fill="#1A1A1A"/>
<path d="M315.029 17.194L314.724 16.3995H314.683C314.469 16.6957 314.188 16.9366 313.864 17.1025C313.517 17.2456 313.143 17.3121 312.768 17.2974C312.529 17.3106 312.291 17.2748 312.066 17.192C311.841 17.1093 311.636 16.9813 311.462 16.816C311.296 16.633 311.169 16.4179 311.087 16.1838C311.006 15.9496 310.973 15.7012 310.99 15.4536C310.971 15.1892 311.021 14.9246 311.134 14.6851C311.246 14.4457 311.418 14.2397 311.632 14.0868C312.221 13.7484 312.89 13.5803 313.568 13.601L314.568 13.5707V13.3145C314.584 13.1925 314.571 13.0686 314.531 12.9524C314.491 12.8362 314.425 12.731 314.338 12.6451C314.251 12.5591 314.146 12.4948 314.03 12.4572C313.914 12.4196 313.791 12.4097 313.671 12.4284C313.106 12.4535 312.553 12.5968 312.047 12.8493L311.527 11.7771C312.208 11.4217 312.966 11.2414 313.733 11.2521C314.366 11.2099 314.994 11.3893 315.511 11.7601C315.725 11.9535 315.892 12.1939 315.999 12.4628C316.106 12.7316 316.151 13.0217 316.129 13.3108V17.1911L315.029 17.194ZM314.564 14.4944L313.954 14.5159C313.596 14.5012 313.242 14.5885 312.931 14.7676C312.82 14.8438 312.731 14.9479 312.672 15.0697C312.613 15.1914 312.587 15.3266 312.595 15.4617C312.595 15.9129 312.851 16.1344 313.358 16.1344C313.517 16.1432 313.677 16.1197 313.828 16.0653C313.978 16.0109 314.117 15.9267 314.235 15.8177C314.345 15.7083 314.431 15.5769 314.488 15.4319C314.544 15.287 314.57 15.1316 314.564 14.9759L314.564 14.4944Z" fill="#1A1A1A"/>
<path d="M318.779 17.194H317.078L318.629 14.8895C318.287 14.7555 317.993 14.5193 317.787 14.2124C317.592 13.9013 317.492 13.5387 317.501 13.1705C317.491 12.9157 317.542 12.6623 317.651 12.4322C317.76 12.2022 317.923 12.0027 318.126 11.851C318.628 11.5049 319.229 11.3357 319.836 11.3695H322.517V17.194H320.944V15.0283H320.079L318.779 17.194ZM319.04 13.1838C319.036 13.2951 319.06 13.4056 319.11 13.5051C319.159 13.6045 319.233 13.6896 319.324 13.7524C319.544 13.9 319.804 13.9729 320.067 13.9606H320.944V12.4889H319.866C319.648 12.4767 319.433 12.5446 319.26 12.6802C319.189 12.7419 319.132 12.8193 319.094 12.9066C319.056 12.9938 319.037 13.0886 319.04 13.1838Z" fill="#1A1A1A"/>
<path d="M265.771 25.967C265.16 25.9899 264.552 25.8665 263.996 25.6066V24.3639C264.522 24.6242 265.097 24.7663 265.683 24.7804C265.844 24.7909 266.005 24.767 266.156 24.7101C266.307 24.6532 266.445 24.5647 266.56 24.4503C266.789 24.167 266.916 23.8135 266.921 23.4476H264.745V22.3939H266.917C266.917 22.0474 266.806 21.7104 266.599 21.4339C266.5 21.323 266.378 21.2361 266.241 21.1797C266.104 21.1233 265.956 21.0989 265.809 21.1083C265.344 21.1206 264.887 21.2331 264.469 21.4384L264.024 20.3485C264.306 20.2191 264.6 20.1189 264.901 20.0494C265.22 19.9719 265.546 19.9325 265.874 19.932C266.242 19.9028 266.612 19.9536 266.959 20.081C267.305 20.2083 267.621 20.4093 267.885 20.6704C268.368 21.3036 268.602 22.095 268.543 22.8923C268.601 23.7187 268.352 24.5374 267.845 25.188C267.575 25.4608 267.25 25.6716 266.892 25.806C266.534 25.9405 266.152 25.9954 265.771 25.967Z" fill="#1A1A1A"/>
<path d="M273.787 20.0369H275.519L273.236 22.8273L275.721 25.8614H273.933L271.579 22.9078V25.8614H270.007V20.0369H271.579V22.8657L273.787 20.0369Z" fill="#1A1A1A"/>
<path d="M281.939 22.9395C281.987 23.7496 281.72 24.5466 281.196 25.1614C280.927 25.4355 280.604 25.6488 280.248 25.7871C279.892 25.9255 279.51 25.9858 279.129 25.964C278.618 25.9747 278.114 25.8473 277.668 25.5948C277.244 25.3518 276.905 24.9839 276.694 24.5404C276.457 24.0415 276.339 23.4931 276.35 22.9395C276.301 22.1304 276.565 21.3338 277.087 20.7177C277.358 20.4463 277.683 20.2357 278.04 20.0996C278.397 19.9635 278.778 19.9049 279.159 19.9276C279.67 19.9175 280.174 20.0433 280.621 20.2924C281.043 20.5331 281.382 20.8978 281.594 21.3379C281.832 21.8368 281.951 22.3856 281.939 22.9395ZM277.953 22.9395C277.925 23.3927 278.022 23.8448 278.233 24.2458C278.333 24.3947 278.47 24.5142 278.631 24.592C278.792 24.6698 278.97 24.7032 279.148 24.6888C279.324 24.7038 279.501 24.6706 279.661 24.5926C279.82 24.5147 279.956 24.3949 280.054 24.2458C280.263 23.8441 280.358 23.3923 280.33 22.9395C280.36 22.4891 280.264 22.0393 280.051 21.6422C279.941 21.5067 279.802 21.3976 279.645 21.3225C279.488 21.2474 279.316 21.2083 279.142 21.2079C278.968 21.2074 278.797 21.2457 278.639 21.32C278.482 21.3943 278.342 21.5028 278.231 21.6377C278.02 22.0369 277.924 22.4879 277.953 22.9395Z" fill="#1A1A1A"/>
<path d="M284.97 20.0369V22.275H287.163V20.0369H288.735V25.8614H287.163V23.4616H284.97V25.8614H283.398V20.0369H284.97Z" fill="#1A1A1A"/>
<path d="M295.783 22.9395C295.83 23.7496 295.564 24.5466 295.039 25.1614C294.771 25.436 294.448 25.6498 294.092 25.7887C293.736 25.9276 293.355 25.9883 292.973 25.967C292.462 25.9777 291.957 25.8502 291.511 25.5978C291.089 25.3542 290.749 24.9864 290.538 24.5433C290.3 24.0435 290.182 23.494 290.194 22.9395C290.144 22.13 290.41 21.333 290.933 20.7177C291.203 20.4462 291.528 20.2355 291.884 20.0994C292.241 19.9632 292.622 19.9047 293.003 19.9276C293.514 19.9175 294.018 20.0433 294.465 20.2924C294.887 20.5336 295.227 20.8981 295.44 21.3379C295.677 21.8374 295.794 22.3859 295.783 22.9395ZM291.798 22.9395C291.769 23.393 291.867 23.8455 292.079 24.2458C292.179 24.395 292.317 24.5148 292.477 24.5926C292.638 24.6705 292.817 24.7037 292.994 24.6888C293.171 24.7035 293.347 24.6701 293.506 24.5922C293.665 24.5142 293.801 24.3946 293.899 24.2458C294.107 23.844 294.202 23.3922 294.174 22.9395C294.204 22.4894 294.108 22.0399 293.897 21.6422C293.786 21.5068 293.647 21.3977 293.49 21.3227C293.333 21.2477 293.161 21.2086 292.987 21.2082C292.814 21.2078 292.642 21.2461 292.484 21.3203C292.327 21.3945 292.187 21.5029 292.076 21.6377C291.864 22.0369 291.768 22.4879 291.798 22.9395Z" fill="#1A1A1A"/>
<path d="M304.504 25.8614H303.035V21.2737L302.953 21.5949C302.818 22.1584 302.651 22.7134 302.452 23.257L301.429 25.8614H300.31L299.272 23.2356C299.082 22.709 298.924 22.1712 298.799 21.6252L298.7 21.2737V25.8614H297.239V20.0369H299.404L300.394 22.5238C300.509 22.824 300.604 23.1313 300.68 23.4439C300.757 23.7352 300.817 24.0311 300.858 24.3299C300.972 23.8091 301.061 23.436 301.125 23.2105C301.182 22.997 301.252 22.787 301.333 22.5814C301.408 22.3904 301.749 21.5412 302.356 20.0339H304.5L304.504 25.8614Z" fill="#1A1A1A"/>
<path d="M307.833 20.0369V22.3414C307.833 22.5844 307.792 23.1751 307.712 24.121L310.374 20.0369H312.266V25.8614H310.745V23.5391C310.745 23.1227 310.779 22.5408 310.848 21.7854L308.197 25.8606H306.312V20.0369H307.833Z" fill="#1A1A1A"/>
<path d="M315.456 20.0369V22.1679C315.456 22.6759 315.688 22.9277 316.152 22.9277C316.436 22.9301 316.719 22.8951 316.994 22.8236C317.261 22.751 317.524 22.6613 317.78 22.5548V20.0369H319.353V25.8614H317.78V23.548C317.459 23.7249 317.118 23.8632 316.764 23.96C316.468 24.0363 316.164 24.0757 315.858 24.0774C315.327 24.1137 314.802 23.9395 314.396 23.5915C314.218 23.4096 314.081 23.1916 313.992 22.9519C313.904 22.7122 313.867 22.4563 313.884 22.2011V20.0369H315.456Z" fill="#1A1A1A"/>
<path d="M323.764 25.967C323.369 25.9902 322.972 25.9335 322.599 25.8001C322.225 25.6667 321.882 25.4594 321.588 25.1902C321.316 24.8977 321.106 24.552 320.971 24.1743C320.836 23.7966 320.779 23.3949 320.804 22.9942C320.753 22.1738 321.011 21.3642 321.528 20.7288C321.785 20.4576 322.097 20.2458 322.443 20.108C322.789 19.9702 323.16 19.9097 323.532 19.9306C323.879 19.9096 324.227 19.9612 324.554 20.0821C324.881 20.2031 325.18 20.3908 325.432 20.6335C325.668 20.8952 325.85 21.2021 325.967 21.536C326.084 21.8699 326.134 22.2241 326.113 22.5777V23.3457H322.397C322.391 23.737 322.533 24.1159 322.795 24.4045C322.934 24.5355 323.097 24.6364 323.276 24.7013C323.455 24.7662 323.645 24.7936 323.834 24.7818C324.166 24.7844 324.497 24.748 324.82 24.6733C325.154 24.5921 325.479 24.4758 325.789 24.3263V25.5542C325.511 25.6948 325.216 25.7983 324.912 25.8621C324.534 25.9381 324.149 25.9732 323.764 25.967ZM323.545 21.0581C323.399 21.0503 323.253 21.0751 323.117 21.1306C322.982 21.1861 322.86 21.271 322.761 21.3793C322.554 21.6373 322.439 21.9584 322.436 22.2905H324.642C324.657 21.9589 324.548 21.6336 324.337 21.3793C324.235 21.2712 324.112 21.1864 323.975 21.1307C323.838 21.0751 323.691 21.0498 323.543 21.0566L323.545 21.0581Z" fill="#1A1A1A"/>
<path d="M329.893 25.967C328.099 25.967 327.202 24.9716 327.201 22.9809C327.145 22.1585 327.407 21.3461 327.932 20.7155C328.208 20.4426 328.537 20.2315 328.898 20.0962C329.26 19.9608 329.646 19.9041 330.031 19.9298C330.651 19.9187 331.265 20.054 331.824 20.3249L331.36 21.5528C331.113 21.4531 330.883 21.3704 330.668 21.3055C330.461 21.2441 330.246 21.212 330.03 21.2102C329.211 21.2102 328.803 21.7975 328.804 22.972C328.804 24.1092 329.212 24.6777 330.03 24.6777C330.314 24.681 330.598 24.6399 330.87 24.5559C331.144 24.4662 331.404 24.3377 331.643 24.1741V25.5328C331.407 25.69 331.146 25.8047 330.872 25.8717C330.55 25.9423 330.222 25.9743 329.893 25.967Z" fill="#1A1A1A"/>
<path d="M336.916 20.0369H338.648L336.367 22.8273L338.852 25.8614H337.069L334.713 22.9078V25.8614H333.136V20.0369H334.708V22.8657L336.916 20.0369Z" fill="#1A1A1A"/>
<path d="M343.494 25.8614L343.189 25.0669H343.149C342.935 25.3625 342.655 25.6033 342.332 25.7698C341.985 25.9125 341.611 25.979 341.236 25.9648C340.997 25.9782 340.758 25.9424 340.533 25.8596C340.308 25.7769 340.102 25.6489 339.928 25.4833C339.761 25.3007 339.633 25.0856 339.551 24.8513C339.469 24.6169 339.435 24.3682 339.451 24.1202C339.433 23.8557 339.482 23.5909 339.595 23.3513C339.707 23.1118 339.879 22.9056 340.094 22.7527C340.683 22.4146 341.352 22.2466 342.029 22.2669L343.03 22.2366V21.9796C343.045 21.8576 343.033 21.7336 342.993 21.6174C342.953 21.5011 342.887 21.3958 342.8 21.3098C342.713 21.2239 342.607 21.1596 342.491 21.122C342.375 21.0845 342.252 21.0747 342.132 21.0935C341.568 21.1187 341.015 21.262 340.508 21.5144L339.988 20.4423C340.67 20.0872 341.427 19.907 342.194 19.9173C342.827 19.8749 343.456 20.0543 343.973 20.4253C344.187 20.6187 344.354 20.8591 344.461 21.1279C344.568 21.3968 344.613 21.6869 344.592 21.9759V25.8562L343.494 25.8614ZM343.03 23.1618L342.422 23.1832C342.064 23.1681 341.709 23.2554 341.398 23.435C341.287 23.5112 341.198 23.6154 341.14 23.7371C341.081 23.8588 341.055 23.994 341.064 24.1291C341.064 24.5803 341.317 24.8018 341.826 24.8018C341.986 24.8102 342.145 24.7865 342.296 24.7322C342.446 24.6778 342.585 24.5938 342.703 24.485C342.812 24.3752 342.898 24.2437 342.954 24.0988C343.01 23.9539 343.036 23.7988 343.03 23.6432V23.1618Z" fill="#1A1A1A"/>
<path d="M347.242 25.8614H345.541L347.094 23.5568C346.751 23.4236 346.456 23.1873 346.25 22.8797C346.056 22.5683 345.956 22.2059 345.964 21.8378C345.954 21.5828 346.005 21.3291 346.115 21.099C346.224 20.869 346.388 20.6695 346.591 20.5183C347.092 20.172 347.692 20.0027 348.299 20.0369H350.98V25.8614H349.407V23.6957H348.541L347.242 25.8614ZM347.506 21.8511C347.501 21.9624 347.525 22.073 347.575 22.1724C347.624 22.2719 347.698 22.357 347.789 22.4197C348.008 22.5673 348.268 22.6403 348.53 22.6279H349.407V21.1563H348.331C348.113 21.144 347.898 21.2119 347.726 21.3475C347.654 21.4094 347.597 21.4869 347.559 21.5741C347.522 21.6613 347.504 21.756 347.508 21.8511H347.506Z" fill="#1A1A1A"/>
<path d="M265.874 30.9438C266.301 30.9644 266.728 30.9146 267.139 30.7961C267.243 30.771 267.336 30.7119 267.404 30.6279C267.471 30.5439 267.509 30.4398 267.512 30.3317C267.513 30.2422 267.487 30.1546 267.439 30.0797C267.39 30.0048 267.321 29.9461 267.24 29.9108C266.953 29.7986 266.645 29.7513 266.338 29.772C266.036 29.7749 265.734 29.8068 265.438 29.8672C265.125 29.9278 264.819 30.0193 264.523 30.1404L264.059 29.0328C264.444 28.8824 264.842 28.7704 265.249 28.6983C265.675 28.6255 266.106 28.5907 266.537 28.5942C267.141 28.5646 267.74 28.7091 268.265 29.0107C268.464 29.1229 268.63 29.2873 268.744 29.4866C268.859 29.686 268.918 29.9129 268.916 30.1434C268.916 30.7991 268.531 31.2244 267.765 31.4238V31.4762C268.141 31.5447 268.491 31.7193 268.774 31.9798C268.98 32.2129 269.088 32.5181 269.074 32.8304C269.078 33.1756 268.957 33.5103 268.735 33.7726C268.47 34.0712 268.129 34.2917 267.749 34.4106C267.26 34.5674 266.748 34.6422 266.235 34.6321C265.479 34.67 264.724 34.5472 264.018 34.2718V32.9574C264.329 33.1014 264.655 33.212 264.989 33.2875C265.325 33.3638 265.668 33.4032 266.012 33.4049C266.403 33.4258 266.795 33.3668 267.163 33.2314C267.27 33.1979 267.363 33.1319 267.431 33.0426C267.499 32.9532 267.538 32.8448 267.543 32.7322C267.54 32.6134 267.5 32.4986 267.427 32.4049C267.355 32.3112 267.255 32.2434 267.141 32.2116C266.742 32.079 266.323 32.0217 265.904 32.0425H265.296V30.9438H265.874Z" fill="#1A1A1A"/>
<path d="M275.697 31.6032C275.745 32.4131 275.479 33.21 274.956 33.8258C274.688 34.1005 274.364 34.3143 274.008 34.4527C273.651 34.5911 273.269 34.651 272.888 34.6284C272.377 34.6389 271.873 34.5131 271.426 34.2637C271.004 34.0178 270.665 33.6507 270.451 33.2092C270.215 32.7081 270.099 32.158 270.112 31.6032C270.062 30.796 270.326 30.0011 270.849 29.388C271.119 29.1151 271.443 28.9032 271.801 28.7663C272.158 28.6293 272.54 28.5704 272.921 28.5935C273.432 28.5832 273.936 28.709 274.383 28.9582C274.805 29.2013 275.145 29.5672 275.358 30.0082C275.594 30.5056 275.71 31.052 275.697 31.6032ZM271.712 31.6032C271.684 32.0566 271.782 32.5089 271.994 32.9094C272.103 33.0467 272.241 33.1576 272.399 33.234C272.556 33.3103 272.728 33.3501 272.902 33.3506C273.077 33.351 273.249 33.312 273.407 33.2364C273.564 33.1609 273.703 33.0506 273.813 32.9139C274.022 32.5108 274.117 32.0573 274.088 31.6032C274.117 31.1531 274.021 30.7038 273.811 30.3058C273.7 30.1713 273.56 30.0632 273.403 29.9889C273.246 29.9147 273.075 29.8763 272.901 29.8763C272.728 29.8763 272.556 29.9147 272.399 29.9889C272.242 30.0632 272.103 30.1713 271.992 30.3058C271.779 30.7028 271.682 31.1527 271.712 31.6032Z" fill="#1A1A1A"/>
<path d="M278.728 28.7042V30.9438H280.921V28.7042H282.493V34.5243H280.921V32.1245H278.728V34.5243H277.156V28.7042H278.728Z" fill="#1A1A1A"/>
<path d="M287.967 34.5243L287.662 33.7342H287.621C287.405 34.0282 287.125 34.2673 286.802 34.4327C286.455 34.5762 286.081 34.6429 285.706 34.6284C285.468 34.6412 285.229 34.6055 285.005 34.5235C284.781 34.4414 284.575 34.3146 284.4 34.1507C284.233 33.9671 284.105 33.7514 284.023 33.5165C283.941 33.2816 283.907 33.0324 283.923 32.7839C283.905 32.5194 283.955 32.2546 284.067 32.015C284.18 31.7755 284.351 31.5693 284.566 31.4164C285.155 31.08 285.824 30.9121 286.501 30.9305L287.502 30.9002V30.644C287.518 30.5221 287.506 30.3981 287.466 30.2819C287.426 30.1658 287.36 30.0605 287.273 29.9746C287.186 29.8887 287.08 29.8243 286.964 29.7867C286.848 29.7491 286.725 29.7393 286.605 29.7579C286.041 29.7851 285.488 29.9283 284.981 30.1788L284.461 29.1067C285.143 28.7512 285.9 28.5709 286.667 28.5817C287.301 28.5385 287.93 28.7197 288.445 29.0941C288.66 29.2868 288.827 29.5271 288.935 29.7961C289.042 30.0651 289.086 30.3556 289.064 30.6447V34.525L287.967 34.5243ZM287.502 31.8291L286.892 31.8469C286.535 31.8364 286.181 31.9234 285.869 32.0987C285.758 32.1758 285.669 32.2808 285.61 32.4032C285.552 32.5257 285.525 32.6614 285.534 32.7972C285.534 33.2439 285.79 33.4699 286.297 33.4699C286.457 33.478 286.616 33.4537 286.767 33.3986C286.918 33.3434 287.056 33.2585 287.174 33.1487C287.284 33.0399 287.371 32.9085 287.427 32.7634C287.484 32.6183 287.51 32.4627 287.502 32.3069V31.8291Z" fill="#1A1A1A"/>
<path d="M78.6437 11.2584L67.3602 11.2628C61.2763 11.7406 58.2438 14.8419 58.2475 23.555C58.2475 32.9873 61.7214 35.7763 68.833 35.8641C68.8914 35.8641 70.9701 35.8641 73.0136 35.8641C75.0572 35.8641 77.1351 35.8641 77.1936 35.8604C84.3051 35.7674 87.7732 32.9755 87.7703 23.5432C87.7666 14.83 84.732 11.7288 78.6437 11.2584ZM73.0114 31.2262C69.3073 31.1524 68.1664 29.7989 68.1642 23.5277C68.1642 17.0357 69.3029 15.8911 73.0056 15.8254C76.7083 15.8882 77.8507 17.032 77.8529 23.524C77.855 29.7945 76.7156 31.148 73.0114 31.2262Z" fill="#ED1C23"/>
<path d="M133.844 13.4773L125.676 26.6319L125.671 13.1435C125.673 12.9093 125.583 12.6838 125.421 12.5164C125.259 12.3489 125.038 12.2532 124.806 12.2501H118.097C117.866 12.254 117.645 12.35 117.484 12.5174C117.322 12.6847 117.233 12.9098 117.235 13.1435L117.243 33.9148C117.242 34.0304 117.263 34.1452 117.306 34.2524C117.349 34.3596 117.413 34.4572 117.493 34.5395C117.573 34.6219 117.669 34.6873 117.775 34.7322C117.88 34.777 117.994 34.8004 118.108 34.8008L124.273 34.8082C124.709 34.8033 125.136 34.6873 125.515 34.4709C125.894 34.2546 126.213 33.9449 126.442 33.5707L134.614 20.3585L134.619 33.9007C134.617 34.135 134.707 34.3605 134.869 34.5279C135.031 34.6953 135.252 34.7911 135.484 34.7942H142.194C142.306 34.7991 142.417 34.781 142.522 34.7411C142.627 34.7011 142.723 34.6402 142.803 34.5619C142.884 34.4835 142.948 34.3895 142.992 34.2854C143.036 34.1812 143.059 34.0692 143.058 33.9561L143.05 13.1332C143.052 12.899 142.962 12.6735 142.8 12.506C142.638 12.3386 142.417 12.2429 142.185 12.2397H136.031C135.592 12.2414 135.161 12.356 134.779 12.5725C134.396 12.789 134.075 13.1004 133.844 13.4773Z" fill="#ED1C23"/>
<path d="M187.839 8.6797V1.79559C187.838 1.56083 187.884 1.32835 187.973 1.11142C188.062 0.894492 188.192 0.697366 188.356 0.531297C188.521 0.365228 188.716 0.233468 188.93 0.14354C189.145 0.0536116 189.375 0.00727621 189.607 0.00717926H197.484L187.839 8.6797Z" fill="#ED1C23"/>
<path d="M173.284 12.2294H166.484C165.995 12.2294 165.599 12.6297 165.599 13.1236V33.8882C165.599 34.382 165.995 34.7824 166.484 34.7824H173.284C173.773 34.7824 174.169 34.382 174.169 33.8882V13.1236C174.169 12.6297 173.773 12.2294 173.284 12.2294Z" fill="#ED1C23"/>
<path d="M102.585 34.8104H95.6413C95.5243 34.8112 95.4084 34.7887 95.3001 34.7442C95.1918 34.6998 95.0933 34.6342 95.01 34.5512C94.9268 34.4682 94.8606 34.3695 94.8152 34.2607C94.7697 34.1519 94.7459 34.0351 94.7452 33.917L94.7379 15.8343C94.7405 15.3618 94.8352 14.8945 95.0165 14.459C95.1979 14.0235 95.4625 13.6284 95.7951 13.2963C96.1277 12.9641 96.5218 12.7014 96.9549 12.5232C97.388 12.3449 97.8516 12.2546 98.3192 12.2575L113.748 12.2515L108.391 18.4992C108.137 18.7938 107.824 19.03 107.472 19.1918C107.12 19.3536 106.738 19.4372 106.352 19.4369H103.477L103.482 33.9148C103.482 34.0332 103.458 34.1503 103.413 34.2595C103.367 34.3687 103.301 34.4677 103.218 34.5509C103.134 34.6342 103.035 34.6999 102.927 34.7445C102.818 34.789 102.702 34.8114 102.585 34.8104Z" fill="#ED1C23"/>
<path d="M158.984 20.4293C158.984 20.0259 159.073 19.6275 159.246 19.2637C159.419 18.8999 159.67 18.5801 159.982 18.3278L166.414 12.7788H166.829C166.987 12.6337 167.095 12.4423 167.139 12.2316L157.159 12.2353C156.563 12.2358 155.986 12.4407 155.521 12.8164L150.967 16.4959C150.656 16.748 150.404 17.0679 150.232 17.4317C150.059 17.7955 149.97 18.1939 149.97 18.5974L149.976 33.8978C149.976 34.1336 150.068 34.3601 150.232 34.5276C150.396 34.6951 150.62 34.7899 150.853 34.7912H158.113C158.346 34.7901 158.57 34.6952 158.734 34.5275C158.899 34.3599 158.991 34.1331 158.99 33.897L158.984 20.4293Z" fill="#ED1C23"/>
<path d="M199.011 8.67547V1.79136C199.01 1.3175 199.195 0.86263 199.526 0.526726C199.857 0.190823 200.306 0.0013691 200.775 0H208.654L199.011 8.67547Z" fill="#ED1C23"/>
<path d="M243.831 28.6153C243.831 32.5081 241.749 34.7558 237.102 34.7573L218.694 34.7647C218.459 34.7647 218.234 34.6706 218.068 34.503C217.902 34.3355 217.809 34.1082 217.809 33.8712L217.801 12.0802C217.801 11.8432 217.894 11.6159 218.06 11.4482C218.225 11.2805 218.45 11.1862 218.685 11.186L236.585 11.1794C242.057 11.1794 243.281 13.4507 243.282 17.0785C243.282 20.3193 242.422 22.1232 238.02 22.4636C242.649 22.6061 243.83 24.9395 243.831 28.6153ZM226.436 20.4153H233.218C234.852 20.4153 235.442 19.4236 235.441 17.7312C235.441 15.8446 234.851 15.2856 233.216 15.2864H226.435L226.436 20.4153ZM233.446 30.6436C235.217 30.6436 235.943 29.6889 235.942 27.6576C235.942 25.4327 235.079 24.5149 233.311 24.5164H226.44V30.6451L233.446 30.6436Z" fill="#ED1C23"/>
<path d="M210.77 23.4863C210.77 14.7732 207.727 11.6719 201.623 11.1993H190.306C184.202 11.6719 181.159 14.7739 181.159 23.4863C181.159 32.1079 184.077 35.1722 190.024 35.7054C190.775 35.8057 191.532 35.8585 192.29 35.8634H196.103C198.423 35.8634 205.94 35.362 208.215 34.5882L207.322 30.1268C205.538 30.6732 198.377 31.083 196.771 31.083C192.801 31.083 190.924 30.081 190.882 25.1174H190.696V25.0436H210.037V25.017H210.733C210.756 24.5252 210.77 24.0202 210.77 23.4863ZM195.965 15.7641C199.004 15.8165 200.307 16.6458 200.685 20.4862H191.244C191.622 16.6458 192.925 15.8165 195.965 15.7641Z" fill="#ED1C23"/>
<path d="M9.02867 13.0507C8.01269 13.051 7.02666 13.3984 6.23083 14.0365L1.02324 18.2114C0.704471 18.467 0.446901 18.7919 0.269731 19.162C0.0925614 19.5322 0.000360373 19.9379 0 20.3491V35.0898C0 35.331 0.0948692 35.5624 0.263737 35.733C0.432605 35.9036 0.66164 35.9995 0.900455 35.9995H9.42847C9.66728 35.9995 9.89632 35.9036 10.0652 35.733C10.2341 35.5624 10.3289 35.331 10.3289 35.0898V20.7559C10.3291 20.4368 10.3991 20.1217 10.5341 19.8331C10.6691 19.5446 10.8656 19.2898 11.1095 19.0871C11.1095 19.0871 17.0992 14.0379 17.7686 13.5447C18.0874 13.2734 18.4776 13.102 18.8913 13.0514L9.02867 13.0507Z" fill="#ED1C23"/>
<path d="M29.4761 13.032C28.4598 13.0321 27.4735 13.3795 26.6775 14.0178L21.4692 18.1935C21.1499 18.4494 20.8921 18.775 20.7149 19.1458C20.5377 19.5166 20.4458 19.9231 20.4459 20.3348V35.074C20.4459 35.3153 20.5408 35.5467 20.7097 35.7173C20.8786 35.8879 21.1076 35.9837 21.3464 35.9837H29.8795C30.1183 35.9837 30.3474 35.8879 30.5162 35.7173C30.6851 35.5467 30.78 35.3153 30.78 35.074V20.7372C30.7799 20.4181 30.8497 20.1029 30.9844 19.8143C31.1191 19.5257 31.3154 19.2707 31.5591 19.0677C31.5591 19.0677 37.5488 14.0185 38.2182 13.5253C38.5782 13.2411 39.0127 13.0696 39.4681 13.032H29.4761Z" fill="#ED1C23"/>
<path d="M41.1681 20.084L41.1199 35.0853C41.1195 35.205 41.1425 35.3236 41.1876 35.4344C41.2326 35.5451 41.2989 35.6457 41.3826 35.7305C41.4662 35.8153 41.5656 35.8825 41.675 35.9284C41.7845 35.9743 41.9018 35.998 42.0203 35.998H50.5476C50.7864 35.998 51.0154 35.9021 51.1843 35.7315C51.3532 35.5609 51.448 35.3295 51.448 35.0883V13.0507H48.7752C47.6753 13.0507 46.6203 13.4913 45.8414 14.2757L41.948 18.1966C41.4512 18.6968 41.1708 19.3754 41.1681 20.084Z" fill="#ED1C23"/>
<path d="M39.9871 13.6998L35.2709 17.591L36.1456 18.673L40.8618 14.7819L39.9871 13.6998Z" fill="#ED1C23"/>
<path d="M41.6955 15.6349L36.98 19.5269L37.8549 20.6088L42.5704 16.7168L41.6955 15.6349Z" fill="#ED1C23"/>
<path d="M19.487 13.4874L14.771 17.3787L15.6462 18.4613L20.3622 14.57L19.487 13.4874Z" fill="#ED1C23"/>
<path d="M21.195 15.4225L16.4794 19.3143L17.3542 20.3962L22.0698 16.5044L21.195 15.4225Z" fill="#ED1C23"/>
</svg>
