<svg width="32" height="28" viewBox="0 0 32 28" fill="none" xmlns="http://www.w3.org/2000/svg">
<path d="M1.00003 6.2L0.521647 5.32185C0.200125 5.497 3.05176e-05 5.83386 3.05176e-05 6.2H1.00003ZM1.00003 27H3.05176e-05C3.05176e-05 27.3528 0.185977 27.6796 0.489336 27.8598C0.792697 28.04 1.16857 28.0469 1.47841 27.8782L1.00003 27ZM21.4546 27L21.0243 27.9027C21.3136 28.0406 21.6515 28.0315 21.933 27.8782L21.4546 27ZM31 21.8L31.4784 22.6782C31.7999 22.503 32 22.1661 32 21.8H31ZM31 1H32C32 0.647158 31.8141 0.320432 31.5107 0.140237C31.2074 -0.0399567 30.8315 -0.0469447 30.5216 0.121849L31 1ZM10.5455 1L10.9758 0.0973064C10.6864 -0.0406029 10.3486 -0.0314767 10.0671 0.121849L10.5455 1ZM3.05176e-05 6.2V27H2.00003V6.2H3.05176e-05ZM1.47841 27.8782L11.0239 22.6782L10.0671 20.9218L0.521647 26.1218L1.47841 27.8782ZM10.1152 22.7027L21.0243 27.9027L21.8849 26.0973L10.9758 20.8973L10.1152 22.7027ZM21.933 27.8782L31.4784 22.6782L30.5216 20.9218L20.9762 26.1218L21.933 27.8782ZM32 21.8V1H30V21.8H32ZM30.5216 0.121849L20.9762 5.32185L21.933 7.07815L31.4784 1.87815L30.5216 0.121849ZM21.8849 5.29731L10.9758 0.0973064L10.1152 1.90269L21.0243 7.10269L21.8849 5.29731ZM10.0671 0.121849L0.521647 5.32185L1.47841 7.07815L11.0239 1.87815L10.0671 0.121849ZM9.54549 1V21.8H11.5455V1H9.54549ZM20.4546 6.2V27H22.4546V6.2H20.4546Z" fill="#ED1C23"/>
</svg>
