<svg width="24" height="24" viewBox="0 0 24 24" fill="none" xmlns="http://www.w3.org/2000/svg">
<path d="M23.9941 5.58049C23.9932 5.57387 23.9921 5.56734 23.991 5.56081C23.987 5.53648 23.9818 5.51259 23.9751 5.4892C23.9742 5.48559 23.9734 5.48207 23.9723 5.47846C23.964 5.45147 23.954 5.42516 23.9422 5.39972C23.9403 5.39542 23.938 5.3913 23.936 5.387C23.9253 5.36499 23.9134 5.34368 23.9004 5.32313C23.8978 5.31901 23.8953 5.31479 23.8927 5.31075C23.8774 5.28789 23.8608 5.26605 23.8427 5.24534C23.8392 5.2413 23.8354 5.23752 23.8317 5.23348C23.8158 5.2162 23.7991 5.19978 23.7814 5.18422C23.7769 5.18027 23.7726 5.17614 23.768 5.17236C23.7466 5.15448 23.724 5.13789 23.7004 5.12276C23.6967 5.12044 23.6929 5.11838 23.6892 5.11614C23.6667 5.10239 23.6434 5.09001 23.6192 5.07892C23.6167 5.0778 23.6145 5.07626 23.6121 5.07514L12.2732 0.0577001C12.0996 -0.0192334 11.9002 -0.0192334 11.7266 0.0577001L5.53304 2.72469C5.20048 2.87185 5.05333 3.25394 5.20427 3.57818C5.35512 3.90242 5.7472 4.04632 6.07968 3.89872L12 1.35268L21.7174 5.65278L12 9.81639L0.927163 5.07213L0.924783 5.07127C0.90856 5.06439 0.891808 5.05846 0.874968 5.05279C0.870736 5.05133 0.866504 5.04961 0.862272 5.04823C0.84843 5.04394 0.834147 5.04058 0.819952 5.03714C0.812458 5.03534 0.804964 5.0331 0.797381 5.03156C0.7883 5.02967 0.778955 5.02863 0.769697 5.02709C0.756825 5.02502 0.743952 5.0227 0.73108 5.02133C0.725085 5.02073 0.718825 5.02064 0.712741 5.02021C0.696607 5.01901 0.68056 5.01798 0.664514 5.01789L0.661164 5.01772C0.654904 5.01772 0.64882 5.01849 0.642649 5.01866C0.628366 5.01901 0.614082 5.01944 0.599976 5.02073C0.588955 5.02167 0.578199 5.02339 0.567354 5.02494C0.557391 5.0264 0.54734 5.02752 0.537554 5.02941C0.524064 5.0319 0.510927 5.03517 0.497702 5.03835C0.490561 5.04015 0.483419 5.0417 0.476366 5.04376C0.462083 5.0478 0.448152 5.05262 0.43431 5.05752C0.428315 5.05958 0.422319 5.06156 0.416412 5.06388C0.402746 5.06921 0.389433 5.07514 0.376208 5.08133C0.370125 5.08425 0.363865 5.08692 0.357869 5.09001C0.345879 5.09603 0.334153 5.10265 0.322603 5.10944C0.315461 5.11356 0.30832 5.1176 0.301443 5.12199C0.29148 5.12826 0.28187 5.13505 0.272259 5.14184C0.264236 5.14752 0.256213 5.15319 0.248454 5.15921C0.240343 5.16557 0.232496 5.17227 0.224737 5.17898C0.216273 5.1862 0.207898 5.19333 0.199874 5.20098C0.192909 5.2076 0.186297 5.21465 0.179684 5.22153C0.171749 5.22978 0.163814 5.23795 0.156232 5.24663C0.149531 5.25436 0.143271 5.26262 0.136835 5.2707C0.130311 5.27895 0.123786 5.28703 0.117615 5.29571C0.110297 5.30603 0.103684 5.31677 0.0969836 5.32752C0.0926634 5.33448 0.0880787 5.34127 0.0839349 5.3484C0.0759999 5.36233 0.0689465 5.37668 0.0619813 5.39112C0.0600417 5.39525 0.0576611 5.39895 0.0558096 5.40316L0.054928 5.40548C0.0478746 5.4213 0.0417911 5.43754 0.0360603 5.45387C0.0345614 5.45809 0.0327099 5.46221 0.0312992 5.46642C0.0269791 5.47975 0.0235406 5.4935 0.0201021 5.50717C0.0181624 5.51473 0.0157819 5.52221 0.0141067 5.52986C0.0122552 5.53829 0.0112854 5.54688 0.00978653 5.55539C0.00749419 5.56846 0.00502552 5.58152 0.00361485 5.59468C0.00308585 5.59983 0.00308586 5.60499 0.00264503 5.61015C0.00123435 5.62665 0.000176348 5.64324 8.81815e-05 5.65975L0 5.66258V18.2493C0 18.5008 0.149884 18.7292 0.383967 18.8346L11.7228 23.9404L11.7251 23.9414C11.7299 23.9434 11.7348 23.945 11.7397 23.947C11.7617 23.9562 11.7839 23.9642 11.8063 23.9709C11.8142 23.9733 11.8221 23.9752 11.8301 23.9773C11.8516 23.9829 11.873 23.9874 11.8945 23.9908C11.9011 23.9918 11.9077 23.9931 11.9144 23.994C11.9428 23.9976 11.9713 24 11.9996 24C12.0024 24 12.0052 23.9995 12.008 23.9994C12.0329 23.9991 12.0579 23.9973 12.0827 23.9942C12.0919 23.9931 12.1009 23.9914 12.1099 23.9899C12.1292 23.9868 12.1484 23.9828 12.1675 23.9779C12.1764 23.9757 12.1851 23.9734 12.1938 23.9708C12.2149 23.9645 12.2355 23.957 12.2561 23.9486C12.2618 23.9463 12.2676 23.9444 12.2733 23.9419L12.2772 23.9403L23.616 18.8345C23.8501 18.7292 24 18.5007 24 18.2492V5.66233C24 5.63456 23.9976 5.60731 23.9941 5.58049ZM12.6612 22.347V14.4904C12.6612 14.1343 12.3652 13.8457 12 13.8457C11.6347 13.8457 11.3387 14.1343 11.3387 14.4904V22.3471L1.32242 17.8368V6.64983L11.734 11.1108C11.8188 11.1471 11.9093 11.1653 12 11.1653C12.0908 11.1653 12.1813 11.1471 12.2661 11.1108L22.6775 6.64983V17.8367L12.6612 22.347Z" fill="white"/>
</svg>
